<svg width="687" height="666" viewBox="0 0 687 666" fill="none" xmlns="http://www.w3.org/2000/svg">
<rect width="687" height="666" fill="white"/>
<path d="M598.409 629V617.364H602.341C603.254 617.364 604 617.528 604.58 617.858C605.163 618.184 605.595 618.625 605.875 619.182C606.155 619.739 606.295 620.36 606.295 621.045C606.295 621.731 606.155 622.354 605.875 622.915C605.598 623.475 605.17 623.922 604.591 624.256C604.011 624.585 603.269 624.75 602.364 624.75H599.545V623.5H602.318C602.943 623.5 603.445 623.392 603.824 623.176C604.203 622.96 604.477 622.669 604.648 622.301C604.822 621.93 604.909 621.511 604.909 621.045C604.909 620.58 604.822 620.163 604.648 619.795C604.477 619.428 604.201 619.14 603.818 618.932C603.436 618.72 602.928 618.614 602.295 618.614H599.818V629H598.409ZM609.724 623.75V629H608.384V617.364H609.724V621.636H609.838C610.043 621.186 610.349 620.828 610.759 620.562C611.171 620.294 611.721 620.159 612.406 620.159C613.001 620.159 613.522 620.278 613.969 620.517C614.416 620.752 614.762 621.114 615.009 621.602C615.259 622.087 615.384 622.705 615.384 623.455V629H614.043V623.545C614.043 622.852 613.863 622.316 613.503 621.938C613.147 621.555 612.652 621.364 612.02 621.364C611.58 621.364 611.187 621.456 610.838 621.642C610.493 621.828 610.221 622.098 610.02 622.455C609.823 622.811 609.724 623.242 609.724 623.75ZM620.405 629.205C619.852 629.205 619.35 629.1 618.899 628.892C618.448 628.68 618.09 628.375 617.825 627.977C617.56 627.576 617.428 627.091 617.428 626.523C617.428 626.023 617.526 625.617 617.723 625.307C617.92 624.992 618.183 624.746 618.513 624.568C618.842 624.39 619.206 624.258 619.604 624.17C620.005 624.08 620.409 624.008 620.814 623.955C621.344 623.886 621.774 623.835 622.104 623.801C622.437 623.763 622.679 623.701 622.831 623.614C622.986 623.527 623.064 623.375 623.064 623.159V623.114C623.064 622.553 622.911 622.117 622.604 621.807C622.301 621.496 621.84 621.341 621.223 621.341C620.583 621.341 620.081 621.481 619.717 621.761C619.354 622.042 619.098 622.341 618.95 622.659L617.678 622.205C617.905 621.674 618.208 621.261 618.587 620.966C618.969 620.667 619.386 620.458 619.837 620.341C620.291 620.22 620.738 620.159 621.178 620.159C621.458 620.159 621.78 620.193 622.143 620.261C622.511 620.326 622.865 620.46 623.206 620.665C623.551 620.869 623.837 621.178 624.064 621.591C624.291 622.004 624.405 622.557 624.405 623.25V629H623.064V627.818H622.996C622.905 628.008 622.753 628.21 622.541 628.426C622.329 628.642 622.047 628.826 621.695 628.977C621.342 629.129 620.912 629.205 620.405 629.205ZM620.609 628C621.14 628 621.587 627.896 621.95 627.688C622.318 627.479 622.594 627.21 622.78 626.881C622.969 626.551 623.064 626.205 623.064 625.841V624.614C623.007 624.682 622.882 624.744 622.689 624.801C622.5 624.854 622.28 624.902 622.03 624.943C621.784 624.981 621.543 625.015 621.308 625.045C621.077 625.072 620.89 625.095 620.746 625.114C620.397 625.159 620.071 625.233 619.768 625.335C619.469 625.434 619.227 625.583 619.041 625.784C618.859 625.981 618.768 626.25 618.768 626.591C618.768 627.057 618.941 627.409 619.286 627.648C619.634 627.883 620.075 628 620.609 628ZM633.034 622.227L631.83 622.568C631.754 622.367 631.642 622.172 631.494 621.983C631.35 621.79 631.153 621.631 630.903 621.506C630.653 621.381 630.333 621.318 629.943 621.318C629.409 621.318 628.964 621.441 628.608 621.688C628.256 621.93 628.08 622.239 628.08 622.614C628.08 622.947 628.201 623.21 628.443 623.403C628.686 623.597 629.064 623.758 629.58 623.886L630.875 624.205C631.655 624.394 632.237 624.684 632.619 625.074C633.002 625.46 633.193 625.958 633.193 626.568C633.193 627.068 633.049 627.515 632.761 627.909C632.477 628.303 632.08 628.614 631.568 628.841C631.057 629.068 630.462 629.182 629.784 629.182C628.894 629.182 628.157 628.989 627.574 628.602C626.991 628.216 626.621 627.652 626.466 626.909L627.739 626.591C627.86 627.061 628.089 627.413 628.426 627.648C628.767 627.883 629.212 628 629.761 628C630.386 628 630.883 627.867 631.25 627.602C631.621 627.333 631.807 627.011 631.807 626.636C631.807 626.333 631.701 626.08 631.489 625.875C631.277 625.667 630.951 625.511 630.511 625.409L629.057 625.068C628.258 624.879 627.67 624.585 627.295 624.188C626.924 623.786 626.739 623.284 626.739 622.682C626.739 622.189 626.877 621.754 627.153 621.375C627.434 620.996 627.814 620.699 628.295 620.483C628.78 620.267 629.33 620.159 629.943 620.159C630.807 620.159 631.485 620.348 631.977 620.727C632.473 621.106 632.826 621.606 633.034 622.227ZM638.871 629.182C638.03 629.182 637.304 628.996 636.695 628.625C636.089 628.25 635.621 627.727 635.291 627.057C634.965 626.383 634.803 625.598 634.803 624.705C634.803 623.811 634.965 623.023 635.291 622.341C635.621 621.655 636.079 621.121 636.666 620.739C637.257 620.352 637.946 620.159 638.734 620.159C639.189 620.159 639.638 620.235 640.081 620.386C640.524 620.538 640.928 620.784 641.291 621.125C641.655 621.462 641.945 621.909 642.161 622.466C642.376 623.023 642.484 623.708 642.484 624.523V625.091H635.757V623.932H641.121C641.121 623.439 641.022 623 640.825 622.614C640.632 622.227 640.356 621.922 639.996 621.699C639.64 621.475 639.219 621.364 638.734 621.364C638.2 621.364 637.738 621.496 637.348 621.761C636.962 622.023 636.664 622.364 636.456 622.784C636.248 623.205 636.143 623.655 636.143 624.136V624.909C636.143 625.568 636.257 626.127 636.484 626.585C636.715 627.04 637.036 627.386 637.445 627.625C637.854 627.86 638.329 627.977 638.871 627.977C639.223 627.977 639.541 627.928 639.825 627.83C640.113 627.727 640.361 627.576 640.57 627.375C640.778 627.17 640.939 626.917 641.053 626.614L642.348 626.977C642.212 627.417 641.982 627.803 641.661 628.136C641.339 628.466 640.941 628.723 640.467 628.909C639.994 629.091 639.462 629.182 638.871 629.182Z" fill="black"/>
<path d="M40 113.591H28.3636L28.3636 106.614H29.6136V112.182H33.5455V107.136H34.7955V112.182H40V113.591ZM40 104.382H31.2727V103.041H40V104.382ZM29.8182 103.7C29.8182 103.962 29.7292 104.187 29.5511 104.376C29.3731 104.562 29.1591 104.655 28.9091 104.655C28.6591 104.655 28.4451 104.562 28.267 104.376C28.089 104.187 28 103.962 28 103.7C28 103.439 28.089 103.215 28.267 103.03C28.4451 102.84 28.6591 102.746 28.9091 102.746C29.1591 102.746 29.3731 102.84 29.5511 103.03C29.7292 103.215 29.8182 103.439 29.8182 103.7ZM40.1818 97.2898C40.1818 98.017 39.9981 98.6591 39.6307 99.2159C39.2595 99.7727 38.7367 100.208 38.0625 100.523C37.3845 100.837 36.5833 100.994 35.6591 100.994C34.7424 100.994 33.947 100.837 33.2727 100.523C32.5985 100.208 32.0777 99.7708 31.7102 99.2102C31.3428 98.6496 31.1591 98.0019 31.1591 97.267C31.1591 96.6989 31.2538 96.25 31.4432 95.9205C31.6288 95.5871 31.8409 95.3333 32.0795 95.1591C32.3144 94.9811 32.5076 94.8428 32.6591 94.7443V94.6307H28.3636V93.2898H40V94.5852H38.6591V94.7443C38.8182 94.8428 39.0189 94.983 39.2614 95.1648C39.5 95.3466 39.714 95.6061 39.9034 95.9432C40.089 96.2803 40.1818 96.7292 40.1818 97.2898ZM38.9773 97.108C38.9773 96.5701 38.8371 96.1155 38.5568 95.7443C38.2727 95.3731 37.8807 95.0909 37.3807 94.8977C36.8769 94.7045 36.2955 94.608 35.6364 94.608C34.9848 94.608 34.4148 94.7027 33.9261 94.892C33.4337 95.0814 33.0511 95.3617 32.7784 95.733C32.5019 96.1042 32.3636 96.5625 32.3636 97.108C32.3636 97.6761 32.5095 98.1496 32.8011 98.5284C33.089 98.9034 33.4811 99.1856 33.9773 99.375C34.4697 99.5606 35.0227 99.6534 35.6364 99.6534C36.2576 99.6534 36.822 99.5587 37.3295 99.3693C37.8333 99.1761 38.2348 98.892 38.5341 98.517C38.8295 98.1383 38.9773 97.6686 38.9773 97.108ZM40.1818 86.9886C40.1818 87.8295 39.9962 88.5549 39.625 89.1648C39.25 89.7708 38.7273 90.2386 38.0568 90.5682C37.3826 90.8939 36.5985 91.0568 35.7045 91.0568C34.8106 91.0568 34.0227 90.8939 33.3409 90.5682C32.6553 90.2386 32.1212 89.7803 31.7386 89.1932C31.3523 88.6023 31.1591 87.9129 31.1591 87.125C31.1591 86.6705 31.2348 86.2216 31.3864 85.7784C31.5379 85.3352 31.7841 84.9318 32.125 84.5682C32.4621 84.2045 32.9091 83.9148 33.4659 83.6989C34.0227 83.483 34.7083 83.375 35.5227 83.375H36.0909V90.1023H34.9318V84.7386C34.4394 84.7386 34 84.8371 33.6136 85.0341C33.2273 85.2273 32.9223 85.5038 32.6989 85.8636C32.4754 86.2197 32.3636 86.6402 32.3636 87.125C32.3636 87.6591 32.4962 88.1212 32.7614 88.5114C33.0227 88.8977 33.3636 89.1951 33.7841 89.4034C34.2045 89.6117 34.6553 89.7159 35.1364 89.7159H35.9091C36.5682 89.7159 37.1269 89.6023 37.5852 89.375C38.0398 89.1439 38.3864 88.8239 38.625 88.4148C38.8598 88.0057 38.9773 87.5303 38.9773 86.9886C38.9773 86.6364 38.928 86.3182 38.8295 86.0341C38.7273 85.7462 38.5758 85.4981 38.375 85.2898C38.1705 85.0814 37.9167 84.9205 37.6136 84.8068L37.9773 83.5114C38.4167 83.6477 38.803 83.8769 39.1364 84.1989C39.4659 84.5208 39.7235 84.9186 39.9091 85.392C40.0909 85.8655 40.1818 86.3977 40.1818 86.9886ZM28.3636 79.9943H40V81.3352H28.3636V79.9943ZM40 77.5384H31.2727V76.1974H40L40 77.5384ZM29.8182 76.8565C29.8182 77.1179 29.7292 77.3433 29.5511 77.5327C29.3731 77.7183 29.1591 77.8111 28.9091 77.8111C28.6591 77.8111 28.4451 77.7183 28.267 77.5327C28.089 77.3433 28 77.1179 28 76.8565C28 76.5952 28.089 76.3717 28.267 76.1861C28.4451 75.9967 28.6591 75.902 28.9091 75.902C29.1591 75.902 29.3731 75.9967 29.5511 76.1861C29.7292 76.3717 29.8182 76.5952 29.8182 76.8565ZM31.2727 69.946H32.4091V74.4688H31.2727V69.946ZM29.1818 73.1506V71.8097H37.5C37.8788 71.8097 38.1629 71.7547 38.3523 71.6449C38.5379 71.5312 38.6629 71.3873 38.7273 71.2131C38.7879 71.035 38.8182 70.8475 38.8182 70.6506C38.8182 70.5028 38.8106 70.3816 38.7955 70.2869C38.7765 70.1922 38.7614 70.1165 38.75 70.0597L39.9545 69.7869C39.9886 69.8778 40.0227 70.0047 40.0568 70.1676C40.0947 70.3305 40.1136 70.5369 40.1136 70.7869C40.1136 71.1657 40.0322 71.5369 39.8693 71.9006C39.7064 72.2604 39.4583 72.5597 39.125 72.7983C38.7917 73.0331 38.3712 73.1506 37.8636 73.1506H29.1818ZM43.2727 67.0653C43.2727 67.2926 43.2538 67.4953 43.2159 67.6733C43.1818 67.8513 43.1477 67.9744 43.1136 68.0426L41.9318 67.7017C42.0152 67.3759 42.0455 67.0881 42.0227 66.8381C42 66.5881 41.8883 66.3665 41.6875 66.1733C41.4905 65.9763 41.1705 65.7964 40.7273 65.6335L40.0455 65.3835L31.2727 68.6108L31.2727 67.1562L38.2273 64.7472V64.6562L31.2727 62.2472V60.7926L41.2727 64.4972C41.7235 64.6638 42.0966 64.8703 42.392 65.1165C42.6913 65.3627 42.9129 65.6487 43.0568 65.9744C43.2008 66.2964 43.2727 66.66 43.2727 67.0653Z" fill="black"/>
<path d="M128.409 539V527.364H129.818V537.75H135.227V539H128.409ZM139.795 539.205C139.242 539.205 138.741 539.1 138.29 538.892C137.839 538.68 137.481 538.375 137.216 537.977C136.951 537.576 136.818 537.091 136.818 536.523C136.818 536.023 136.917 535.617 137.114 535.307C137.311 534.992 137.574 534.746 137.903 534.568C138.233 534.39 138.597 534.258 138.994 534.17C139.396 534.08 139.799 534.008 140.205 533.955C140.735 533.886 141.165 533.835 141.494 533.801C141.828 533.763 142.07 533.701 142.222 533.614C142.377 533.527 142.455 533.375 142.455 533.159V533.114C142.455 532.553 142.301 532.117 141.994 531.807C141.691 531.496 141.231 531.341 140.614 531.341C139.973 531.341 139.472 531.481 139.108 531.761C138.744 532.042 138.489 532.341 138.341 532.659L137.068 532.205C137.295 531.674 137.598 531.261 137.977 530.966C138.36 530.667 138.777 530.458 139.227 530.341C139.682 530.22 140.129 530.159 140.568 530.159C140.848 530.159 141.17 530.193 141.534 530.261C141.902 530.326 142.256 530.46 142.597 530.665C142.941 530.869 143.227 531.178 143.455 531.591C143.682 532.004 143.795 532.557 143.795 533.25V539H142.455V537.818H142.386C142.295 538.008 142.144 538.21 141.932 538.426C141.72 538.642 141.438 538.826 141.085 538.977C140.733 539.129 140.303 539.205 139.795 539.205ZM140 538C140.53 538 140.977 537.896 141.341 537.688C141.708 537.479 141.985 537.21 142.17 536.881C142.36 536.551 142.455 536.205 142.455 535.841V534.614C142.398 534.682 142.273 534.744 142.08 534.801C141.89 534.854 141.67 534.902 141.42 534.943C141.174 534.981 140.934 535.015 140.699 535.045C140.468 535.072 140.28 535.095 140.136 535.114C139.788 535.159 139.462 535.233 139.159 535.335C138.86 535.434 138.617 535.583 138.432 535.784C138.25 535.981 138.159 536.25 138.159 536.591C138.159 537.057 138.331 537.409 138.676 537.648C139.025 537.883 139.466 538 140 538ZM146.425 539V527.364H147.766V531.659H147.879C147.978 531.508 148.114 531.314 148.288 531.08C148.466 530.841 148.72 530.629 149.05 530.443C149.383 530.254 149.834 530.159 150.402 530.159C151.137 530.159 151.785 530.343 152.345 530.71C152.906 531.078 153.343 531.598 153.658 532.273C153.972 532.947 154.129 533.742 154.129 534.659C154.129 535.583 153.972 536.384 153.658 537.062C153.343 537.737 152.908 538.259 152.351 538.631C151.794 538.998 151.152 539.182 150.425 539.182C149.864 539.182 149.415 539.089 149.078 538.903C148.741 538.714 148.482 538.5 148.3 538.261C148.118 538.019 147.978 537.818 147.879 537.659H147.72V539H146.425ZM147.743 534.636C147.743 535.295 147.839 535.877 148.033 536.381C148.226 536.881 148.508 537.273 148.879 537.557C149.25 537.837 149.705 537.977 150.243 537.977C150.804 537.977 151.271 537.83 151.646 537.534C152.025 537.235 152.309 536.833 152.499 536.33C152.692 535.822 152.788 535.258 152.788 534.636C152.788 534.023 152.694 533.47 152.504 532.977C152.319 532.481 152.036 532.089 151.658 531.801C151.283 531.509 150.811 531.364 150.243 531.364C149.697 531.364 149.239 531.502 148.868 531.778C148.497 532.051 148.216 532.434 148.027 532.926C147.838 533.415 147.743 533.985 147.743 534.636ZM160.862 539V527.364H164.93C165.741 527.364 166.41 527.504 166.936 527.784C167.463 528.061 167.855 528.434 168.112 528.903C168.37 529.369 168.499 529.886 168.499 530.455C168.499 530.955 168.41 531.367 168.232 531.693C168.057 532.019 167.826 532.277 167.538 532.466C167.254 532.655 166.946 532.795 166.612 532.886V533C166.968 533.023 167.326 533.148 167.686 533.375C168.046 533.602 168.347 533.928 168.589 534.352C168.832 534.777 168.953 535.295 168.953 535.909C168.953 536.492 168.821 537.017 168.555 537.483C168.29 537.949 167.872 538.318 167.3 538.591C166.728 538.864 165.983 539 165.067 539H160.862ZM162.271 537.75H165.067C165.987 537.75 166.641 537.572 167.027 537.216C167.417 536.856 167.612 536.42 167.612 535.909C167.612 535.515 167.512 535.152 167.311 534.818C167.11 534.481 166.824 534.212 166.453 534.011C166.082 533.807 165.643 533.705 165.135 533.705H162.271V537.75ZM162.271 532.477H164.885C165.309 532.477 165.692 532.394 166.033 532.227C166.377 532.061 166.65 531.826 166.851 531.523C167.055 531.22 167.158 530.864 167.158 530.455C167.158 529.943 166.98 529.509 166.624 529.153C166.268 528.794 165.703 528.614 164.93 528.614H162.271V532.477ZM174.746 539.182C173.905 539.182 173.179 538.996 172.57 538.625C171.964 538.25 171.496 537.727 171.166 537.057C170.84 536.383 170.678 535.598 170.678 534.705C170.678 533.811 170.84 533.023 171.166 532.341C171.496 531.655 171.954 531.121 172.541 530.739C173.132 530.352 173.821 530.159 174.609 530.159C175.064 530.159 175.513 530.235 175.956 530.386C176.399 530.538 176.803 530.784 177.166 531.125C177.53 531.462 177.82 531.909 178.036 532.466C178.251 533.023 178.359 533.708 178.359 534.523V535.091H171.632V533.932H176.996C176.996 533.439 176.897 533 176.7 532.614C176.507 532.227 176.231 531.922 175.871 531.699C175.515 531.475 175.094 531.364 174.609 531.364C174.075 531.364 173.613 531.496 173.223 531.761C172.837 532.023 172.539 532.364 172.331 532.784C172.123 533.205 172.018 533.655 172.018 534.136V534.909C172.018 535.568 172.132 536.127 172.359 536.585C172.59 537.04 172.911 537.386 173.32 537.625C173.729 537.86 174.204 537.977 174.746 537.977C175.098 537.977 175.416 537.928 175.7 537.83C175.988 537.727 176.236 537.576 176.445 537.375C176.653 537.17 176.814 536.917 176.928 536.614L178.223 536.977C178.087 537.417 177.857 537.803 177.536 538.136C177.214 538.466 176.816 538.723 176.342 538.909C175.869 539.091 175.337 539.182 174.746 539.182ZM181.74 533.75V539H180.399V530.273H181.695V531.636H181.808C182.013 531.193 182.323 530.837 182.74 530.568C183.157 530.295 183.695 530.159 184.354 530.159C184.945 530.159 185.462 530.28 185.905 530.523C186.348 530.761 186.693 531.125 186.939 531.614C187.185 532.098 187.308 532.712 187.308 533.455V539H185.967V533.545C185.967 532.86 185.789 532.326 185.433 531.943C185.077 531.557 184.589 531.364 183.967 531.364C183.539 531.364 183.157 531.456 182.82 531.642C182.486 531.828 182.223 532.098 182.03 532.455C181.837 532.811 181.74 533.242 181.74 533.75ZM193.304 539.182C192.486 539.182 191.781 538.989 191.19 538.602C190.599 538.216 190.145 537.684 189.827 537.006C189.509 536.328 189.349 535.553 189.349 534.682C189.349 533.795 189.512 533.013 189.838 532.335C190.168 531.653 190.626 531.121 191.213 530.739C191.804 530.352 192.493 530.159 193.281 530.159C193.895 530.159 194.448 530.273 194.94 530.5C195.433 530.727 195.836 531.045 196.151 531.455C196.465 531.864 196.66 532.341 196.736 532.886H195.395C195.293 532.489 195.065 532.136 194.713 531.83C194.365 531.519 193.895 531.364 193.304 531.364C192.781 531.364 192.323 531.5 191.929 531.773C191.539 532.042 191.234 532.422 191.014 532.915C190.798 533.403 190.69 533.977 190.69 534.636C190.69 535.311 190.796 535.898 191.009 536.398C191.224 536.898 191.527 537.286 191.918 537.562C192.312 537.839 192.774 537.977 193.304 537.977C193.652 537.977 193.969 537.917 194.253 537.795C194.537 537.674 194.777 537.5 194.974 537.273C195.171 537.045 195.312 536.773 195.395 536.455H196.736C196.66 536.97 196.473 537.434 196.173 537.847C195.878 538.256 195.486 538.581 194.997 538.824C194.512 539.062 193.948 539.182 193.304 539.182ZM200.037 533.75V539H198.696V527.364H200.037V531.636H200.151C200.355 531.186 200.662 530.828 201.071 530.562C201.484 530.294 202.033 530.159 202.719 530.159C203.313 530.159 203.834 530.278 204.281 530.517C204.728 530.752 205.075 531.114 205.321 531.602C205.571 532.087 205.696 532.705 205.696 533.455V539H204.355V533.545C204.355 532.852 204.175 532.316 203.815 531.938C203.459 531.555 202.965 531.364 202.332 531.364C201.893 531.364 201.499 531.456 201.151 531.642C200.806 531.828 200.533 532.098 200.332 532.455C200.135 532.811 200.037 533.242 200.037 533.75Z" fill="black"/>
<path d="M244.773 422H243.364C243.28 421.595 243.134 421.239 242.926 420.932C242.722 420.625 242.472 420.367 242.176 420.159C241.884 419.947 241.561 419.788 241.205 419.682C240.848 419.576 240.477 419.523 240.091 419.523C239.386 419.523 238.748 419.701 238.176 420.057C237.608 420.413 237.155 420.938 236.818 421.631C236.485 422.324 236.318 423.174 236.318 424.182C236.318 425.189 236.485 426.04 236.818 426.733C237.155 427.426 237.608 427.951 238.176 428.307C238.748 428.663 239.386 428.841 240.091 428.841C240.477 428.841 240.848 428.788 241.205 428.682C241.561 428.576 241.884 428.419 242.176 428.21C242.472 427.998 242.722 427.739 242.926 427.432C243.134 427.121 243.28 426.765 243.364 426.364H244.773C244.667 426.958 244.473 427.491 244.193 427.96C243.913 428.43 243.564 428.83 243.148 429.159C242.731 429.485 242.263 429.733 241.744 429.903C241.229 430.074 240.678 430.159 240.091 430.159C239.098 430.159 238.216 429.917 237.443 429.432C236.67 428.947 236.063 428.258 235.619 427.364C235.176 426.47 234.955 425.409 234.955 424.182C234.955 422.955 235.176 421.894 235.619 421C236.063 420.106 236.67 419.417 237.443 418.932C238.216 418.447 239.098 418.205 240.091 418.205C240.678 418.205 241.229 418.29 241.744 418.46C242.263 418.631 242.731 418.881 243.148 419.21C243.564 419.536 243.913 419.934 244.193 420.403C244.473 420.869 244.667 421.402 244.773 422ZM248.459 418.364V430H247.05V418.364H248.459ZM259.716 417.818L255.966 431.75H254.739L258.489 417.818H259.716ZM265.987 430V418.364H267.396V423.545H273.601V418.364H275.01V430H273.601V424.795H267.396V430H265.987ZM277.649 430V421.273H278.99V430H277.649ZM278.331 419.818C278.07 419.818 277.844 419.729 277.655 419.551C277.469 419.373 277.376 419.159 277.376 418.909C277.376 418.659 277.469 418.445 277.655 418.267C277.844 418.089 278.07 418 278.331 418C278.592 418 278.816 418.089 279.001 418.267C279.191 418.445 279.286 418.659 279.286 418.909C279.286 419.159 279.191 419.373 279.001 419.551C278.816 419.729 278.592 419.818 278.331 419.818ZM281.628 430V418.364H283.037V428.75H288.446V430H281.628Z" fill="black"/>
<path d="M135.409 260V248.364H139.341C140.25 248.364 140.996 248.519 141.58 248.83C142.163 249.136 142.595 249.559 142.875 250.097C143.155 250.634 143.295 251.246 143.295 251.932C143.295 252.617 143.155 253.225 142.875 253.756C142.595 254.286 142.165 254.703 141.585 255.006C141.006 255.305 140.265 255.455 139.364 255.455H136.182V254.182H139.318C139.939 254.182 140.439 254.091 140.818 253.909C141.201 253.727 141.477 253.47 141.648 253.136C141.822 252.799 141.909 252.398 141.909 251.932C141.909 251.466 141.822 251.059 141.648 250.71C141.473 250.362 141.195 250.093 140.812 249.903C140.43 249.71 139.924 249.614 139.295 249.614H136.818V260H135.409ZM140.886 254.773L143.75 260H142.114L139.295 254.773H140.886ZM149.027 260.182C148.186 260.182 147.461 259.996 146.851 259.625C146.245 259.25 145.777 258.727 145.447 258.057C145.122 257.383 144.959 256.598 144.959 255.705C144.959 254.811 145.122 254.023 145.447 253.341C145.777 252.655 146.235 252.121 146.822 251.739C147.413 251.352 148.103 251.159 148.891 251.159C149.345 251.159 149.794 251.235 150.237 251.386C150.68 251.538 151.084 251.784 151.447 252.125C151.811 252.462 152.101 252.909 152.317 253.466C152.533 254.023 152.641 254.708 152.641 255.523V256.091H145.913V254.932H151.277C151.277 254.439 151.179 254 150.982 253.614C150.788 253.227 150.512 252.922 150.152 252.699C149.796 252.475 149.375 252.364 148.891 252.364C148.357 252.364 147.894 252.496 147.504 252.761C147.118 253.023 146.821 253.364 146.612 253.784C146.404 254.205 146.3 254.655 146.3 255.136V255.909C146.3 256.568 146.413 257.127 146.641 257.585C146.872 258.04 147.192 258.386 147.601 258.625C148.01 258.86 148.485 258.977 149.027 258.977C149.379 258.977 149.697 258.928 149.982 258.83C150.269 258.727 150.518 258.576 150.726 258.375C150.934 258.17 151.095 257.917 151.209 257.614L152.504 257.977C152.368 258.417 152.139 258.803 151.817 259.136C151.495 259.466 151.097 259.723 150.624 259.909C150.15 260.091 149.618 260.182 149.027 260.182ZM156.021 248.364V260H154.68V248.364H156.021ZM158.477 260V251.273H159.818V260H158.477ZM159.159 249.818C158.898 249.818 158.672 249.729 158.483 249.551C158.297 249.373 158.205 249.159 158.205 248.909C158.205 248.659 158.297 248.445 158.483 248.267C158.672 248.089 158.898 248 159.159 248C159.42 248 159.644 248.089 159.83 248.267C160.019 248.445 160.114 248.659 160.114 248.909C160.114 249.159 160.019 249.373 159.83 249.551C159.644 249.729 159.42 249.818 159.159 249.818ZM164.842 260.205C164.289 260.205 163.787 260.1 163.337 259.892C162.886 259.68 162.528 259.375 162.263 258.977C161.998 258.576 161.865 258.091 161.865 257.523C161.865 257.023 161.964 256.617 162.161 256.307C162.357 255.992 162.621 255.746 162.95 255.568C163.28 255.39 163.643 255.258 164.041 255.17C164.443 255.08 164.846 255.008 165.251 254.955C165.782 254.886 166.212 254.835 166.541 254.801C166.875 254.763 167.117 254.701 167.268 254.614C167.424 254.527 167.501 254.375 167.501 254.159V254.114C167.501 253.553 167.348 253.117 167.041 252.807C166.738 252.496 166.278 252.341 165.661 252.341C165.02 252.341 164.518 252.481 164.155 252.761C163.791 253.042 163.536 253.341 163.388 253.659L162.115 253.205C162.342 252.674 162.645 252.261 163.024 251.966C163.407 251.667 163.823 251.458 164.274 251.341C164.729 251.22 165.176 251.159 165.615 251.159C165.895 251.159 166.217 251.193 166.581 251.261C166.948 251.326 167.303 251.46 167.643 251.665C167.988 251.869 168.274 252.178 168.501 252.591C168.729 253.004 168.842 253.557 168.842 254.25V260H167.501V258.818H167.433C167.342 259.008 167.191 259.21 166.979 259.426C166.767 259.642 166.484 259.826 166.132 259.977C165.78 260.129 165.35 260.205 164.842 260.205ZM165.047 259C165.577 259 166.024 258.896 166.388 258.688C166.755 258.479 167.032 258.21 167.217 257.881C167.407 257.551 167.501 257.205 167.501 256.841V255.614C167.445 255.682 167.32 255.744 167.126 255.801C166.937 255.854 166.717 255.902 166.467 255.943C166.221 255.981 165.981 256.015 165.746 256.045C165.515 256.072 165.327 256.095 165.183 256.114C164.835 256.159 164.509 256.233 164.206 256.335C163.907 256.434 163.664 256.583 163.479 256.784C163.297 256.981 163.206 257.25 163.206 257.591C163.206 258.057 163.378 258.409 163.723 258.648C164.071 258.883 164.513 259 165.047 259ZM171.472 260V248.364H172.812V252.659H172.926C173.025 252.508 173.161 252.314 173.335 252.08C173.513 251.841 173.767 251.629 174.097 251.443C174.43 251.254 174.881 251.159 175.449 251.159C176.184 251.159 176.831 251.343 177.392 251.71C177.953 252.078 178.39 252.598 178.705 253.273C179.019 253.947 179.176 254.742 179.176 255.659C179.176 256.583 179.019 257.384 178.705 258.062C178.39 258.737 177.955 259.259 177.398 259.631C176.841 259.998 176.199 260.182 175.472 260.182C174.911 260.182 174.462 260.089 174.125 259.903C173.788 259.714 173.528 259.5 173.347 259.261C173.165 259.019 173.025 258.818 172.926 258.659H172.767V260H171.472ZM172.79 255.636C172.79 256.295 172.886 256.877 173.08 257.381C173.273 257.881 173.555 258.273 173.926 258.557C174.297 258.837 174.752 258.977 175.29 258.977C175.85 258.977 176.318 258.83 176.693 258.534C177.072 258.235 177.356 257.833 177.545 257.33C177.739 256.822 177.835 256.258 177.835 255.636C177.835 255.023 177.741 254.47 177.551 253.977C177.366 253.481 177.083 253.089 176.705 252.801C176.33 252.509 175.858 252.364 175.29 252.364C174.744 252.364 174.286 252.502 173.915 252.778C173.544 253.051 173.263 253.434 173.074 253.926C172.884 254.415 172.79 254.985 172.79 255.636ZM181.227 260V251.273H182.568V260H181.227ZM181.909 249.818C181.648 249.818 181.422 249.729 181.233 249.551C181.047 249.373 180.955 249.159 180.955 248.909C180.955 248.659 181.047 248.445 181.233 248.267C181.422 248.089 181.648 248 181.909 248C182.17 248 182.394 248.089 182.58 248.267C182.769 248.445 182.864 248.659 182.864 248.909C182.864 249.159 182.769 249.373 182.58 249.551C182.394 249.729 182.17 249.818 181.909 249.818ZM186.365 248.364V260H185.024V248.364H186.365ZM188.821 260V251.273H190.162V260H188.821ZM189.503 249.818C189.241 249.818 189.016 249.729 188.827 249.551C188.641 249.373 188.548 249.159 188.548 248.909C188.548 248.659 188.641 248.445 188.827 248.267C189.016 248.089 189.241 248 189.503 248C189.764 248 189.988 248.089 190.173 248.267C190.363 248.445 190.457 248.659 190.457 248.909C190.457 249.159 190.363 249.373 190.173 249.551C189.988 249.729 189.764 249.818 189.503 249.818ZM196.413 251.273V252.409H191.891V251.273H196.413ZM193.209 249.182H194.55V257.5C194.55 257.879 194.605 258.163 194.714 258.352C194.828 258.538 194.972 258.663 195.146 258.727C195.324 258.788 195.512 258.818 195.709 258.818C195.857 258.818 195.978 258.811 196.072 258.795C196.167 258.777 196.243 258.761 196.3 258.75L196.572 259.955C196.482 259.989 196.355 260.023 196.192 260.057C196.029 260.095 195.822 260.114 195.572 260.114C195.194 260.114 194.822 260.032 194.459 259.869C194.099 259.706 193.8 259.458 193.561 259.125C193.326 258.792 193.209 258.371 193.209 257.864V249.182ZM199.294 263.273C199.067 263.273 198.864 263.254 198.686 263.216C198.508 263.182 198.385 263.148 198.317 263.114L198.658 261.932C198.983 262.015 199.271 262.045 199.521 262.023C199.771 262 199.993 261.888 200.186 261.688C200.383 261.491 200.563 261.17 200.726 260.727L200.976 260.045L197.749 251.273H199.203L201.612 258.227H201.703L204.112 251.273H205.567L201.862 261.273C201.696 261.723 201.489 262.097 201.243 262.392C200.997 262.691 200.711 262.913 200.385 263.057C200.063 263.201 199.699 263.273 199.294 263.273Z" fill="black"/>
<path d="M305.773 297.273C305.705 296.697 305.428 296.25 304.943 295.932C304.458 295.614 303.864 295.455 303.159 295.455C302.644 295.455 302.193 295.538 301.807 295.705C301.424 295.871 301.125 296.1 300.909 296.392C300.697 296.684 300.591 297.015 300.591 297.386C300.591 297.697 300.665 297.964 300.812 298.188C300.964 298.407 301.157 298.591 301.392 298.739C301.627 298.883 301.873 299.002 302.131 299.097C302.388 299.187 302.625 299.261 302.841 299.318L304.023 299.636C304.326 299.716 304.663 299.826 305.034 299.966C305.409 300.106 305.767 300.297 306.108 300.54C306.453 300.778 306.737 301.085 306.96 301.46C307.184 301.835 307.295 302.295 307.295 302.841C307.295 303.47 307.131 304.038 306.801 304.545C306.475 305.053 305.998 305.456 305.369 305.756C304.744 306.055 303.985 306.205 303.091 306.205C302.258 306.205 301.536 306.07 300.926 305.801C300.32 305.532 299.843 305.157 299.494 304.676C299.15 304.195 298.955 303.636 298.909 303H300.364C300.402 303.439 300.549 303.803 300.807 304.091C301.068 304.375 301.398 304.587 301.795 304.727C302.197 304.864 302.629 304.932 303.091 304.932C303.629 304.932 304.112 304.845 304.54 304.67C304.968 304.492 305.307 304.246 305.557 303.932C305.807 303.614 305.932 303.242 305.932 302.818C305.932 302.432 305.824 302.117 305.608 301.875C305.392 301.633 305.108 301.436 304.756 301.284C304.403 301.133 304.023 301 303.614 300.886L302.182 300.477C301.273 300.216 300.553 299.843 300.023 299.358C299.492 298.873 299.227 298.239 299.227 297.455C299.227 296.803 299.403 296.235 299.756 295.75C300.112 295.261 300.589 294.883 301.188 294.614C301.79 294.341 302.462 294.205 303.205 294.205C303.955 294.205 304.621 294.339 305.205 294.608C305.788 294.873 306.25 295.237 306.591 295.699C306.936 296.161 307.117 296.686 307.136 297.273H305.773ZM310.294 309.273C310.067 309.273 309.864 309.254 309.686 309.216C309.508 309.182 309.385 309.148 309.317 309.114L309.658 307.932C309.983 308.015 310.271 308.045 310.521 308.023C310.771 308 310.993 307.888 311.186 307.688C311.383 307.491 311.563 307.17 311.726 306.727L311.976 306.045L308.749 297.273H310.203L312.612 304.227H312.703L315.112 297.273H316.567L312.862 307.273C312.696 307.723 312.489 308.097 312.243 308.392C311.997 308.691 311.711 308.913 311.385 309.057C311.063 309.201 310.699 309.273 310.294 309.273ZM324.518 299.227L323.314 299.568C323.238 299.367 323.126 299.172 322.979 298.983C322.835 298.79 322.638 298.631 322.388 298.506C322.138 298.381 321.818 298.318 321.428 298.318C320.893 298.318 320.448 298.441 320.092 298.688C319.74 298.93 319.564 299.239 319.564 299.614C319.564 299.947 319.685 300.21 319.928 300.403C320.17 300.597 320.549 300.758 321.064 300.886L322.359 301.205C323.14 301.394 323.721 301.684 324.104 302.074C324.486 302.46 324.678 302.958 324.678 303.568C324.678 304.068 324.534 304.515 324.246 304.909C323.962 305.303 323.564 305.614 323.053 305.841C322.541 306.068 321.946 306.182 321.268 306.182C320.378 306.182 319.642 305.989 319.058 305.602C318.475 305.216 318.106 304.652 317.95 303.909L319.223 303.591C319.344 304.061 319.573 304.413 319.911 304.648C320.251 304.883 320.696 305 321.246 305C321.871 305 322.367 304.867 322.734 304.602C323.106 304.333 323.291 304.011 323.291 303.636C323.291 303.333 323.185 303.08 322.973 302.875C322.761 302.667 322.435 302.511 321.996 302.409L320.541 302.068C319.742 301.879 319.155 301.585 318.78 301.188C318.409 300.786 318.223 300.284 318.223 299.682C318.223 299.189 318.361 298.754 318.638 298.375C318.918 297.996 319.299 297.699 319.78 297.483C320.265 297.267 320.814 297.159 321.428 297.159C322.291 297.159 322.969 297.348 323.462 297.727C323.958 298.106 324.31 298.606 324.518 299.227ZM330.491 297.273V298.409H325.969V297.273H330.491ZM327.287 295.182H328.628V303.5C328.628 303.879 328.683 304.163 328.793 304.352C328.906 304.538 329.05 304.663 329.224 304.727C329.402 304.788 329.59 304.818 329.787 304.818C329.935 304.818 330.056 304.811 330.151 304.795C330.245 304.777 330.321 304.761 330.378 304.75L330.651 305.955C330.56 305.989 330.433 306.023 330.27 306.057C330.107 306.095 329.901 306.114 329.651 306.114C329.272 306.114 328.901 306.032 328.537 305.869C328.177 305.706 327.878 305.458 327.639 305.125C327.404 304.792 327.287 304.371 327.287 303.864V295.182ZM336.074 306.182C335.233 306.182 334.508 305.996 333.898 305.625C333.292 305.25 332.824 304.727 332.494 304.057C332.169 303.383 332.006 302.598 332.006 301.705C332.006 300.811 332.169 300.023 332.494 299.341C332.824 298.655 333.282 298.121 333.869 297.739C334.46 297.352 335.15 297.159 335.938 297.159C336.392 297.159 336.841 297.235 337.284 297.386C337.727 297.538 338.131 297.784 338.494 298.125C338.858 298.462 339.148 298.909 339.364 299.466C339.58 300.023 339.688 300.708 339.688 301.523V302.091H332.96V300.932H338.324C338.324 300.439 338.225 300 338.028 299.614C337.835 299.227 337.559 298.922 337.199 298.699C336.843 298.475 336.422 298.364 335.938 298.364C335.403 298.364 334.941 298.496 334.551 298.761C334.165 299.023 333.867 299.364 333.659 299.784C333.451 300.205 333.347 300.655 333.347 301.136V301.909C333.347 302.568 333.46 303.127 333.688 303.585C333.919 304.04 334.239 304.386 334.648 304.625C335.057 304.86 335.532 304.977 336.074 304.977C336.426 304.977 336.744 304.928 337.028 304.83C337.316 304.727 337.564 304.576 337.773 304.375C337.981 304.17 338.142 303.917 338.256 303.614L339.551 303.977C339.415 304.417 339.186 304.803 338.864 305.136C338.542 305.466 338.144 305.723 337.67 305.909C337.197 306.091 336.665 306.182 336.074 306.182ZM341.727 306V297.273H343.023V298.636H343.136C343.318 298.17 343.612 297.809 344.017 297.551C344.422 297.29 344.909 297.159 345.477 297.159C346.053 297.159 346.532 297.29 346.915 297.551C347.301 297.809 347.602 298.17 347.818 298.636H347.909C348.133 298.186 348.468 297.828 348.915 297.562C349.362 297.294 349.898 297.159 350.523 297.159C351.303 297.159 351.941 297.403 352.438 297.892C352.934 298.377 353.182 299.133 353.182 300.159V306H351.841V300.159C351.841 299.515 351.665 299.055 351.312 298.778C350.96 298.502 350.545 298.364 350.068 298.364C349.455 298.364 348.979 298.549 348.642 298.92C348.305 299.288 348.136 299.754 348.136 300.318V306H346.773V300.023C346.773 299.527 346.612 299.127 346.29 298.824C345.968 298.517 345.553 298.364 345.045 298.364C344.697 298.364 344.371 298.456 344.068 298.642C343.769 298.828 343.527 299.085 343.341 299.415C343.159 299.741 343.068 300.117 343.068 300.545V306H341.727Z" fill="black"/>
<path d="M466.409 325V313.364H473.386V314.614H467.818V318.545H472.864V319.795H467.818V325H466.409ZM480.571 321.432V316.273H481.912V325H480.571V323.523H480.48C480.276 323.966 479.957 324.343 479.526 324.653C479.094 324.96 478.548 325.114 477.889 325.114C477.344 325.114 476.859 324.994 476.435 324.756C476.01 324.513 475.677 324.15 475.435 323.665C475.192 323.176 475.071 322.561 475.071 321.818V316.273H476.412V321.727C476.412 322.364 476.59 322.871 476.946 323.25C477.306 323.629 477.764 323.818 478.321 323.818C478.654 323.818 478.993 323.733 479.338 323.562C479.687 323.392 479.978 323.131 480.213 322.778C480.452 322.426 480.571 321.977 480.571 321.432ZM485.709 319.75V325H484.368V316.273H485.663V317.636H485.777C485.982 317.193 486.292 316.837 486.709 316.568C487.125 316.295 487.663 316.159 488.322 316.159C488.913 316.159 489.43 316.28 489.874 316.523C490.317 316.761 490.661 317.125 490.908 317.614C491.154 318.098 491.277 318.712 491.277 319.455V325H489.936V319.545C489.936 318.86 489.758 318.326 489.402 317.943C489.046 317.557 488.557 317.364 487.936 317.364C487.508 317.364 487.125 317.456 486.788 317.642C486.455 317.828 486.192 318.098 485.999 318.455C485.805 318.811 485.709 319.242 485.709 319.75ZM497.273 325.182C496.455 325.182 495.75 324.989 495.159 324.602C494.568 324.216 494.114 323.684 493.795 323.006C493.477 322.328 493.318 321.553 493.318 320.682C493.318 319.795 493.481 319.013 493.807 318.335C494.136 317.653 494.595 317.121 495.182 316.739C495.773 316.352 496.462 316.159 497.25 316.159C497.864 316.159 498.417 316.273 498.909 316.5C499.402 316.727 499.805 317.045 500.119 317.455C500.434 317.864 500.629 318.341 500.705 318.886H499.364C499.261 318.489 499.034 318.136 498.682 317.83C498.333 317.519 497.864 317.364 497.273 317.364C496.75 317.364 496.292 317.5 495.898 317.773C495.508 318.042 495.203 318.422 494.983 318.915C494.767 319.403 494.659 319.977 494.659 320.636C494.659 321.311 494.765 321.898 494.977 322.398C495.193 322.898 495.496 323.286 495.886 323.562C496.28 323.839 496.742 323.977 497.273 323.977C497.621 323.977 497.938 323.917 498.222 323.795C498.506 323.674 498.746 323.5 498.943 323.273C499.14 323.045 499.28 322.773 499.364 322.455H500.705C500.629 322.97 500.441 323.434 500.142 323.847C499.847 324.256 499.455 324.581 498.966 324.824C498.481 325.062 497.917 325.182 497.273 325.182ZM506.46 316.273V317.409H501.938V316.273H506.46ZM503.256 314.182H504.597V322.5C504.597 322.879 504.652 323.163 504.761 323.352C504.875 323.538 505.019 323.663 505.193 323.727C505.371 323.788 505.559 323.818 505.756 323.818C505.903 323.818 506.025 323.811 506.119 323.795C506.214 323.777 506.29 323.761 506.347 323.75L506.619 324.955C506.528 324.989 506.402 325.023 506.239 325.057C506.076 325.095 505.869 325.114 505.619 325.114C505.241 325.114 504.869 325.032 504.506 324.869C504.146 324.706 503.847 324.458 503.608 324.125C503.373 323.792 503.256 323.371 503.256 322.864V314.182ZM508.477 325V316.273H509.818V325H508.477ZM509.159 314.818C508.898 314.818 508.672 314.729 508.483 314.551C508.297 314.373 508.205 314.159 508.205 313.909C508.205 313.659 508.297 313.445 508.483 313.267C508.672 313.089 508.898 313 509.159 313C509.42 313 509.644 313.089 509.83 313.267C510.019 313.445 510.114 313.659 510.114 313.909C510.114 314.159 510.019 314.373 509.83 314.551C509.644 314.729 509.42 314.818 509.159 314.818ZM515.82 325.182C515.032 325.182 514.34 324.994 513.746 324.619C513.155 324.244 512.693 323.72 512.359 323.045C512.03 322.371 511.865 321.583 511.865 320.682C511.865 319.773 512.03 318.979 512.359 318.301C512.693 317.623 513.155 317.097 513.746 316.722C514.34 316.347 515.032 316.159 515.82 316.159C516.607 316.159 517.297 316.347 517.888 316.722C518.482 317.097 518.945 317.623 519.274 318.301C519.607 318.979 519.774 319.773 519.774 320.682C519.774 321.583 519.607 322.371 519.274 323.045C518.945 323.72 518.482 324.244 517.888 324.619C517.297 324.994 516.607 325.182 515.82 325.182ZM515.82 323.977C516.418 323.977 516.911 323.824 517.297 323.517C517.683 323.21 517.969 322.807 518.155 322.307C518.34 321.807 518.433 321.265 518.433 320.682C518.433 320.098 518.34 319.555 518.155 319.051C517.969 318.547 517.683 318.14 517.297 317.83C516.911 317.519 516.418 317.364 515.82 317.364C515.221 317.364 514.729 317.519 514.342 317.83C513.956 318.14 513.67 318.547 513.484 319.051C513.299 319.555 513.206 320.098 513.206 320.682C513.206 321.265 513.299 321.807 513.484 322.307C513.67 322.807 513.956 323.21 514.342 323.517C514.729 323.824 515.221 323.977 515.82 323.977ZM523.162 319.75V325H521.821V316.273H523.116V317.636H523.23C523.435 317.193 523.745 316.837 524.162 316.568C524.579 316.295 525.116 316.159 525.776 316.159C526.366 316.159 526.884 316.28 527.327 316.523C527.77 316.761 528.115 317.125 528.361 317.614C528.607 318.098 528.73 318.712 528.73 319.455V325H527.389V319.545C527.389 318.86 527.211 318.326 526.855 317.943C526.499 317.557 526.01 317.364 525.389 317.364C524.961 317.364 524.579 317.456 524.241 317.642C523.908 317.828 523.645 318.098 523.452 318.455C523.259 318.811 523.162 319.242 523.162 319.75ZM533.749 325.205C533.196 325.205 532.694 325.1 532.243 324.892C531.792 324.68 531.434 324.375 531.169 323.977C530.904 323.576 530.771 323.091 530.771 322.523C530.771 322.023 530.87 321.617 531.067 321.307C531.264 320.992 531.527 320.746 531.857 320.568C532.186 320.39 532.55 320.258 532.947 320.17C533.349 320.08 533.752 320.008 534.158 319.955C534.688 319.886 535.118 319.835 535.447 319.801C535.781 319.763 536.023 319.701 536.175 319.614C536.33 319.527 536.408 319.375 536.408 319.159V319.114C536.408 318.553 536.254 318.117 535.947 317.807C535.644 317.496 535.184 317.341 534.567 317.341C533.927 317.341 533.425 317.481 533.061 317.761C532.697 318.042 532.442 318.341 532.294 318.659L531.021 318.205C531.249 317.674 531.552 317.261 531.93 316.966C532.313 316.667 532.73 316.458 533.18 316.341C533.635 316.22 534.082 316.159 534.521 316.159C534.802 316.159 535.124 316.193 535.487 316.261C535.855 316.326 536.209 316.46 536.55 316.665C536.894 316.869 537.18 317.178 537.408 317.591C537.635 318.004 537.749 318.557 537.749 319.25V325H536.408V323.818H536.339C536.249 324.008 536.097 324.21 535.885 324.426C535.673 324.642 535.391 324.826 535.038 324.977C534.686 325.129 534.256 325.205 533.749 325.205ZM533.953 324C534.483 324 534.93 323.896 535.294 323.688C535.661 323.479 535.938 323.21 536.124 322.881C536.313 322.551 536.408 322.205 536.408 321.841V320.614C536.351 320.682 536.226 320.744 536.033 320.801C535.843 320.854 535.624 320.902 535.374 320.943C535.127 320.981 534.887 321.015 534.652 321.045C534.421 321.072 534.233 321.095 534.089 321.114C533.741 321.159 533.415 321.233 533.112 321.335C532.813 321.434 532.571 321.583 532.385 321.784C532.203 321.981 532.112 322.25 532.112 322.591C532.112 323.057 532.285 323.409 532.629 323.648C532.978 323.883 533.419 324 533.953 324ZM541.537 313.364V325H540.196V313.364H541.537Z" fill="black"/>
<path d="M474.409 229V217.364H481.432V218.614H475.818V222.545H481.068V223.795H475.818V227.75H481.523V229H474.409ZM493.79 223.182C493.79 224.409 493.568 225.47 493.125 226.364C492.682 227.258 492.074 227.947 491.301 228.432C490.528 228.917 489.646 229.159 488.653 229.159C487.661 229.159 486.778 228.917 486.006 228.432C485.233 227.947 484.625 227.258 484.182 226.364C483.739 225.47 483.517 224.409 483.517 223.182C483.517 221.955 483.739 220.894 484.182 220C484.625 219.106 485.233 218.417 486.006 217.932C486.778 217.447 487.661 217.205 488.653 217.205C489.646 217.205 490.528 217.447 491.301 217.932C492.074 218.417 492.682 219.106 493.125 220C493.568 220.894 493.79 221.955 493.79 223.182ZM492.426 223.182C492.426 222.174 492.258 221.324 491.92 220.631C491.587 219.938 491.134 219.413 490.562 219.057C489.994 218.701 489.358 218.523 488.653 218.523C487.949 218.523 487.311 218.701 486.739 219.057C486.17 219.413 485.718 219.938 485.381 220.631C485.047 221.324 484.881 222.174 484.881 223.182C484.881 224.189 485.047 225.04 485.381 225.733C485.718 226.426 486.17 226.951 486.739 227.307C487.311 227.663 487.949 227.841 488.653 227.841C489.358 227.841 489.994 227.663 490.562 227.307C491.134 226.951 491.587 226.426 491.92 225.733C492.258 225.04 492.426 224.189 492.426 223.182ZM496.159 229V217.364H497.568V227.75H502.977V229H496.159Z" fill="black"/>
<path d="M236.818 361.364V373H235.409V361.364H236.818ZM240.803 367.75V373H239.462V364.273H240.757V365.636H240.871C241.075 365.193 241.386 364.837 241.803 364.568C242.219 364.295 242.757 364.159 243.416 364.159C244.007 364.159 244.524 364.28 244.967 364.523C245.411 364.761 245.755 365.125 246.001 365.614C246.248 366.098 246.371 366.712 246.371 367.455V373H245.03V367.545C245.03 366.86 244.852 366.326 244.496 365.943C244.14 365.557 243.651 365.364 243.03 365.364C242.602 365.364 242.219 365.456 241.882 365.642C241.549 365.828 241.286 366.098 241.092 366.455C240.899 366.811 240.803 367.242 240.803 367.75ZM252.616 364.273V365.409H248.094V364.273H252.616ZM249.412 362.182H250.753V370.5C250.753 370.879 250.808 371.163 250.918 371.352C251.031 371.538 251.175 371.663 251.349 371.727C251.527 371.788 251.715 371.818 251.912 371.818C252.06 371.818 252.181 371.811 252.276 371.795C252.37 371.777 252.446 371.761 252.503 371.75L252.776 372.955C252.685 372.989 252.558 373.023 252.395 373.057C252.232 373.095 252.026 373.114 251.776 373.114C251.397 373.114 251.026 373.032 250.662 372.869C250.302 372.706 250.003 372.458 249.764 372.125C249.529 371.792 249.412 371.371 249.412 370.864V362.182ZM258.199 373.182C257.358 373.182 256.633 372.996 256.023 372.625C255.417 372.25 254.949 371.727 254.619 371.057C254.294 370.383 254.131 369.598 254.131 368.705C254.131 367.811 254.294 367.023 254.619 366.341C254.949 365.655 255.407 365.121 255.994 364.739C256.585 364.352 257.275 364.159 258.062 364.159C258.517 364.159 258.966 364.235 259.409 364.386C259.852 364.538 260.256 364.784 260.619 365.125C260.983 365.462 261.273 365.909 261.489 366.466C261.705 367.023 261.812 367.708 261.812 368.523V369.091H255.085V367.932H260.449C260.449 367.439 260.35 367 260.153 366.614C259.96 366.227 259.684 365.922 259.324 365.699C258.968 365.475 258.547 365.364 258.062 365.364C257.528 365.364 257.066 365.496 256.676 365.761C256.29 366.023 255.992 366.364 255.784 366.784C255.576 367.205 255.472 367.655 255.472 368.136V368.909C255.472 369.568 255.585 370.127 255.812 370.585C256.044 371.04 256.364 371.386 256.773 371.625C257.182 371.86 257.657 371.977 258.199 371.977C258.551 371.977 258.869 371.928 259.153 371.83C259.441 371.727 259.689 371.576 259.898 371.375C260.106 371.17 260.267 370.917 260.381 370.614L261.676 370.977C261.54 371.417 261.311 371.803 260.989 372.136C260.667 372.466 260.269 372.723 259.795 372.909C259.322 373.091 258.79 373.182 258.199 373.182ZM267.375 376.455C266.727 376.455 266.17 376.371 265.705 376.205C265.239 376.042 264.85 375.826 264.54 375.557C264.233 375.292 263.989 375.008 263.807 374.705L264.875 373.955C264.996 374.114 265.15 374.295 265.335 374.5C265.521 374.708 265.775 374.888 266.097 375.04C266.422 375.195 266.848 375.273 267.375 375.273C268.08 375.273 268.661 375.102 269.119 374.761C269.578 374.42 269.807 373.886 269.807 373.159V371.386H269.693C269.595 371.545 269.455 371.742 269.273 371.977C269.095 372.208 268.837 372.415 268.5 372.597C268.167 372.775 267.716 372.864 267.148 372.864C266.443 372.864 265.811 372.697 265.25 372.364C264.693 372.03 264.252 371.545 263.926 370.909C263.604 370.273 263.443 369.5 263.443 368.591C263.443 367.697 263.6 366.919 263.915 366.256C264.229 365.589 264.667 365.074 265.227 364.71C265.788 364.343 266.436 364.159 267.17 364.159C267.739 364.159 268.189 364.254 268.523 364.443C268.86 364.629 269.117 364.841 269.295 365.08C269.477 365.314 269.617 365.508 269.716 365.659H269.852V364.273H271.148V373.25C271.148 374 270.977 374.61 270.636 375.08C270.299 375.553 269.845 375.9 269.273 376.119C268.705 376.343 268.072 376.455 267.375 376.455ZM267.33 371.659C267.867 371.659 268.322 371.536 268.693 371.29C269.064 371.044 269.347 370.689 269.54 370.227C269.733 369.765 269.83 369.212 269.83 368.568C269.83 367.939 269.735 367.384 269.545 366.903C269.356 366.422 269.076 366.045 268.705 365.773C268.333 365.5 267.875 365.364 267.33 365.364C266.761 365.364 266.288 365.508 265.909 365.795C265.534 366.083 265.252 366.47 265.062 366.955C264.877 367.439 264.784 367.977 264.784 368.568C264.784 369.174 264.879 369.71 265.068 370.176C265.261 370.638 265.545 371.002 265.92 371.267C266.299 371.528 266.769 371.659 267.33 371.659ZM273.602 373V364.273H274.898V365.591H274.989C275.148 365.159 275.436 364.809 275.852 364.54C276.269 364.271 276.739 364.136 277.261 364.136C277.36 364.136 277.483 364.138 277.631 364.142C277.778 364.146 277.89 364.152 277.966 364.159V365.523C277.92 365.511 277.816 365.494 277.653 365.472C277.494 365.445 277.326 365.432 277.148 365.432C276.723 365.432 276.345 365.521 276.011 365.699C275.682 365.873 275.42 366.116 275.227 366.426C275.038 366.733 274.943 367.083 274.943 367.477V373H273.602ZM282.124 373.205C281.571 373.205 281.069 373.1 280.618 372.892C280.167 372.68 279.809 372.375 279.544 371.977C279.279 371.576 279.146 371.091 279.146 370.523C279.146 370.023 279.245 369.617 279.442 369.307C279.639 368.992 279.902 368.746 280.232 368.568C280.561 368.39 280.925 368.258 281.322 368.17C281.724 368.08 282.127 368.008 282.533 367.955C283.063 367.886 283.493 367.835 283.822 367.801C284.156 367.763 284.398 367.701 284.55 367.614C284.705 367.527 284.783 367.375 284.783 367.159V367.114C284.783 366.553 284.629 366.117 284.322 365.807C284.019 365.496 283.559 365.341 282.942 365.341C282.302 365.341 281.8 365.481 281.436 365.761C281.072 366.042 280.817 366.341 280.669 366.659L279.396 366.205C279.624 365.674 279.927 365.261 280.305 364.966C280.688 364.667 281.105 364.458 281.555 364.341C282.01 364.22 282.457 364.159 282.896 364.159C283.177 364.159 283.499 364.193 283.862 364.261C284.23 364.326 284.584 364.46 284.925 364.665C285.269 364.869 285.555 365.178 285.783 365.591C286.01 366.004 286.124 366.557 286.124 367.25V373H284.783V371.818H284.714C284.624 372.008 284.472 372.21 284.26 372.426C284.048 372.642 283.766 372.826 283.413 372.977C283.061 373.129 282.631 373.205 282.124 373.205ZM282.328 372C282.858 372 283.305 371.896 283.669 371.688C284.036 371.479 284.313 371.21 284.499 370.881C284.688 370.551 284.783 370.205 284.783 369.841V368.614C284.726 368.682 284.601 368.744 284.408 368.801C284.218 368.854 283.999 368.902 283.749 368.943C283.502 368.981 283.262 369.015 283.027 369.045C282.796 369.072 282.608 369.095 282.464 369.114C282.116 369.159 281.79 369.233 281.487 369.335C281.188 369.434 280.946 369.583 280.76 369.784C280.578 369.981 280.487 370.25 280.487 370.591C280.487 371.057 280.66 371.409 281.004 371.648C281.353 371.883 281.794 372 282.328 372ZM292.366 364.273V365.409H287.844V364.273H292.366ZM289.162 362.182H290.503V370.5C290.503 370.879 290.558 371.163 290.668 371.352C290.781 371.538 290.925 371.663 291.099 371.727C291.277 371.788 291.465 371.818 291.662 371.818C291.81 371.818 291.931 371.811 292.026 371.795C292.12 371.777 292.196 371.761 292.253 371.75L292.526 372.955C292.435 372.989 292.308 373.023 292.145 373.057C291.982 373.095 291.776 373.114 291.526 373.114C291.147 373.114 290.776 373.032 290.412 372.869C290.052 372.706 289.753 372.458 289.514 372.125C289.279 371.792 289.162 371.371 289.162 370.864V362.182ZM294.384 373V364.273H295.724V373H294.384ZM295.065 362.818C294.804 362.818 294.579 362.729 294.389 362.551C294.204 362.373 294.111 362.159 294.111 361.909C294.111 361.659 294.204 361.445 294.389 361.267C294.579 361.089 294.804 361 295.065 361C295.327 361 295.55 361.089 295.736 361.267C295.925 361.445 296.02 361.659 296.02 361.909C296.02 362.159 295.925 362.373 295.736 362.551C295.55 362.729 295.327 362.818 295.065 362.818ZM301.726 373.182C300.938 373.182 300.247 372.994 299.652 372.619C299.061 372.244 298.599 371.72 298.266 371.045C297.936 370.371 297.771 369.583 297.771 368.682C297.771 367.773 297.936 366.979 298.266 366.301C298.599 365.623 299.061 365.097 299.652 364.722C300.247 364.347 300.938 364.159 301.726 364.159C302.514 364.159 303.203 364.347 303.794 364.722C304.389 365.097 304.851 365.623 305.18 366.301C305.514 366.979 305.68 367.773 305.68 368.682C305.68 369.583 305.514 370.371 305.18 371.045C304.851 371.72 304.389 372.244 303.794 372.619C303.203 372.994 302.514 373.182 301.726 373.182ZM301.726 371.977C302.324 371.977 302.817 371.824 303.203 371.517C303.589 371.21 303.875 370.807 304.061 370.307C304.247 369.807 304.339 369.265 304.339 368.682C304.339 368.098 304.247 367.555 304.061 367.051C303.875 366.547 303.589 366.14 303.203 365.83C302.817 365.519 302.324 365.364 301.726 365.364C301.127 365.364 300.635 365.519 300.249 365.83C299.862 366.14 299.576 366.547 299.391 367.051C299.205 367.555 299.112 368.098 299.112 368.682C299.112 369.265 299.205 369.807 299.391 370.307C299.576 370.807 299.862 371.21 300.249 371.517C300.635 371.824 301.127 371.977 301.726 371.977ZM309.068 367.75V373H307.727V364.273H309.023V365.636H309.136C309.341 365.193 309.652 364.837 310.068 364.568C310.485 364.295 311.023 364.159 311.682 364.159C312.273 364.159 312.79 364.28 313.233 364.523C313.676 364.761 314.021 365.125 314.267 365.614C314.513 366.098 314.636 366.712 314.636 367.455V373H313.295V367.545C313.295 366.86 313.117 366.326 312.761 365.943C312.405 365.557 311.917 365.364 311.295 365.364C310.867 365.364 310.485 365.456 310.148 365.642C309.814 365.828 309.551 366.098 309.358 366.455C309.165 366.811 309.068 367.242 309.068 367.75Z" fill="black"/>
<path d="M572.409 147V135.364H579.386V136.614H573.818V140.545H578.864V141.795H573.818V147H572.409ZM581.618 147V138.273H582.959V147H581.618ZM582.3 136.818C582.038 136.818 581.813 136.729 581.624 136.551C581.438 136.373 581.345 136.159 581.345 135.909C581.345 135.659 581.438 135.445 581.624 135.267C581.813 135.089 582.038 135 582.3 135C582.561 135 582.785 135.089 582.97 135.267C583.16 135.445 583.254 135.659 583.254 135.909C583.254 136.159 583.16 136.373 582.97 136.551C582.785 136.729 582.561 136.818 582.3 136.818ZM589.074 147.182C588.233 147.182 587.508 146.996 586.898 146.625C586.292 146.25 585.824 145.727 585.494 145.057C585.169 144.383 585.006 143.598 585.006 142.705C585.006 141.811 585.169 141.023 585.494 140.341C585.824 139.655 586.282 139.121 586.869 138.739C587.46 138.352 588.15 138.159 588.938 138.159C589.392 138.159 589.841 138.235 590.284 138.386C590.727 138.538 591.131 138.784 591.494 139.125C591.858 139.462 592.148 139.909 592.364 140.466C592.58 141.023 592.688 141.708 592.688 142.523V143.091H585.96V141.932H591.324C591.324 141.439 591.225 141 591.028 140.614C590.835 140.227 590.559 139.922 590.199 139.699C589.843 139.475 589.422 139.364 588.938 139.364C588.403 139.364 587.941 139.496 587.551 139.761C587.165 140.023 586.867 140.364 586.659 140.784C586.451 141.205 586.347 141.655 586.347 142.136V142.909C586.347 143.568 586.46 144.127 586.688 144.585C586.919 145.04 587.239 145.386 587.648 145.625C588.057 145.86 588.532 145.977 589.074 145.977C589.426 145.977 589.744 145.928 590.028 145.83C590.316 145.727 590.564 145.576 590.773 145.375C590.981 145.17 591.142 144.917 591.256 144.614L592.551 144.977C592.415 145.417 592.186 145.803 591.864 146.136C591.542 146.466 591.144 146.723 590.67 146.909C590.197 147.091 589.665 147.182 589.074 147.182ZM596.068 135.364V147H594.727V135.364H596.068ZM601.82 147.182C601.092 147.182 600.45 146.998 599.893 146.631C599.337 146.259 598.901 145.737 598.587 145.062C598.272 144.384 598.115 143.583 598.115 142.659C598.115 141.742 598.272 140.947 598.587 140.273C598.901 139.598 599.339 139.078 599.899 138.71C600.46 138.343 601.107 138.159 601.842 138.159C602.411 138.159 602.859 138.254 603.189 138.443C603.522 138.629 603.776 138.841 603.95 139.08C604.128 139.314 604.267 139.508 604.365 139.659H604.479V135.364H605.82V147H604.524V145.659H604.365C604.267 145.818 604.126 146.019 603.945 146.261C603.763 146.5 603.503 146.714 603.166 146.903C602.829 147.089 602.38 147.182 601.82 147.182ZM602.001 145.977C602.539 145.977 602.994 145.837 603.365 145.557C603.736 145.273 604.018 144.881 604.212 144.381C604.405 143.877 604.501 143.295 604.501 142.636C604.501 141.985 604.407 141.415 604.217 140.926C604.028 140.434 603.748 140.051 603.376 139.778C603.005 139.502 602.547 139.364 602.001 139.364C601.433 139.364 600.96 139.509 600.581 139.801C600.206 140.089 599.924 140.481 599.734 140.977C599.549 141.47 599.456 142.023 599.456 142.636C599.456 143.258 599.551 143.822 599.74 144.33C599.933 144.833 600.217 145.235 600.592 145.534C600.971 145.83 601.441 145.977 602.001 145.977Z" fill="black"/>
<path d="M193.409 487V475.364H197.477C198.288 475.364 198.956 475.504 199.483 475.784C200.009 476.061 200.402 476.434 200.659 476.903C200.917 477.369 201.045 477.886 201.045 478.455C201.045 478.955 200.956 479.367 200.778 479.693C200.604 480.019 200.373 480.277 200.085 480.466C199.801 480.655 199.492 480.795 199.159 480.886V481C199.515 481.023 199.873 481.148 200.233 481.375C200.593 481.602 200.894 481.928 201.136 482.352C201.379 482.777 201.5 483.295 201.5 483.909C201.5 484.492 201.367 485.017 201.102 485.483C200.837 485.949 200.419 486.318 199.847 486.591C199.275 486.864 198.53 487 197.614 487H193.409ZM194.818 485.75H197.614C198.534 485.75 199.188 485.572 199.574 485.216C199.964 484.856 200.159 484.42 200.159 483.909C200.159 483.515 200.059 483.152 199.858 482.818C199.657 482.481 199.371 482.212 199 482.011C198.629 481.807 198.189 481.705 197.682 481.705H194.818V485.75ZM194.818 480.477H197.432C197.856 480.477 198.239 480.394 198.58 480.227C198.924 480.061 199.197 479.826 199.398 479.523C199.602 479.22 199.705 478.864 199.705 478.455C199.705 477.943 199.527 477.509 199.17 477.153C198.814 476.794 198.25 476.614 197.477 476.614H194.818V480.477ZM203.634 487V478.273H204.929V479.591H205.02C205.179 479.159 205.467 478.809 205.884 478.54C206.3 478.271 206.77 478.136 207.293 478.136C207.391 478.136 207.514 478.138 207.662 478.142C207.81 478.146 207.921 478.152 207.997 478.159V479.523C207.952 479.511 207.848 479.494 207.685 479.472C207.526 479.445 207.357 479.432 207.179 479.432C206.755 479.432 206.376 479.521 206.043 479.699C205.713 479.873 205.452 480.116 205.259 480.426C205.069 480.733 204.974 481.083 204.974 481.477V487H203.634ZM209.587 487V478.273H210.928V487H209.587ZM210.268 476.818C210.007 476.818 209.782 476.729 209.592 476.551C209.407 476.373 209.314 476.159 209.314 475.909C209.314 475.659 209.407 475.445 209.592 475.267C209.782 475.089 210.007 475 210.268 475C210.53 475 210.753 475.089 210.939 475.267C211.128 475.445 211.223 475.659 211.223 475.909C211.223 476.159 211.128 476.373 210.939 476.551C210.753 476.729 210.53 476.818 210.268 476.818ZM214.724 481.75V487H213.384V478.273H214.679V479.636H214.793C214.997 479.193 215.308 478.837 215.724 478.568C216.141 478.295 216.679 478.159 217.338 478.159C217.929 478.159 218.446 478.28 218.889 478.523C219.332 478.761 219.677 479.125 219.923 479.614C220.17 480.098 220.293 480.712 220.293 481.455V487H218.952V481.545C218.952 480.86 218.774 480.326 218.418 479.943C218.062 479.557 217.573 479.364 216.952 479.364C216.524 479.364 216.141 479.456 215.804 479.642C215.471 479.828 215.207 480.098 215.014 480.455C214.821 480.811 214.724 481.242 214.724 481.75ZM226.266 490.455C225.618 490.455 225.061 490.371 224.595 490.205C224.129 490.042 223.741 489.826 223.43 489.557C223.124 489.292 222.879 489.008 222.697 488.705L223.766 487.955C223.887 488.114 224.04 488.295 224.226 488.5C224.411 488.708 224.665 488.888 224.987 489.04C225.313 489.195 225.739 489.273 226.266 489.273C226.97 489.273 227.552 489.102 228.01 488.761C228.468 488.42 228.697 487.886 228.697 487.159V485.386H228.584C228.485 485.545 228.345 485.742 228.163 485.977C227.985 486.208 227.728 486.415 227.391 486.597C227.057 486.775 226.607 486.864 226.038 486.864C225.334 486.864 224.701 486.697 224.141 486.364C223.584 486.03 223.143 485.545 222.817 484.909C222.495 484.273 222.334 483.5 222.334 482.591C222.334 481.697 222.491 480.919 222.805 480.256C223.12 479.589 223.557 479.074 224.118 478.71C224.679 478.343 225.326 478.159 226.061 478.159C226.629 478.159 227.08 478.254 227.413 478.443C227.75 478.629 228.008 478.841 228.186 479.08C228.368 479.314 228.508 479.508 228.607 479.659H228.743V478.273H230.038V487.25C230.038 488 229.868 488.61 229.527 489.08C229.19 489.553 228.735 489.9 228.163 490.119C227.595 490.343 226.963 490.455 226.266 490.455ZM226.22 485.659C226.758 485.659 227.213 485.536 227.584 485.29C227.955 485.044 228.237 484.689 228.43 484.227C228.624 483.765 228.72 483.212 228.72 482.568C228.72 481.939 228.625 481.384 228.436 480.903C228.247 480.422 227.966 480.045 227.595 479.773C227.224 479.5 226.766 479.364 226.22 479.364C225.652 479.364 225.179 479.508 224.8 479.795C224.425 480.083 224.143 480.47 223.953 480.955C223.768 481.439 223.675 481.977 223.675 482.568C223.675 483.174 223.769 483.71 223.959 484.176C224.152 484.638 224.436 485.002 224.811 485.267C225.19 485.528 225.66 485.659 226.22 485.659ZM237.493 481.386V482.636H232.402V481.386H237.493ZM245.352 483.432V478.273H246.693V487H245.352V485.523H245.261C245.057 485.966 244.739 486.343 244.307 486.653C243.875 486.96 243.33 487.114 242.67 487.114C242.125 487.114 241.64 486.994 241.216 486.756C240.792 486.513 240.458 486.15 240.216 485.665C239.973 485.176 239.852 484.561 239.852 483.818V478.273H241.193V483.727C241.193 484.364 241.371 484.871 241.727 485.25C242.087 485.629 242.545 485.818 243.102 485.818C243.436 485.818 243.775 485.733 244.119 485.562C244.468 485.392 244.759 485.131 244.994 484.778C245.233 484.426 245.352 483.977 245.352 483.432ZM249.149 490.273V478.273H250.445V479.659H250.604C250.702 479.508 250.839 479.314 251.013 479.08C251.191 478.841 251.445 478.629 251.774 478.443C252.107 478.254 252.558 478.159 253.126 478.159C253.861 478.159 254.509 478.343 255.07 478.71C255.63 479.078 256.068 479.598 256.382 480.273C256.696 480.947 256.854 481.742 256.854 482.659C256.854 483.583 256.696 484.384 256.382 485.062C256.068 485.737 255.632 486.259 255.075 486.631C254.518 486.998 253.876 487.182 253.149 487.182C252.589 487.182 252.14 487.089 251.803 486.903C251.465 486.714 251.206 486.5 251.024 486.261C250.842 486.019 250.702 485.818 250.604 485.659H250.49V490.273H249.149ZM250.467 482.636C250.467 483.295 250.564 483.877 250.757 484.381C250.95 484.881 251.232 485.273 251.604 485.557C251.975 485.837 252.429 485.977 252.967 485.977C253.528 485.977 253.996 485.83 254.371 485.534C254.75 485.235 255.034 484.833 255.223 484.33C255.416 483.822 255.513 483.258 255.513 482.636C255.513 482.023 255.418 481.47 255.229 480.977C255.043 480.481 254.761 480.089 254.382 479.801C254.007 479.509 253.536 479.364 252.967 479.364C252.422 479.364 251.964 479.502 251.592 479.778C251.221 480.051 250.941 480.434 250.751 480.926C250.562 481.415 250.467 481.985 250.467 482.636Z" fill="black"/>
<path d="M662.707 599.707C663.098 599.317 663.098 598.683 662.707 598.293L656.343 591.929C655.953 591.538 655.319 591.538 654.929 591.929C654.538 592.319 654.538 592.953 654.929 593.343L660.586 599L654.929 604.657C654.538 605.047 654.538 605.681 654.929 606.071C655.319 606.462 655.953 606.462 656.343 606.071L662.707 599.707ZM62 600H662V598H62V600Z" fill="black"/>
<path d="M62.7071 36.2929C62.3166 35.9024 61.6834 35.9024 61.2929 36.2929L54.9289 42.6569C54.5384 43.0474 54.5384 43.6805 54.9289 44.0711C55.3195 44.4616 55.9526 44.4616 56.3431 44.0711L62 38.4142L67.6569 44.0711C68.0474 44.4616 68.6805 44.4616 69.0711 44.0711C69.4616 43.6805 69.4616 43.0474 69.0711 42.6569L62.7071 36.2929ZM63 599L63 37H61L61 599H63Z" fill="black"/>
<rect x="78" y="214" width="304" height="365" fill="#FF0D00" fill-opacity="0.1"/>
<rect x="396" y="201" width="232" height="157" fill="#00E6FF" fill-opacity="0.1"/>
<path opacity="0.5" d="M173.264 194V179.455H183.065V181.99H176.339V185.456H182.561V187.991H176.339V191.464H183.094V194H173.264ZM188.479 187.693V194H185.453V183.091H188.337V185.016H188.465C188.706 184.381 189.111 183.879 189.679 183.51C190.248 183.136 190.936 182.949 191.746 182.949C192.504 182.949 193.164 183.115 193.728 183.446C194.291 183.777 194.729 184.251 195.042 184.866C195.354 185.477 195.51 186.206 195.51 187.054V194H192.485V187.594C192.489 186.926 192.319 186.405 191.973 186.031C191.628 185.652 191.152 185.463 190.546 185.463C190.139 185.463 189.779 185.551 189.466 185.726C189.158 185.901 188.917 186.157 188.742 186.493C188.571 186.824 188.484 187.224 188.479 187.693ZM202.81 198.318C201.83 198.318 200.989 198.183 200.288 197.913C199.592 197.648 199.038 197.286 198.626 196.827C198.214 196.367 197.947 195.851 197.824 195.278L200.622 194.902C200.707 195.12 200.842 195.323 201.027 195.513C201.212 195.702 201.455 195.854 201.759 195.967C202.066 196.086 202.44 196.145 202.881 196.145C203.539 196.145 204.081 195.984 204.507 195.662C204.938 195.345 205.153 194.812 205.153 194.064V192.068H205.026C204.893 192.371 204.694 192.658 204.429 192.928C204.164 193.197 203.823 193.418 203.406 193.588C202.99 193.759 202.492 193.844 201.915 193.844C201.096 193.844 200.35 193.654 199.678 193.276C199.01 192.892 198.477 192.307 198.08 191.521C197.687 190.731 197.49 189.732 197.49 188.524C197.49 187.288 197.691 186.256 198.094 185.428C198.496 184.599 199.031 183.979 199.699 183.567C200.371 183.155 201.107 182.949 201.908 182.949C202.518 182.949 203.03 183.053 203.442 183.261C203.854 183.465 204.185 183.721 204.436 184.028C204.692 184.331 204.888 184.63 205.026 184.923H205.139V183.091H208.143V194.107C208.143 195.035 207.916 195.811 207.462 196.436C207.007 197.061 206.377 197.53 205.572 197.842C204.772 198.16 203.851 198.318 202.81 198.318ZM202.874 191.571C203.361 191.571 203.773 191.45 204.109 191.209C204.45 190.963 204.711 190.612 204.891 190.158C205.075 189.698 205.168 189.149 205.168 188.51C205.168 187.871 205.078 187.317 204.898 186.848C204.718 186.375 204.457 186.008 204.116 185.747C203.776 185.487 203.361 185.357 202.874 185.357C202.376 185.357 201.957 185.491 201.616 185.761C201.276 186.027 201.018 186.396 200.842 186.869C200.667 187.343 200.58 187.89 200.58 188.51C200.58 189.14 200.667 189.684 200.842 190.143C201.022 190.598 201.28 190.951 201.616 191.202C201.957 191.448 202.376 191.571 202.874 191.571ZM210.551 194V183.091H213.577V194H210.551ZM212.071 181.685C211.621 181.685 211.235 181.536 210.913 181.237C210.596 180.934 210.438 180.572 210.438 180.151C210.438 179.734 210.596 179.376 210.913 179.078C211.235 178.775 211.621 178.624 212.071 178.624C212.521 178.624 212.904 178.775 213.222 179.078C213.544 179.376 213.705 179.734 213.705 180.151C213.705 180.572 213.544 180.934 213.222 181.237C212.904 181.536 212.521 181.685 212.071 181.685ZM219.026 187.693V194H216V183.091H218.884V185.016H219.012C219.253 184.381 219.658 183.879 220.226 183.51C220.794 183.136 221.483 182.949 222.293 182.949C223.051 182.949 223.711 183.115 224.275 183.446C224.838 183.777 225.276 184.251 225.588 184.866C225.901 185.477 226.057 186.206 226.057 187.054V194H223.032V187.594C223.036 186.926 222.866 186.405 222.52 186.031C222.175 185.652 221.699 185.463 221.093 185.463C220.685 185.463 220.326 185.551 220.013 185.726C219.705 185.901 219.464 186.157 219.289 186.493C219.118 186.824 219.031 187.224 219.026 187.693ZM233.413 194.213C232.291 194.213 231.325 193.986 230.516 193.531C229.711 193.072 229.09 192.423 228.655 191.585C228.219 190.742 228.001 189.746 228.001 188.595C228.001 187.473 228.219 186.488 228.655 185.641C229.09 184.793 229.704 184.133 230.494 183.659C231.29 183.186 232.223 182.949 233.293 182.949C234.012 182.949 234.682 183.065 235.303 183.297C235.928 183.524 236.472 183.867 236.936 184.327C237.405 184.786 237.769 185.364 238.03 186.06C238.29 186.751 238.42 187.561 238.42 188.489V189.32H229.209V187.445H235.572C235.572 187.009 235.478 186.623 235.288 186.287C235.099 185.951 234.836 185.688 234.5 185.499C234.169 185.304 233.783 185.207 233.342 185.207C232.883 185.207 232.476 185.314 232.121 185.527C231.77 185.735 231.496 186.017 231.297 186.372C231.098 186.723 230.996 187.113 230.991 187.544V189.327C230.991 189.866 231.091 190.333 231.29 190.726C231.493 191.119 231.78 191.422 232.149 191.635C232.518 191.848 232.956 191.955 233.463 191.955C233.799 191.955 234.107 191.907 234.386 191.812C234.666 191.718 234.905 191.576 235.104 191.386C235.303 191.197 235.454 190.965 235.558 190.69L238.357 190.875C238.214 191.547 237.923 192.134 237.483 192.636C237.047 193.134 236.484 193.522 235.793 193.801C235.106 194.076 234.313 194.213 233.413 194.213ZM245.366 194.213C244.244 194.213 243.278 193.986 242.469 193.531C241.664 193.072 241.044 192.423 240.608 191.585C240.172 190.742 239.955 189.746 239.955 188.595C239.955 187.473 240.172 186.488 240.608 185.641C241.044 184.793 241.657 184.133 242.447 183.659C243.243 183.186 244.176 182.949 245.246 182.949C245.965 182.949 246.635 183.065 247.256 183.297C247.881 183.524 248.425 183.867 248.889 184.327C249.358 184.786 249.723 185.364 249.983 186.06C250.243 186.751 250.374 187.561 250.374 188.489V189.32H241.162V187.445H247.526C247.526 187.009 247.431 186.623 247.241 186.287C247.052 185.951 246.789 185.688 246.453 185.499C246.122 185.304 245.736 185.207 245.295 185.207C244.836 185.207 244.429 185.314 244.074 185.527C243.723 185.735 243.449 186.017 243.25 186.372C243.051 186.723 242.949 187.113 242.945 187.544V189.327C242.945 189.866 243.044 190.333 243.243 190.726C243.446 191.119 243.733 191.422 244.102 191.635C244.472 191.848 244.91 191.955 245.416 191.955C245.752 191.955 246.06 191.907 246.339 191.812C246.619 191.718 246.858 191.576 247.057 191.386C247.256 191.197 247.407 190.965 247.511 190.69L250.31 190.875C250.168 191.547 249.876 192.134 249.436 192.636C249 193.134 248.437 193.522 247.746 193.801C247.059 194.076 246.266 194.213 245.366 194.213ZM252.348 194V183.091H255.281V184.994H255.395C255.594 184.317 255.928 183.806 256.396 183.46C256.865 183.11 257.405 182.935 258.016 182.935C258.167 182.935 258.33 182.944 258.506 182.963C258.681 182.982 258.835 183.008 258.967 183.041V185.726C258.825 185.683 258.629 185.645 258.378 185.612C258.127 185.579 257.897 185.562 257.689 185.562C257.244 185.562 256.846 185.66 256.496 185.854C256.15 186.043 255.875 186.308 255.672 186.649C255.473 186.99 255.374 187.383 255.374 187.828V194H252.348ZM260.532 194V183.091H263.557V194H260.532ZM262.051 181.685C261.602 181.685 261.216 181.536 260.894 181.237C260.577 180.934 260.418 180.572 260.418 180.151C260.418 179.734 260.577 179.376 260.894 179.078C261.216 178.775 261.602 178.624 262.051 178.624C262.501 178.624 262.885 178.775 263.202 179.078C263.524 179.376 263.685 179.734 263.685 180.151C263.685 180.572 263.524 180.934 263.202 181.237C262.885 181.536 262.501 181.685 262.051 181.685ZM269.006 187.693V194H265.981V183.091H268.864V185.016H268.992C269.234 184.381 269.638 183.879 270.207 183.51C270.775 183.136 271.464 182.949 272.273 182.949C273.031 182.949 273.692 183.115 274.255 183.446C274.818 183.777 275.256 184.251 275.569 184.866C275.881 185.477 276.038 186.206 276.038 187.054V194H273.012V187.594C273.017 186.926 272.846 186.405 272.501 186.031C272.155 185.652 271.679 185.463 271.073 185.463C270.666 185.463 270.306 185.551 269.994 185.726C269.686 185.901 269.444 186.157 269.269 186.493C269.099 186.824 269.011 187.224 269.006 187.693ZM283.337 198.318C282.357 198.318 281.516 198.183 280.816 197.913C280.12 197.648 279.566 197.286 279.154 196.827C278.742 196.367 278.474 195.851 278.351 195.278L281.15 194.902C281.235 195.12 281.37 195.323 281.554 195.513C281.739 195.702 281.983 195.854 282.286 195.967C282.594 196.086 282.968 196.145 283.408 196.145C284.066 196.145 284.608 195.984 285.034 195.662C285.465 195.345 285.681 194.812 285.681 194.064V192.068H285.553C285.42 192.371 285.221 192.658 284.956 192.928C284.691 193.197 284.35 193.418 283.934 193.588C283.517 193.759 283.02 193.844 282.442 193.844C281.623 193.844 280.877 193.654 280.205 193.276C279.537 192.892 279.005 192.307 278.607 191.521C278.214 190.731 278.017 189.732 278.017 188.524C278.017 187.288 278.219 186.256 278.621 185.428C279.024 184.599 279.559 183.979 280.226 183.567C280.899 183.155 281.635 182.949 282.435 182.949C283.046 182.949 283.557 183.053 283.969 183.261C284.381 183.465 284.712 183.721 284.963 184.028C285.219 184.331 285.416 184.63 285.553 184.923H285.667V183.091H288.671V194.107C288.671 195.035 288.444 195.811 287.989 196.436C287.534 197.061 286.905 197.53 286.1 197.842C285.3 198.16 284.379 198.318 283.337 198.318ZM283.401 191.571C283.889 191.571 284.301 191.45 284.637 191.209C284.978 190.963 285.238 190.612 285.418 190.158C285.603 189.698 285.695 189.149 285.695 188.51C285.695 187.871 285.605 187.317 285.425 186.848C285.245 186.375 284.985 186.008 284.644 185.747C284.303 185.487 283.889 185.357 283.401 185.357C282.904 185.357 282.485 185.491 282.144 185.761C281.803 186.027 281.545 186.396 281.37 186.869C281.194 187.343 281.107 187.89 281.107 188.51C281.107 189.14 281.194 189.684 281.37 190.143C281.55 190.598 281.808 190.951 282.144 191.202C282.485 191.448 282.904 191.571 283.401 191.571Z" fill="black"/>
<path opacity="0.5" d="M482.264 182V167.455H491.895V169.99H485.339V173.456H491.256V175.991H485.339V182H482.264ZM496.881 182.206C496.185 182.206 495.564 182.085 495.02 181.844C494.475 181.598 494.045 181.235 493.727 180.757C493.415 180.274 493.259 179.673 493.259 178.953C493.259 178.347 493.37 177.838 493.592 177.426C493.815 177.014 494.118 176.683 494.501 176.432C494.885 176.181 495.321 175.991 495.808 175.864C496.301 175.736 496.817 175.646 497.357 175.594C497.991 175.527 498.502 175.466 498.891 175.409C499.279 175.348 499.561 175.258 499.736 175.139C499.911 175.021 499.999 174.846 499.999 174.614V174.571C499.999 174.121 499.857 173.773 499.572 173.527C499.293 173.281 498.895 173.158 498.379 173.158C497.835 173.158 497.402 173.278 497.08 173.52C496.758 173.757 496.545 174.055 496.44 174.415L493.642 174.188C493.784 173.525 494.063 172.952 494.48 172.469C494.897 171.981 495.434 171.607 496.092 171.347C496.755 171.081 497.522 170.949 498.393 170.949C499 170.949 499.58 171.02 500.134 171.162C500.692 171.304 501.187 171.524 501.618 171.822C502.054 172.121 502.397 172.504 502.648 172.973C502.899 173.437 503.024 173.993 503.024 174.642V182H500.155V180.487H500.07C499.894 180.828 499.66 181.129 499.366 181.389C499.073 181.645 498.72 181.846 498.308 181.993C497.896 182.135 497.42 182.206 496.881 182.206ZM497.747 180.118C498.192 180.118 498.585 180.03 498.926 179.855C499.267 179.675 499.535 179.434 499.729 179.131C499.923 178.828 500.02 178.484 500.02 178.101V176.943C499.925 177.005 499.795 177.062 499.629 177.114C499.468 177.161 499.286 177.206 499.082 177.249C498.879 177.286 498.675 177.322 498.472 177.355C498.268 177.384 498.083 177.41 497.918 177.433C497.563 177.485 497.252 177.568 496.987 177.682C496.722 177.795 496.516 177.949 496.369 178.143C496.223 178.333 496.149 178.57 496.149 178.854C496.149 179.266 496.298 179.58 496.597 179.798C496.9 180.011 497.283 180.118 497.747 180.118ZM510.3 182.213C509.183 182.213 508.222 181.976 507.417 181.503C506.617 181.025 506.001 180.362 505.57 179.514C505.144 178.667 504.931 177.691 504.931 176.588C504.931 175.471 505.147 174.491 505.577 173.648C506.013 172.8 506.631 172.14 507.431 171.666C508.231 171.188 509.183 170.949 510.286 170.949C511.238 170.949 512.071 171.122 512.786 171.467C513.501 171.813 514.067 172.298 514.484 172.923C514.9 173.548 515.13 174.282 515.173 175.125H512.317C512.237 174.58 512.024 174.143 511.678 173.811C511.337 173.475 510.89 173.307 510.336 173.307C509.867 173.307 509.458 173.435 509.107 173.69C508.762 173.941 508.492 174.308 508.298 174.791C508.103 175.274 508.006 175.859 508.006 176.545C508.006 177.241 508.101 177.833 508.29 178.321C508.485 178.809 508.757 179.18 509.107 179.436C509.458 179.692 509.867 179.82 510.336 179.82C510.682 179.82 510.992 179.749 511.266 179.607C511.546 179.464 511.775 179.259 511.955 178.989C512.14 178.714 512.261 178.385 512.317 178.001H515.173C515.125 178.835 514.898 179.569 514.491 180.203C514.088 180.833 513.532 181.325 512.822 181.68C512.112 182.036 511.271 182.213 510.3 182.213ZM522.912 171.091V173.364H516.343V171.091H522.912ZM517.834 168.477H520.86V178.648C520.86 178.927 520.902 179.145 520.988 179.301C521.073 179.453 521.191 179.559 521.343 179.621C521.499 179.682 521.679 179.713 521.882 179.713C522.025 179.713 522.167 179.701 522.309 179.678C522.451 179.649 522.56 179.628 522.635 179.614L523.111 181.865C522.96 181.912 522.747 181.967 522.472 182.028C522.197 182.095 521.864 182.135 521.471 182.149C520.741 182.178 520.102 182.08 519.553 181.858C519.008 181.635 518.585 181.29 518.282 180.821C517.979 180.352 517.829 179.76 517.834 179.045V168.477ZM529.695 182.213C528.592 182.213 527.638 181.979 526.833 181.51C526.033 181.036 525.415 180.378 524.979 179.536C524.543 178.688 524.326 177.705 524.326 176.588C524.326 175.461 524.543 174.476 524.979 173.634C525.415 172.786 526.033 172.128 526.833 171.659C527.638 171.186 528.592 170.949 529.695 170.949C530.798 170.949 531.75 171.186 532.55 171.659C533.355 172.128 533.975 172.786 534.411 173.634C534.846 174.476 535.064 175.461 535.064 176.588C535.064 177.705 534.846 178.688 534.411 179.536C533.975 180.378 533.355 181.036 532.55 181.51C531.75 181.979 530.798 182.213 529.695 182.213ZM529.709 179.869C530.211 179.869 530.63 179.727 530.966 179.443C531.302 179.154 531.556 178.761 531.726 178.264C531.901 177.767 531.989 177.201 531.989 176.567C531.989 175.932 531.901 175.366 531.726 174.869C531.556 174.372 531.302 173.979 530.966 173.69C530.63 173.402 530.211 173.257 529.709 173.257C529.203 173.257 528.776 173.402 528.431 173.69C528.09 173.979 527.832 174.372 527.657 174.869C527.486 175.366 527.401 175.932 527.401 176.567C527.401 177.201 527.486 177.767 527.657 178.264C527.832 178.761 528.09 179.154 528.431 179.443C528.776 179.727 529.203 179.869 529.709 179.869ZM537.032 182V171.091H539.965V172.994H540.078C540.277 172.317 540.611 171.806 541.08 171.46C541.549 171.11 542.088 170.935 542.699 170.935C542.851 170.935 543.014 170.944 543.189 170.963C543.364 170.982 543.518 171.008 543.651 171.041V173.726C543.509 173.683 543.312 173.645 543.061 173.612C542.81 173.579 542.581 173.562 542.373 173.562C541.927 173.562 541.53 173.66 541.179 173.854C540.834 174.043 540.559 174.308 540.355 174.649C540.157 174.99 540.057 175.383 540.057 175.828V182H537.032ZM547.415 186.091C547.032 186.091 546.672 186.06 546.336 185.999C546.004 185.942 545.73 185.868 545.512 185.778L546.194 183.52C546.549 183.629 546.868 183.688 547.152 183.697C547.441 183.707 547.69 183.641 547.898 183.499C548.111 183.357 548.284 183.115 548.417 182.774L548.594 182.312L544.681 171.091H547.863L550.121 179.102H550.235L552.515 171.091H555.718L551.478 183.179C551.274 183.766 550.997 184.277 550.647 184.713C550.301 185.153 549.863 185.492 549.333 185.729C548.802 185.97 548.163 186.091 547.415 186.091Z" fill="black"/>
</svg>
