<svg width="687" height="666" viewBox="0 0 687 666" fill="none" xmlns="http://www.w3.org/2000/svg">
<rect width="687" height="666" fill="white"/>
<path d="M598.409 627V615.364H602.341C603.254 615.364 604 615.528 604.58 615.858C605.163 616.184 605.595 616.625 605.875 617.182C606.155 617.739 606.295 618.36 606.295 619.045C606.295 619.731 606.155 620.354 605.875 620.915C605.598 621.475 605.17 621.922 604.591 622.256C604.011 622.585 603.269 622.75 602.364 622.75H599.545V621.5H602.318C602.943 621.5 603.445 621.392 603.824 621.176C604.203 620.96 604.477 620.669 604.648 620.301C604.822 619.93 604.909 619.511 604.909 619.045C604.909 618.58 604.822 618.163 604.648 617.795C604.477 617.428 604.201 617.14 603.818 616.932C603.436 616.72 602.928 616.614 602.295 616.614H599.818V627H598.409ZM609.724 621.75V627H608.384V615.364H609.724V619.636H609.838C610.043 619.186 610.349 618.828 610.759 618.562C611.171 618.294 611.721 618.159 612.406 618.159C613.001 618.159 613.522 618.278 613.969 618.517C614.416 618.752 614.762 619.114 615.009 619.602C615.259 620.087 615.384 620.705 615.384 621.455V627H614.043V621.545C614.043 620.852 613.863 620.316 613.503 619.938C613.147 619.555 612.652 619.364 612.02 619.364C611.58 619.364 611.187 619.456 610.838 619.642C610.493 619.828 610.221 620.098 610.02 620.455C609.823 620.811 609.724 621.242 609.724 621.75ZM620.405 627.205C619.852 627.205 619.35 627.1 618.899 626.892C618.448 626.68 618.09 626.375 617.825 625.977C617.56 625.576 617.428 625.091 617.428 624.523C617.428 624.023 617.526 623.617 617.723 623.307C617.92 622.992 618.183 622.746 618.513 622.568C618.842 622.39 619.206 622.258 619.604 622.17C620.005 622.08 620.409 622.008 620.814 621.955C621.344 621.886 621.774 621.835 622.104 621.801C622.437 621.763 622.679 621.701 622.831 621.614C622.986 621.527 623.064 621.375 623.064 621.159V621.114C623.064 620.553 622.911 620.117 622.604 619.807C622.301 619.496 621.84 619.341 621.223 619.341C620.583 619.341 620.081 619.481 619.717 619.761C619.354 620.042 619.098 620.341 618.95 620.659L617.678 620.205C617.905 619.674 618.208 619.261 618.587 618.966C618.969 618.667 619.386 618.458 619.837 618.341C620.291 618.22 620.738 618.159 621.178 618.159C621.458 618.159 621.78 618.193 622.143 618.261C622.511 618.326 622.865 618.46 623.206 618.665C623.551 618.869 623.837 619.178 624.064 619.591C624.291 620.004 624.405 620.557 624.405 621.25V627H623.064V625.818H622.996C622.905 626.008 622.753 626.21 622.541 626.426C622.329 626.642 622.047 626.826 621.695 626.977C621.342 627.129 620.912 627.205 620.405 627.205ZM620.609 626C621.14 626 621.587 625.896 621.95 625.688C622.318 625.479 622.594 625.21 622.78 624.881C622.969 624.551 623.064 624.205 623.064 623.841V622.614C623.007 622.682 622.882 622.744 622.689 622.801C622.5 622.854 622.28 622.902 622.03 622.943C621.784 622.981 621.543 623.015 621.308 623.045C621.077 623.072 620.89 623.095 620.746 623.114C620.397 623.159 620.071 623.233 619.768 623.335C619.469 623.434 619.227 623.583 619.041 623.784C618.859 623.981 618.768 624.25 618.768 624.591C618.768 625.057 618.941 625.409 619.286 625.648C619.634 625.883 620.075 626 620.609 626ZM633.034 620.227L631.83 620.568C631.754 620.367 631.642 620.172 631.494 619.983C631.35 619.79 631.153 619.631 630.903 619.506C630.653 619.381 630.333 619.318 629.943 619.318C629.409 619.318 628.964 619.441 628.608 619.688C628.256 619.93 628.08 620.239 628.08 620.614C628.08 620.947 628.201 621.21 628.443 621.403C628.686 621.597 629.064 621.758 629.58 621.886L630.875 622.205C631.655 622.394 632.237 622.684 632.619 623.074C633.002 623.46 633.193 623.958 633.193 624.568C633.193 625.068 633.049 625.515 632.761 625.909C632.477 626.303 632.08 626.614 631.568 626.841C631.057 627.068 630.462 627.182 629.784 627.182C628.894 627.182 628.157 626.989 627.574 626.602C626.991 626.216 626.621 625.652 626.466 624.909L627.739 624.591C627.86 625.061 628.089 625.413 628.426 625.648C628.767 625.883 629.212 626 629.761 626C630.386 626 630.883 625.867 631.25 625.602C631.621 625.333 631.807 625.011 631.807 624.636C631.807 624.333 631.701 624.08 631.489 623.875C631.277 623.667 630.951 623.511 630.511 623.409L629.057 623.068C628.258 622.879 627.67 622.585 627.295 622.188C626.924 621.786 626.739 621.284 626.739 620.682C626.739 620.189 626.877 619.754 627.153 619.375C627.434 618.996 627.814 618.699 628.295 618.483C628.78 618.267 629.33 618.159 629.943 618.159C630.807 618.159 631.485 618.348 631.977 618.727C632.473 619.106 632.826 619.606 633.034 620.227ZM638.871 627.182C638.03 627.182 637.304 626.996 636.695 626.625C636.089 626.25 635.621 625.727 635.291 625.057C634.965 624.383 634.803 623.598 634.803 622.705C634.803 621.811 634.965 621.023 635.291 620.341C635.621 619.655 636.079 619.121 636.666 618.739C637.257 618.352 637.946 618.159 638.734 618.159C639.189 618.159 639.638 618.235 640.081 618.386C640.524 618.538 640.928 618.784 641.291 619.125C641.655 619.462 641.945 619.909 642.161 620.466C642.376 621.023 642.484 621.708 642.484 622.523V623.091H635.757V621.932H641.121C641.121 621.439 641.022 621 640.825 620.614C640.632 620.227 640.356 619.922 639.996 619.699C639.64 619.475 639.219 619.364 638.734 619.364C638.2 619.364 637.738 619.496 637.348 619.761C636.962 620.023 636.664 620.364 636.456 620.784C636.248 621.205 636.143 621.655 636.143 622.136V622.909C636.143 623.568 636.257 624.127 636.484 624.585C636.715 625.04 637.036 625.386 637.445 625.625C637.854 625.86 638.329 625.977 638.871 625.977C639.223 625.977 639.541 625.928 639.825 625.83C640.113 625.727 640.361 625.576 640.57 625.375C640.778 625.17 640.939 624.917 641.053 624.614L642.348 624.977C642.212 625.417 641.982 625.803 641.661 626.136C641.339 626.466 640.941 626.723 640.467 626.909C639.994 627.091 639.462 627.182 638.871 627.182Z" fill="black"/>
<path d="M40 111.591H28.3636L28.3636 104.614H29.6136V110.182H33.5455V105.136H34.7955V110.182H40V111.591ZM40 102.382H31.2727V101.041H40V102.382ZM29.8182 101.7C29.8182 101.962 29.7292 102.187 29.5511 102.376C29.3731 102.562 29.1591 102.655 28.9091 102.655C28.6591 102.655 28.4451 102.562 28.267 102.376C28.089 102.187 28 101.962 28 101.7C28 101.439 28.089 101.215 28.267 101.03C28.4451 100.84 28.6591 100.746 28.9091 100.746C29.1591 100.746 29.3731 100.84 29.5511 101.03C29.7292 101.215 29.8182 101.439 29.8182 101.7ZM40.1818 95.2898C40.1818 96.017 39.9981 96.6591 39.6307 97.2159C39.2595 97.7727 38.7367 98.2083 38.0625 98.5227C37.3845 98.8371 36.5833 98.9943 35.6591 98.9943C34.7424 98.9943 33.947 98.8371 33.2727 98.5227C32.5985 98.2083 32.0777 97.7708 31.7102 97.2102C31.3428 96.6496 31.1591 96.0019 31.1591 95.267C31.1591 94.6989 31.2538 94.25 31.4432 93.9205C31.6288 93.5871 31.8409 93.3333 32.0795 93.1591C32.3144 92.9811 32.5076 92.8428 32.6591 92.7443V92.6307H28.3636V91.2898H40V92.5852H38.6591V92.7443C38.8182 92.8428 39.0189 92.983 39.2614 93.1648C39.5 93.3466 39.714 93.6061 39.9034 93.9432C40.089 94.2803 40.1818 94.7292 40.1818 95.2898ZM38.9773 95.108C38.9773 94.5701 38.8371 94.1155 38.5568 93.7443C38.2727 93.3731 37.8807 93.0909 37.3807 92.8977C36.8769 92.7045 36.2955 92.608 35.6364 92.608C34.9848 92.608 34.4148 92.7027 33.9261 92.892C33.4337 93.0814 33.0511 93.3617 32.7784 93.733C32.5019 94.1042 32.3636 94.5625 32.3636 95.108C32.3636 95.6761 32.5095 96.1496 32.8011 96.5284C33.089 96.9034 33.4811 97.1856 33.9773 97.375C34.4697 97.5606 35.0227 97.6534 35.6364 97.6534C36.2576 97.6534 36.822 97.5587 37.3295 97.3693C37.8333 97.1761 38.2348 96.892 38.5341 96.517C38.8295 96.1383 38.9773 95.6686 38.9773 95.108ZM40.1818 84.9886C40.1818 85.8295 39.9962 86.5549 39.625 87.1648C39.25 87.7708 38.7273 88.2386 38.0568 88.5682C37.3826 88.8939 36.5985 89.0568 35.7045 89.0568C34.8106 89.0568 34.0227 88.8939 33.3409 88.5682C32.6553 88.2386 32.1212 87.7803 31.7386 87.1932C31.3523 86.6023 31.1591 85.9129 31.1591 85.125C31.1591 84.6705 31.2348 84.2216 31.3864 83.7784C31.5379 83.3352 31.7841 82.9318 32.125 82.5682C32.4621 82.2045 32.9091 81.9148 33.4659 81.6989C34.0227 81.483 34.7083 81.375 35.5227 81.375H36.0909V88.1023H34.9318V82.7386C34.4394 82.7386 34 82.8371 33.6136 83.0341C33.2273 83.2273 32.9223 83.5038 32.6989 83.8636C32.4754 84.2197 32.3636 84.6402 32.3636 85.125C32.3636 85.6591 32.4962 86.1212 32.7614 86.5114C33.0227 86.8977 33.3636 87.1951 33.7841 87.4034C34.2045 87.6117 34.6553 87.7159 35.1364 87.7159H35.9091C36.5682 87.7159 37.1269 87.6023 37.5852 87.375C38.0398 87.1439 38.3864 86.8239 38.625 86.4148C38.8598 86.0057 38.9773 85.5303 38.9773 84.9886C38.9773 84.6364 38.928 84.3182 38.8295 84.0341C38.7273 83.7462 38.5758 83.4981 38.375 83.2898C38.1705 83.0814 37.9167 82.9205 37.6136 82.8068L37.9773 81.5114C38.4167 81.6477 38.803 81.8769 39.1364 82.1989C39.4659 82.5208 39.7235 82.9186 39.9091 83.392C40.0909 83.8655 40.1818 84.3977 40.1818 84.9886ZM28.3636 77.9943H40V79.3352H28.3636V77.9943ZM40 75.5384H31.2727V74.1974H40L40 75.5384ZM29.8182 74.8565C29.8182 75.1179 29.7292 75.3433 29.5511 75.5327C29.3731 75.7183 29.1591 75.8111 28.9091 75.8111C28.6591 75.8111 28.4451 75.7183 28.267 75.5327C28.089 75.3433 28 75.1179 28 74.8565C28 74.5952 28.089 74.3717 28.267 74.1861C28.4451 73.9967 28.6591 73.902 28.9091 73.902C29.1591 73.902 29.3731 73.9967 29.5511 74.1861C29.7292 74.3717 29.8182 74.5952 29.8182 74.8565ZM31.2727 67.946H32.4091V72.4688H31.2727V67.946ZM29.1818 71.1506V69.8097H37.5C37.8788 69.8097 38.1629 69.7547 38.3523 69.6449C38.5379 69.5312 38.6629 69.3873 38.7273 69.2131C38.7879 69.035 38.8182 68.8475 38.8182 68.6506C38.8182 68.5028 38.8106 68.3816 38.7955 68.2869C38.7765 68.1922 38.7614 68.1165 38.75 68.0597L39.9545 67.7869C39.9886 67.8778 40.0227 68.0047 40.0568 68.1676C40.0947 68.3305 40.1136 68.5369 40.1136 68.7869C40.1136 69.1657 40.0322 69.5369 39.8693 69.9006C39.7064 70.2604 39.4583 70.5597 39.125 70.7983C38.7917 71.0331 38.3712 71.1506 37.8636 71.1506H29.1818ZM43.2727 65.0653C43.2727 65.2926 43.2538 65.4953 43.2159 65.6733C43.1818 65.8513 43.1477 65.9744 43.1136 66.0426L41.9318 65.7017C42.0152 65.3759 42.0455 65.0881 42.0227 64.8381C42 64.5881 41.8883 64.3665 41.6875 64.1733C41.4905 63.9763 41.1705 63.7964 40.7273 63.6335L40.0455 63.3835L31.2727 66.6108L31.2727 65.1562L38.2273 62.7472V62.6562L31.2727 60.2472V58.7926L41.2727 62.4972C41.7235 62.6638 42.0966 62.8703 42.392 63.1165C42.6913 63.3627 42.9129 63.6487 43.0568 63.9744C43.2008 64.2964 43.2727 64.66 43.2727 65.0653Z" fill="black"/>
<path d="M128.409 537V525.364H129.818V535.75H135.227V537H128.409ZM139.795 537.205C139.242 537.205 138.741 537.1 138.29 536.892C137.839 536.68 137.481 536.375 137.216 535.977C136.951 535.576 136.818 535.091 136.818 534.523C136.818 534.023 136.917 533.617 137.114 533.307C137.311 532.992 137.574 532.746 137.903 532.568C138.233 532.39 138.597 532.258 138.994 532.17C139.396 532.08 139.799 532.008 140.205 531.955C140.735 531.886 141.165 531.835 141.494 531.801C141.828 531.763 142.07 531.701 142.222 531.614C142.377 531.527 142.455 531.375 142.455 531.159V531.114C142.455 530.553 142.301 530.117 141.994 529.807C141.691 529.496 141.231 529.341 140.614 529.341C139.973 529.341 139.472 529.481 139.108 529.761C138.744 530.042 138.489 530.341 138.341 530.659L137.068 530.205C137.295 529.674 137.598 529.261 137.977 528.966C138.36 528.667 138.777 528.458 139.227 528.341C139.682 528.22 140.129 528.159 140.568 528.159C140.848 528.159 141.17 528.193 141.534 528.261C141.902 528.326 142.256 528.46 142.597 528.665C142.941 528.869 143.227 529.178 143.455 529.591C143.682 530.004 143.795 530.557 143.795 531.25V537H142.455V535.818H142.386C142.295 536.008 142.144 536.21 141.932 536.426C141.72 536.642 141.438 536.826 141.085 536.977C140.733 537.129 140.303 537.205 139.795 537.205ZM140 536C140.53 536 140.977 535.896 141.341 535.688C141.708 535.479 141.985 535.21 142.17 534.881C142.36 534.551 142.455 534.205 142.455 533.841V532.614C142.398 532.682 142.273 532.744 142.08 532.801C141.89 532.854 141.67 532.902 141.42 532.943C141.174 532.981 140.934 533.015 140.699 533.045C140.468 533.072 140.28 533.095 140.136 533.114C139.788 533.159 139.462 533.233 139.159 533.335C138.86 533.434 138.617 533.583 138.432 533.784C138.25 533.981 138.159 534.25 138.159 534.591C138.159 535.057 138.331 535.409 138.676 535.648C139.025 535.883 139.466 536 140 536ZM146.425 537V525.364H147.766V529.659H147.879C147.978 529.508 148.114 529.314 148.288 529.08C148.466 528.841 148.72 528.629 149.05 528.443C149.383 528.254 149.834 528.159 150.402 528.159C151.137 528.159 151.785 528.343 152.345 528.71C152.906 529.078 153.343 529.598 153.658 530.273C153.972 530.947 154.129 531.742 154.129 532.659C154.129 533.583 153.972 534.384 153.658 535.062C153.343 535.737 152.908 536.259 152.351 536.631C151.794 536.998 151.152 537.182 150.425 537.182C149.864 537.182 149.415 537.089 149.078 536.903C148.741 536.714 148.482 536.5 148.3 536.261C148.118 536.019 147.978 535.818 147.879 535.659H147.72V537H146.425ZM147.743 532.636C147.743 533.295 147.839 533.877 148.033 534.381C148.226 534.881 148.508 535.273 148.879 535.557C149.25 535.837 149.705 535.977 150.243 535.977C150.804 535.977 151.271 535.83 151.646 535.534C152.025 535.235 152.309 534.833 152.499 534.33C152.692 533.822 152.788 533.258 152.788 532.636C152.788 532.023 152.694 531.47 152.504 530.977C152.319 530.481 152.036 530.089 151.658 529.801C151.283 529.509 150.811 529.364 150.243 529.364C149.697 529.364 149.239 529.502 148.868 529.778C148.497 530.051 148.216 530.434 148.027 530.926C147.838 531.415 147.743 531.985 147.743 532.636ZM160.862 537V525.364H164.93C165.741 525.364 166.41 525.504 166.936 525.784C167.463 526.061 167.855 526.434 168.112 526.903C168.37 527.369 168.499 527.886 168.499 528.455C168.499 528.955 168.41 529.367 168.232 529.693C168.057 530.019 167.826 530.277 167.538 530.466C167.254 530.655 166.946 530.795 166.612 530.886V531C166.968 531.023 167.326 531.148 167.686 531.375C168.046 531.602 168.347 531.928 168.589 532.352C168.832 532.777 168.953 533.295 168.953 533.909C168.953 534.492 168.821 535.017 168.555 535.483C168.29 535.949 167.872 536.318 167.3 536.591C166.728 536.864 165.983 537 165.067 537H160.862ZM162.271 535.75H165.067C165.987 535.75 166.641 535.572 167.027 535.216C167.417 534.856 167.612 534.42 167.612 533.909C167.612 533.515 167.512 533.152 167.311 532.818C167.11 532.481 166.824 532.212 166.453 532.011C166.082 531.807 165.643 531.705 165.135 531.705H162.271V535.75ZM162.271 530.477H164.885C165.309 530.477 165.692 530.394 166.033 530.227C166.377 530.061 166.65 529.826 166.851 529.523C167.055 529.22 167.158 528.864 167.158 528.455C167.158 527.943 166.98 527.509 166.624 527.153C166.268 526.794 165.703 526.614 164.93 526.614H162.271V530.477ZM174.746 537.182C173.905 537.182 173.179 536.996 172.57 536.625C171.964 536.25 171.496 535.727 171.166 535.057C170.84 534.383 170.678 533.598 170.678 532.705C170.678 531.811 170.84 531.023 171.166 530.341C171.496 529.655 171.954 529.121 172.541 528.739C173.132 528.352 173.821 528.159 174.609 528.159C175.064 528.159 175.513 528.235 175.956 528.386C176.399 528.538 176.803 528.784 177.166 529.125C177.53 529.462 177.82 529.909 178.036 530.466C178.251 531.023 178.359 531.708 178.359 532.523V533.091H171.632V531.932H176.996C176.996 531.439 176.897 531 176.7 530.614C176.507 530.227 176.231 529.922 175.871 529.699C175.515 529.475 175.094 529.364 174.609 529.364C174.075 529.364 173.613 529.496 173.223 529.761C172.837 530.023 172.539 530.364 172.331 530.784C172.123 531.205 172.018 531.655 172.018 532.136V532.909C172.018 533.568 172.132 534.127 172.359 534.585C172.59 535.04 172.911 535.386 173.32 535.625C173.729 535.86 174.204 535.977 174.746 535.977C175.098 535.977 175.416 535.928 175.7 535.83C175.988 535.727 176.236 535.576 176.445 535.375C176.653 535.17 176.814 534.917 176.928 534.614L178.223 534.977C178.087 535.417 177.857 535.803 177.536 536.136C177.214 536.466 176.816 536.723 176.342 536.909C175.869 537.091 175.337 537.182 174.746 537.182ZM181.74 531.75V537H180.399V528.273H181.695V529.636H181.808C182.013 529.193 182.323 528.837 182.74 528.568C183.157 528.295 183.695 528.159 184.354 528.159C184.945 528.159 185.462 528.28 185.905 528.523C186.348 528.761 186.693 529.125 186.939 529.614C187.185 530.098 187.308 530.712 187.308 531.455V537H185.967V531.545C185.967 530.86 185.789 530.326 185.433 529.943C185.077 529.557 184.589 529.364 183.967 529.364C183.539 529.364 183.157 529.456 182.82 529.642C182.486 529.828 182.223 530.098 182.03 530.455C181.837 530.811 181.74 531.242 181.74 531.75ZM193.304 537.182C192.486 537.182 191.781 536.989 191.19 536.602C190.599 536.216 190.145 535.684 189.827 535.006C189.509 534.328 189.349 533.553 189.349 532.682C189.349 531.795 189.512 531.013 189.838 530.335C190.168 529.653 190.626 529.121 191.213 528.739C191.804 528.352 192.493 528.159 193.281 528.159C193.895 528.159 194.448 528.273 194.94 528.5C195.433 528.727 195.836 529.045 196.151 529.455C196.465 529.864 196.66 530.341 196.736 530.886H195.395C195.293 530.489 195.065 530.136 194.713 529.83C194.365 529.519 193.895 529.364 193.304 529.364C192.781 529.364 192.323 529.5 191.929 529.773C191.539 530.042 191.234 530.422 191.014 530.915C190.798 531.403 190.69 531.977 190.69 532.636C190.69 533.311 190.796 533.898 191.009 534.398C191.224 534.898 191.527 535.286 191.918 535.562C192.312 535.839 192.774 535.977 193.304 535.977C193.652 535.977 193.969 535.917 194.253 535.795C194.537 535.674 194.777 535.5 194.974 535.273C195.171 535.045 195.312 534.773 195.395 534.455H196.736C196.66 534.97 196.473 535.434 196.173 535.847C195.878 536.256 195.486 536.581 194.997 536.824C194.512 537.062 193.948 537.182 193.304 537.182ZM200.037 531.75V537H198.696V525.364H200.037V529.636H200.151C200.355 529.186 200.662 528.828 201.071 528.562C201.484 528.294 202.033 528.159 202.719 528.159C203.313 528.159 203.834 528.278 204.281 528.517C204.728 528.752 205.075 529.114 205.321 529.602C205.571 530.087 205.696 530.705 205.696 531.455V537H204.355V531.545C204.355 530.852 204.175 530.316 203.815 529.938C203.459 529.555 202.965 529.364 202.332 529.364C201.893 529.364 201.499 529.456 201.151 529.642C200.806 529.828 200.533 530.098 200.332 530.455C200.135 530.811 200.037 531.242 200.037 531.75Z" fill="black"/>
<path d="M244.773 420H243.364C243.28 419.595 243.134 419.239 242.926 418.932C242.722 418.625 242.472 418.367 242.176 418.159C241.884 417.947 241.561 417.788 241.205 417.682C240.848 417.576 240.477 417.523 240.091 417.523C239.386 417.523 238.748 417.701 238.176 418.057C237.608 418.413 237.155 418.938 236.818 419.631C236.485 420.324 236.318 421.174 236.318 422.182C236.318 423.189 236.485 424.04 236.818 424.733C237.155 425.426 237.608 425.951 238.176 426.307C238.748 426.663 239.386 426.841 240.091 426.841C240.477 426.841 240.848 426.788 241.205 426.682C241.561 426.576 241.884 426.419 242.176 426.21C242.472 425.998 242.722 425.739 242.926 425.432C243.134 425.121 243.28 424.765 243.364 424.364H244.773C244.667 424.958 244.473 425.491 244.193 425.96C243.913 426.43 243.564 426.83 243.148 427.159C242.731 427.485 242.263 427.733 241.744 427.903C241.229 428.074 240.678 428.159 240.091 428.159C239.098 428.159 238.216 427.917 237.443 427.432C236.67 426.947 236.063 426.258 235.619 425.364C235.176 424.47 234.955 423.409 234.955 422.182C234.955 420.955 235.176 419.894 235.619 419C236.063 418.106 236.67 417.417 237.443 416.932C238.216 416.447 239.098 416.205 240.091 416.205C240.678 416.205 241.229 416.29 241.744 416.46C242.263 416.631 242.731 416.881 243.148 417.21C243.564 417.536 243.913 417.934 244.193 418.403C244.473 418.869 244.667 419.402 244.773 420ZM248.459 416.364V428H247.05V416.364H248.459ZM259.716 415.818L255.966 429.75H254.739L258.489 415.818H259.716ZM265.987 428V416.364H267.396V421.545H273.601V416.364H275.01V428H273.601V422.795H267.396V428H265.987ZM277.649 428V419.273H278.99V428H277.649ZM278.331 417.818C278.07 417.818 277.844 417.729 277.655 417.551C277.469 417.373 277.376 417.159 277.376 416.909C277.376 416.659 277.469 416.445 277.655 416.267C277.844 416.089 278.07 416 278.331 416C278.592 416 278.816 416.089 279.001 416.267C279.191 416.445 279.286 416.659 279.286 416.909C279.286 417.159 279.191 417.373 279.001 417.551C278.816 417.729 278.592 417.818 278.331 417.818ZM281.628 428V416.364H283.037V426.75H288.446V428H281.628Z" fill="black"/>
<path d="M135.409 258V246.364H139.341C140.25 246.364 140.996 246.519 141.58 246.83C142.163 247.136 142.595 247.559 142.875 248.097C143.155 248.634 143.295 249.246 143.295 249.932C143.295 250.617 143.155 251.225 142.875 251.756C142.595 252.286 142.165 252.703 141.585 253.006C141.006 253.305 140.265 253.455 139.364 253.455H136.182V252.182H139.318C139.939 252.182 140.439 252.091 140.818 251.909C141.201 251.727 141.477 251.47 141.648 251.136C141.822 250.799 141.909 250.398 141.909 249.932C141.909 249.466 141.822 249.059 141.648 248.71C141.473 248.362 141.195 248.093 140.812 247.903C140.43 247.71 139.924 247.614 139.295 247.614H136.818V258H135.409ZM140.886 252.773L143.75 258H142.114L139.295 252.773H140.886ZM149.027 258.182C148.186 258.182 147.461 257.996 146.851 257.625C146.245 257.25 145.777 256.727 145.447 256.057C145.122 255.383 144.959 254.598 144.959 253.705C144.959 252.811 145.122 252.023 145.447 251.341C145.777 250.655 146.235 250.121 146.822 249.739C147.413 249.352 148.103 249.159 148.891 249.159C149.345 249.159 149.794 249.235 150.237 249.386C150.68 249.538 151.084 249.784 151.447 250.125C151.811 250.462 152.101 250.909 152.317 251.466C152.533 252.023 152.641 252.708 152.641 253.523V254.091H145.913V252.932H151.277C151.277 252.439 151.179 252 150.982 251.614C150.788 251.227 150.512 250.922 150.152 250.699C149.796 250.475 149.375 250.364 148.891 250.364C148.357 250.364 147.894 250.496 147.504 250.761C147.118 251.023 146.821 251.364 146.612 251.784C146.404 252.205 146.3 252.655 146.3 253.136V253.909C146.3 254.568 146.413 255.127 146.641 255.585C146.872 256.04 147.192 256.386 147.601 256.625C148.01 256.86 148.485 256.977 149.027 256.977C149.379 256.977 149.697 256.928 149.982 256.83C150.269 256.727 150.518 256.576 150.726 256.375C150.934 256.17 151.095 255.917 151.209 255.614L152.504 255.977C152.368 256.417 152.139 256.803 151.817 257.136C151.495 257.466 151.097 257.723 150.624 257.909C150.15 258.091 149.618 258.182 149.027 258.182ZM156.021 246.364V258H154.68V246.364H156.021ZM158.477 258V249.273H159.818V258H158.477ZM159.159 247.818C158.898 247.818 158.672 247.729 158.483 247.551C158.297 247.373 158.205 247.159 158.205 246.909C158.205 246.659 158.297 246.445 158.483 246.267C158.672 246.089 158.898 246 159.159 246C159.42 246 159.644 246.089 159.83 246.267C160.019 246.445 160.114 246.659 160.114 246.909C160.114 247.159 160.019 247.373 159.83 247.551C159.644 247.729 159.42 247.818 159.159 247.818ZM164.842 258.205C164.289 258.205 163.787 258.1 163.337 257.892C162.886 257.68 162.528 257.375 162.263 256.977C161.998 256.576 161.865 256.091 161.865 255.523C161.865 255.023 161.964 254.617 162.161 254.307C162.357 253.992 162.621 253.746 162.95 253.568C163.28 253.39 163.643 253.258 164.041 253.17C164.443 253.08 164.846 253.008 165.251 252.955C165.782 252.886 166.212 252.835 166.541 252.801C166.875 252.763 167.117 252.701 167.268 252.614C167.424 252.527 167.501 252.375 167.501 252.159V252.114C167.501 251.553 167.348 251.117 167.041 250.807C166.738 250.496 166.278 250.341 165.661 250.341C165.02 250.341 164.518 250.481 164.155 250.761C163.791 251.042 163.536 251.341 163.388 251.659L162.115 251.205C162.342 250.674 162.645 250.261 163.024 249.966C163.407 249.667 163.823 249.458 164.274 249.341C164.729 249.22 165.176 249.159 165.615 249.159C165.895 249.159 166.217 249.193 166.581 249.261C166.948 249.326 167.303 249.46 167.643 249.665C167.988 249.869 168.274 250.178 168.501 250.591C168.729 251.004 168.842 251.557 168.842 252.25V258H167.501V256.818H167.433C167.342 257.008 167.191 257.21 166.979 257.426C166.767 257.642 166.484 257.826 166.132 257.977C165.78 258.129 165.35 258.205 164.842 258.205ZM165.047 257C165.577 257 166.024 256.896 166.388 256.688C166.755 256.479 167.032 256.21 167.217 255.881C167.407 255.551 167.501 255.205 167.501 254.841V253.614C167.445 253.682 167.32 253.744 167.126 253.801C166.937 253.854 166.717 253.902 166.467 253.943C166.221 253.981 165.981 254.015 165.746 254.045C165.515 254.072 165.327 254.095 165.183 254.114C164.835 254.159 164.509 254.233 164.206 254.335C163.907 254.434 163.664 254.583 163.479 254.784C163.297 254.981 163.206 255.25 163.206 255.591C163.206 256.057 163.378 256.409 163.723 256.648C164.071 256.883 164.513 257 165.047 257ZM171.472 258V246.364H172.812V250.659H172.926C173.025 250.508 173.161 250.314 173.335 250.08C173.513 249.841 173.767 249.629 174.097 249.443C174.43 249.254 174.881 249.159 175.449 249.159C176.184 249.159 176.831 249.343 177.392 249.71C177.953 250.078 178.39 250.598 178.705 251.273C179.019 251.947 179.176 252.742 179.176 253.659C179.176 254.583 179.019 255.384 178.705 256.062C178.39 256.737 177.955 257.259 177.398 257.631C176.841 257.998 176.199 258.182 175.472 258.182C174.911 258.182 174.462 258.089 174.125 257.903C173.788 257.714 173.528 257.5 173.347 257.261C173.165 257.019 173.025 256.818 172.926 256.659H172.767V258H171.472ZM172.79 253.636C172.79 254.295 172.886 254.877 173.08 255.381C173.273 255.881 173.555 256.273 173.926 256.557C174.297 256.837 174.752 256.977 175.29 256.977C175.85 256.977 176.318 256.83 176.693 256.534C177.072 256.235 177.356 255.833 177.545 255.33C177.739 254.822 177.835 254.258 177.835 253.636C177.835 253.023 177.741 252.47 177.551 251.977C177.366 251.481 177.083 251.089 176.705 250.801C176.33 250.509 175.858 250.364 175.29 250.364C174.744 250.364 174.286 250.502 173.915 250.778C173.544 251.051 173.263 251.434 173.074 251.926C172.884 252.415 172.79 252.985 172.79 253.636ZM181.227 258V249.273H182.568V258H181.227ZM181.909 247.818C181.648 247.818 181.422 247.729 181.233 247.551C181.047 247.373 180.955 247.159 180.955 246.909C180.955 246.659 181.047 246.445 181.233 246.267C181.422 246.089 181.648 246 181.909 246C182.17 246 182.394 246.089 182.58 246.267C182.769 246.445 182.864 246.659 182.864 246.909C182.864 247.159 182.769 247.373 182.58 247.551C182.394 247.729 182.17 247.818 181.909 247.818ZM186.365 246.364V258H185.024V246.364H186.365ZM188.821 258V249.273H190.162V258H188.821ZM189.503 247.818C189.241 247.818 189.016 247.729 188.827 247.551C188.641 247.373 188.548 247.159 188.548 246.909C188.548 246.659 188.641 246.445 188.827 246.267C189.016 246.089 189.241 246 189.503 246C189.764 246 189.988 246.089 190.173 246.267C190.363 246.445 190.457 246.659 190.457 246.909C190.457 247.159 190.363 247.373 190.173 247.551C189.988 247.729 189.764 247.818 189.503 247.818ZM196.413 249.273V250.409H191.891V249.273H196.413ZM193.209 247.182H194.55V255.5C194.55 255.879 194.605 256.163 194.714 256.352C194.828 256.538 194.972 256.663 195.146 256.727C195.324 256.788 195.512 256.818 195.709 256.818C195.857 256.818 195.978 256.811 196.072 256.795C196.167 256.777 196.243 256.761 196.3 256.75L196.572 257.955C196.482 257.989 196.355 258.023 196.192 258.057C196.029 258.095 195.822 258.114 195.572 258.114C195.194 258.114 194.822 258.032 194.459 257.869C194.099 257.706 193.8 257.458 193.561 257.125C193.326 256.792 193.209 256.371 193.209 255.864V247.182ZM199.294 261.273C199.067 261.273 198.864 261.254 198.686 261.216C198.508 261.182 198.385 261.148 198.317 261.114L198.658 259.932C198.983 260.015 199.271 260.045 199.521 260.023C199.771 260 199.993 259.888 200.186 259.688C200.383 259.491 200.563 259.17 200.726 258.727L200.976 258.045L197.749 249.273H199.203L201.612 256.227H201.703L204.112 249.273H205.567L201.862 259.273C201.696 259.723 201.489 260.097 201.243 260.392C200.997 260.691 200.711 260.913 200.385 261.057C200.063 261.201 199.699 261.273 199.294 261.273Z" fill="black"/>
<path d="M305.773 295.273C305.705 294.697 305.428 294.25 304.943 293.932C304.458 293.614 303.864 293.455 303.159 293.455C302.644 293.455 302.193 293.538 301.807 293.705C301.424 293.871 301.125 294.1 300.909 294.392C300.697 294.684 300.591 295.015 300.591 295.386C300.591 295.697 300.665 295.964 300.812 296.188C300.964 296.407 301.157 296.591 301.392 296.739C301.627 296.883 301.873 297.002 302.131 297.097C302.388 297.187 302.625 297.261 302.841 297.318L304.023 297.636C304.326 297.716 304.663 297.826 305.034 297.966C305.409 298.106 305.767 298.297 306.108 298.54C306.453 298.778 306.737 299.085 306.96 299.46C307.184 299.835 307.295 300.295 307.295 300.841C307.295 301.47 307.131 302.038 306.801 302.545C306.475 303.053 305.998 303.456 305.369 303.756C304.744 304.055 303.985 304.205 303.091 304.205C302.258 304.205 301.536 304.07 300.926 303.801C300.32 303.532 299.843 303.157 299.494 302.676C299.15 302.195 298.955 301.636 298.909 301H300.364C300.402 301.439 300.549 301.803 300.807 302.091C301.068 302.375 301.398 302.587 301.795 302.727C302.197 302.864 302.629 302.932 303.091 302.932C303.629 302.932 304.112 302.845 304.54 302.67C304.968 302.492 305.307 302.246 305.557 301.932C305.807 301.614 305.932 301.242 305.932 300.818C305.932 300.432 305.824 300.117 305.608 299.875C305.392 299.633 305.108 299.436 304.756 299.284C304.403 299.133 304.023 299 303.614 298.886L302.182 298.477C301.273 298.216 300.553 297.843 300.023 297.358C299.492 296.873 299.227 296.239 299.227 295.455C299.227 294.803 299.403 294.235 299.756 293.75C300.112 293.261 300.589 292.883 301.188 292.614C301.79 292.341 302.462 292.205 303.205 292.205C303.955 292.205 304.621 292.339 305.205 292.608C305.788 292.873 306.25 293.237 306.591 293.699C306.936 294.161 307.117 294.686 307.136 295.273H305.773ZM310.294 307.273C310.067 307.273 309.864 307.254 309.686 307.216C309.508 307.182 309.385 307.148 309.317 307.114L309.658 305.932C309.983 306.015 310.271 306.045 310.521 306.023C310.771 306 310.993 305.888 311.186 305.688C311.383 305.491 311.563 305.17 311.726 304.727L311.976 304.045L308.749 295.273H310.203L312.612 302.227H312.703L315.112 295.273H316.567L312.862 305.273C312.696 305.723 312.489 306.097 312.243 306.392C311.997 306.691 311.711 306.913 311.385 307.057C311.063 307.201 310.699 307.273 310.294 307.273ZM324.518 297.227L323.314 297.568C323.238 297.367 323.126 297.172 322.979 296.983C322.835 296.79 322.638 296.631 322.388 296.506C322.138 296.381 321.818 296.318 321.428 296.318C320.893 296.318 320.448 296.441 320.092 296.688C319.74 296.93 319.564 297.239 319.564 297.614C319.564 297.947 319.685 298.21 319.928 298.403C320.17 298.597 320.549 298.758 321.064 298.886L322.359 299.205C323.14 299.394 323.721 299.684 324.104 300.074C324.486 300.46 324.678 300.958 324.678 301.568C324.678 302.068 324.534 302.515 324.246 302.909C323.962 303.303 323.564 303.614 323.053 303.841C322.541 304.068 321.946 304.182 321.268 304.182C320.378 304.182 319.642 303.989 319.058 303.602C318.475 303.216 318.106 302.652 317.95 301.909L319.223 301.591C319.344 302.061 319.573 302.413 319.911 302.648C320.251 302.883 320.696 303 321.246 303C321.871 303 322.367 302.867 322.734 302.602C323.106 302.333 323.291 302.011 323.291 301.636C323.291 301.333 323.185 301.08 322.973 300.875C322.761 300.667 322.435 300.511 321.996 300.409L320.541 300.068C319.742 299.879 319.155 299.585 318.78 299.188C318.409 298.786 318.223 298.284 318.223 297.682C318.223 297.189 318.361 296.754 318.638 296.375C318.918 295.996 319.299 295.699 319.78 295.483C320.265 295.267 320.814 295.159 321.428 295.159C322.291 295.159 322.969 295.348 323.462 295.727C323.958 296.106 324.31 296.606 324.518 297.227ZM330.491 295.273V296.409H325.969V295.273H330.491ZM327.287 293.182H328.628V301.5C328.628 301.879 328.683 302.163 328.793 302.352C328.906 302.538 329.05 302.663 329.224 302.727C329.402 302.788 329.59 302.818 329.787 302.818C329.935 302.818 330.056 302.811 330.151 302.795C330.245 302.777 330.321 302.761 330.378 302.75L330.651 303.955C330.56 303.989 330.433 304.023 330.27 304.057C330.107 304.095 329.901 304.114 329.651 304.114C329.272 304.114 328.901 304.032 328.537 303.869C328.177 303.706 327.878 303.458 327.639 303.125C327.404 302.792 327.287 302.371 327.287 301.864V293.182ZM336.074 304.182C335.233 304.182 334.508 303.996 333.898 303.625C333.292 303.25 332.824 302.727 332.494 302.057C332.169 301.383 332.006 300.598 332.006 299.705C332.006 298.811 332.169 298.023 332.494 297.341C332.824 296.655 333.282 296.121 333.869 295.739C334.46 295.352 335.15 295.159 335.938 295.159C336.392 295.159 336.841 295.235 337.284 295.386C337.727 295.538 338.131 295.784 338.494 296.125C338.858 296.462 339.148 296.909 339.364 297.466C339.58 298.023 339.688 298.708 339.688 299.523V300.091H332.96V298.932H338.324C338.324 298.439 338.225 298 338.028 297.614C337.835 297.227 337.559 296.922 337.199 296.699C336.843 296.475 336.422 296.364 335.938 296.364C335.403 296.364 334.941 296.496 334.551 296.761C334.165 297.023 333.867 297.364 333.659 297.784C333.451 298.205 333.347 298.655 333.347 299.136V299.909C333.347 300.568 333.46 301.127 333.688 301.585C333.919 302.04 334.239 302.386 334.648 302.625C335.057 302.86 335.532 302.977 336.074 302.977C336.426 302.977 336.744 302.928 337.028 302.83C337.316 302.727 337.564 302.576 337.773 302.375C337.981 302.17 338.142 301.917 338.256 301.614L339.551 301.977C339.415 302.417 339.186 302.803 338.864 303.136C338.542 303.466 338.144 303.723 337.67 303.909C337.197 304.091 336.665 304.182 336.074 304.182ZM341.727 304V295.273H343.023V296.636H343.136C343.318 296.17 343.612 295.809 344.017 295.551C344.422 295.29 344.909 295.159 345.477 295.159C346.053 295.159 346.532 295.29 346.915 295.551C347.301 295.809 347.602 296.17 347.818 296.636H347.909C348.133 296.186 348.468 295.828 348.915 295.562C349.362 295.294 349.898 295.159 350.523 295.159C351.303 295.159 351.941 295.403 352.438 295.892C352.934 296.377 353.182 297.133 353.182 298.159V304H351.841V298.159C351.841 297.515 351.665 297.055 351.312 296.778C350.96 296.502 350.545 296.364 350.068 296.364C349.455 296.364 348.979 296.549 348.642 296.92C348.305 297.288 348.136 297.754 348.136 298.318V304H346.773V298.023C346.773 297.527 346.612 297.127 346.29 296.824C345.968 296.517 345.553 296.364 345.045 296.364C344.697 296.364 344.371 296.456 344.068 296.642C343.769 296.828 343.527 297.085 343.341 297.415C343.159 297.741 343.068 298.117 343.068 298.545V304H341.727Z" fill="black"/>
<path d="M466.409 323V311.364H473.386V312.614H467.818V316.545H472.864V317.795H467.818V323H466.409ZM480.571 319.432V314.273H481.912V323H480.571V321.523H480.48C480.276 321.966 479.957 322.343 479.526 322.653C479.094 322.96 478.548 323.114 477.889 323.114C477.344 323.114 476.859 322.994 476.435 322.756C476.01 322.513 475.677 322.15 475.435 321.665C475.192 321.176 475.071 320.561 475.071 319.818V314.273H476.412V319.727C476.412 320.364 476.59 320.871 476.946 321.25C477.306 321.629 477.764 321.818 478.321 321.818C478.654 321.818 478.993 321.733 479.338 321.562C479.687 321.392 479.978 321.131 480.213 320.778C480.452 320.426 480.571 319.977 480.571 319.432ZM485.709 317.75V323H484.368V314.273H485.663V315.636H485.777C485.982 315.193 486.292 314.837 486.709 314.568C487.125 314.295 487.663 314.159 488.322 314.159C488.913 314.159 489.43 314.28 489.874 314.523C490.317 314.761 490.661 315.125 490.908 315.614C491.154 316.098 491.277 316.712 491.277 317.455V323H489.936V317.545C489.936 316.86 489.758 316.326 489.402 315.943C489.046 315.557 488.557 315.364 487.936 315.364C487.508 315.364 487.125 315.456 486.788 315.642C486.455 315.828 486.192 316.098 485.999 316.455C485.805 316.811 485.709 317.242 485.709 317.75ZM497.273 323.182C496.455 323.182 495.75 322.989 495.159 322.602C494.568 322.216 494.114 321.684 493.795 321.006C493.477 320.328 493.318 319.553 493.318 318.682C493.318 317.795 493.481 317.013 493.807 316.335C494.136 315.653 494.595 315.121 495.182 314.739C495.773 314.352 496.462 314.159 497.25 314.159C497.864 314.159 498.417 314.273 498.909 314.5C499.402 314.727 499.805 315.045 500.119 315.455C500.434 315.864 500.629 316.341 500.705 316.886H499.364C499.261 316.489 499.034 316.136 498.682 315.83C498.333 315.519 497.864 315.364 497.273 315.364C496.75 315.364 496.292 315.5 495.898 315.773C495.508 316.042 495.203 316.422 494.983 316.915C494.767 317.403 494.659 317.977 494.659 318.636C494.659 319.311 494.765 319.898 494.977 320.398C495.193 320.898 495.496 321.286 495.886 321.562C496.28 321.839 496.742 321.977 497.273 321.977C497.621 321.977 497.938 321.917 498.222 321.795C498.506 321.674 498.746 321.5 498.943 321.273C499.14 321.045 499.28 320.773 499.364 320.455H500.705C500.629 320.97 500.441 321.434 500.142 321.847C499.847 322.256 499.455 322.581 498.966 322.824C498.481 323.062 497.917 323.182 497.273 323.182ZM506.46 314.273V315.409H501.938V314.273H506.46ZM503.256 312.182H504.597V320.5C504.597 320.879 504.652 321.163 504.761 321.352C504.875 321.538 505.019 321.663 505.193 321.727C505.371 321.788 505.559 321.818 505.756 321.818C505.903 321.818 506.025 321.811 506.119 321.795C506.214 321.777 506.29 321.761 506.347 321.75L506.619 322.955C506.528 322.989 506.402 323.023 506.239 323.057C506.076 323.095 505.869 323.114 505.619 323.114C505.241 323.114 504.869 323.032 504.506 322.869C504.146 322.706 503.847 322.458 503.608 322.125C503.373 321.792 503.256 321.371 503.256 320.864V312.182ZM508.477 323V314.273H509.818V323H508.477ZM509.159 312.818C508.898 312.818 508.672 312.729 508.483 312.551C508.297 312.373 508.205 312.159 508.205 311.909C508.205 311.659 508.297 311.445 508.483 311.267C508.672 311.089 508.898 311 509.159 311C509.42 311 509.644 311.089 509.83 311.267C510.019 311.445 510.114 311.659 510.114 311.909C510.114 312.159 510.019 312.373 509.83 312.551C509.644 312.729 509.42 312.818 509.159 312.818ZM515.82 323.182C515.032 323.182 514.34 322.994 513.746 322.619C513.155 322.244 512.693 321.72 512.359 321.045C512.03 320.371 511.865 319.583 511.865 318.682C511.865 317.773 512.03 316.979 512.359 316.301C512.693 315.623 513.155 315.097 513.746 314.722C514.34 314.347 515.032 314.159 515.82 314.159C516.607 314.159 517.297 314.347 517.888 314.722C518.482 315.097 518.945 315.623 519.274 316.301C519.607 316.979 519.774 317.773 519.774 318.682C519.774 319.583 519.607 320.371 519.274 321.045C518.945 321.72 518.482 322.244 517.888 322.619C517.297 322.994 516.607 323.182 515.82 323.182ZM515.82 321.977C516.418 321.977 516.911 321.824 517.297 321.517C517.683 321.21 517.969 320.807 518.155 320.307C518.34 319.807 518.433 319.265 518.433 318.682C518.433 318.098 518.34 317.555 518.155 317.051C517.969 316.547 517.683 316.14 517.297 315.83C516.911 315.519 516.418 315.364 515.82 315.364C515.221 315.364 514.729 315.519 514.342 315.83C513.956 316.14 513.67 316.547 513.484 317.051C513.299 317.555 513.206 318.098 513.206 318.682C513.206 319.265 513.299 319.807 513.484 320.307C513.67 320.807 513.956 321.21 514.342 321.517C514.729 321.824 515.221 321.977 515.82 321.977ZM523.162 317.75V323H521.821V314.273H523.116V315.636H523.23C523.435 315.193 523.745 314.837 524.162 314.568C524.579 314.295 525.116 314.159 525.776 314.159C526.366 314.159 526.884 314.28 527.327 314.523C527.77 314.761 528.115 315.125 528.361 315.614C528.607 316.098 528.73 316.712 528.73 317.455V323H527.389V317.545C527.389 316.86 527.211 316.326 526.855 315.943C526.499 315.557 526.01 315.364 525.389 315.364C524.961 315.364 524.579 315.456 524.241 315.642C523.908 315.828 523.645 316.098 523.452 316.455C523.259 316.811 523.162 317.242 523.162 317.75ZM533.749 323.205C533.196 323.205 532.694 323.1 532.243 322.892C531.792 322.68 531.434 322.375 531.169 321.977C530.904 321.576 530.771 321.091 530.771 320.523C530.771 320.023 530.87 319.617 531.067 319.307C531.264 318.992 531.527 318.746 531.857 318.568C532.186 318.39 532.55 318.258 532.947 318.17C533.349 318.08 533.752 318.008 534.158 317.955C534.688 317.886 535.118 317.835 535.447 317.801C535.781 317.763 536.023 317.701 536.175 317.614C536.33 317.527 536.408 317.375 536.408 317.159V317.114C536.408 316.553 536.254 316.117 535.947 315.807C535.644 315.496 535.184 315.341 534.567 315.341C533.927 315.341 533.425 315.481 533.061 315.761C532.697 316.042 532.442 316.341 532.294 316.659L531.021 316.205C531.249 315.674 531.552 315.261 531.93 314.966C532.313 314.667 532.73 314.458 533.18 314.341C533.635 314.22 534.082 314.159 534.521 314.159C534.802 314.159 535.124 314.193 535.487 314.261C535.855 314.326 536.209 314.46 536.55 314.665C536.894 314.869 537.18 315.178 537.408 315.591C537.635 316.004 537.749 316.557 537.749 317.25V323H536.408V321.818H536.339C536.249 322.008 536.097 322.21 535.885 322.426C535.673 322.642 535.391 322.826 535.038 322.977C534.686 323.129 534.256 323.205 533.749 323.205ZM533.953 322C534.483 322 534.93 321.896 535.294 321.688C535.661 321.479 535.938 321.21 536.124 320.881C536.313 320.551 536.408 320.205 536.408 319.841V318.614C536.351 318.682 536.226 318.744 536.033 318.801C535.843 318.854 535.624 318.902 535.374 318.943C535.127 318.981 534.887 319.015 534.652 319.045C534.421 319.072 534.233 319.095 534.089 319.114C533.741 319.159 533.415 319.233 533.112 319.335C532.813 319.434 532.571 319.583 532.385 319.784C532.203 319.981 532.112 320.25 532.112 320.591C532.112 321.057 532.285 321.409 532.629 321.648C532.978 321.883 533.419 322 533.953 322ZM541.537 311.364V323H540.196V311.364H541.537Z" fill="black"/>
<path d="M474.409 227V215.364H481.432V216.614H475.818V220.545H481.068V221.795H475.818V225.75H481.523V227H474.409ZM493.79 221.182C493.79 222.409 493.568 223.47 493.125 224.364C492.682 225.258 492.074 225.947 491.301 226.432C490.528 226.917 489.646 227.159 488.653 227.159C487.661 227.159 486.778 226.917 486.006 226.432C485.233 225.947 484.625 225.258 484.182 224.364C483.739 223.47 483.517 222.409 483.517 221.182C483.517 219.955 483.739 218.894 484.182 218C484.625 217.106 485.233 216.417 486.006 215.932C486.778 215.447 487.661 215.205 488.653 215.205C489.646 215.205 490.528 215.447 491.301 215.932C492.074 216.417 492.682 217.106 493.125 218C493.568 218.894 493.79 219.955 493.79 221.182ZM492.426 221.182C492.426 220.174 492.258 219.324 491.92 218.631C491.587 217.938 491.134 217.413 490.562 217.057C489.994 216.701 489.358 216.523 488.653 216.523C487.949 216.523 487.311 216.701 486.739 217.057C486.17 217.413 485.718 217.938 485.381 218.631C485.047 219.324 484.881 220.174 484.881 221.182C484.881 222.189 485.047 223.04 485.381 223.733C485.718 224.426 486.17 224.951 486.739 225.307C487.311 225.663 487.949 225.841 488.653 225.841C489.358 225.841 489.994 225.663 490.562 225.307C491.134 224.951 491.587 224.426 491.92 223.733C492.258 223.04 492.426 222.189 492.426 221.182ZM496.159 227V215.364H497.568V225.75H502.977V227H496.159Z" fill="black"/>
<path d="M236.818 359.364V371H235.409V359.364H236.818ZM240.803 365.75V371H239.462V362.273H240.757V363.636H240.871C241.075 363.193 241.386 362.837 241.803 362.568C242.219 362.295 242.757 362.159 243.416 362.159C244.007 362.159 244.524 362.28 244.967 362.523C245.411 362.761 245.755 363.125 246.001 363.614C246.248 364.098 246.371 364.712 246.371 365.455V371H245.03V365.545C245.03 364.86 244.852 364.326 244.496 363.943C244.14 363.557 243.651 363.364 243.03 363.364C242.602 363.364 242.219 363.456 241.882 363.642C241.549 363.828 241.286 364.098 241.092 364.455C240.899 364.811 240.803 365.242 240.803 365.75ZM252.616 362.273V363.409H248.094V362.273H252.616ZM249.412 360.182H250.753V368.5C250.753 368.879 250.808 369.163 250.918 369.352C251.031 369.538 251.175 369.663 251.349 369.727C251.527 369.788 251.715 369.818 251.912 369.818C252.06 369.818 252.181 369.811 252.276 369.795C252.37 369.777 252.446 369.761 252.503 369.75L252.776 370.955C252.685 370.989 252.558 371.023 252.395 371.057C252.232 371.095 252.026 371.114 251.776 371.114C251.397 371.114 251.026 371.032 250.662 370.869C250.302 370.706 250.003 370.458 249.764 370.125C249.529 369.792 249.412 369.371 249.412 368.864V360.182ZM258.199 371.182C257.358 371.182 256.633 370.996 256.023 370.625C255.417 370.25 254.949 369.727 254.619 369.057C254.294 368.383 254.131 367.598 254.131 366.705C254.131 365.811 254.294 365.023 254.619 364.341C254.949 363.655 255.407 363.121 255.994 362.739C256.585 362.352 257.275 362.159 258.062 362.159C258.517 362.159 258.966 362.235 259.409 362.386C259.852 362.538 260.256 362.784 260.619 363.125C260.983 363.462 261.273 363.909 261.489 364.466C261.705 365.023 261.812 365.708 261.812 366.523V367.091H255.085V365.932H260.449C260.449 365.439 260.35 365 260.153 364.614C259.96 364.227 259.684 363.922 259.324 363.699C258.968 363.475 258.547 363.364 258.062 363.364C257.528 363.364 257.066 363.496 256.676 363.761C256.29 364.023 255.992 364.364 255.784 364.784C255.576 365.205 255.472 365.655 255.472 366.136V366.909C255.472 367.568 255.585 368.127 255.812 368.585C256.044 369.04 256.364 369.386 256.773 369.625C257.182 369.86 257.657 369.977 258.199 369.977C258.551 369.977 258.869 369.928 259.153 369.83C259.441 369.727 259.689 369.576 259.898 369.375C260.106 369.17 260.267 368.917 260.381 368.614L261.676 368.977C261.54 369.417 261.311 369.803 260.989 370.136C260.667 370.466 260.269 370.723 259.795 370.909C259.322 371.091 258.79 371.182 258.199 371.182ZM267.375 374.455C266.727 374.455 266.17 374.371 265.705 374.205C265.239 374.042 264.85 373.826 264.54 373.557C264.233 373.292 263.989 373.008 263.807 372.705L264.875 371.955C264.996 372.114 265.15 372.295 265.335 372.5C265.521 372.708 265.775 372.888 266.097 373.04C266.422 373.195 266.848 373.273 267.375 373.273C268.08 373.273 268.661 373.102 269.119 372.761C269.578 372.42 269.807 371.886 269.807 371.159V369.386H269.693C269.595 369.545 269.455 369.742 269.273 369.977C269.095 370.208 268.837 370.415 268.5 370.597C268.167 370.775 267.716 370.864 267.148 370.864C266.443 370.864 265.811 370.697 265.25 370.364C264.693 370.03 264.252 369.545 263.926 368.909C263.604 368.273 263.443 367.5 263.443 366.591C263.443 365.697 263.6 364.919 263.915 364.256C264.229 363.589 264.667 363.074 265.227 362.71C265.788 362.343 266.436 362.159 267.17 362.159C267.739 362.159 268.189 362.254 268.523 362.443C268.86 362.629 269.117 362.841 269.295 363.08C269.477 363.314 269.617 363.508 269.716 363.659H269.852V362.273H271.148V371.25C271.148 372 270.977 372.61 270.636 373.08C270.299 373.553 269.845 373.9 269.273 374.119C268.705 374.343 268.072 374.455 267.375 374.455ZM267.33 369.659C267.867 369.659 268.322 369.536 268.693 369.29C269.064 369.044 269.347 368.689 269.54 368.227C269.733 367.765 269.83 367.212 269.83 366.568C269.83 365.939 269.735 365.384 269.545 364.903C269.356 364.422 269.076 364.045 268.705 363.773C268.333 363.5 267.875 363.364 267.33 363.364C266.761 363.364 266.288 363.508 265.909 363.795C265.534 364.083 265.252 364.47 265.062 364.955C264.877 365.439 264.784 365.977 264.784 366.568C264.784 367.174 264.879 367.71 265.068 368.176C265.261 368.638 265.545 369.002 265.92 369.267C266.299 369.528 266.769 369.659 267.33 369.659ZM273.602 371V362.273H274.898V363.591H274.989C275.148 363.159 275.436 362.809 275.852 362.54C276.269 362.271 276.739 362.136 277.261 362.136C277.36 362.136 277.483 362.138 277.631 362.142C277.778 362.146 277.89 362.152 277.966 362.159V363.523C277.92 363.511 277.816 363.494 277.653 363.472C277.494 363.445 277.326 363.432 277.148 363.432C276.723 363.432 276.345 363.521 276.011 363.699C275.682 363.873 275.42 364.116 275.227 364.426C275.038 364.733 274.943 365.083 274.943 365.477V371H273.602ZM282.124 371.205C281.571 371.205 281.069 371.1 280.618 370.892C280.167 370.68 279.809 370.375 279.544 369.977C279.279 369.576 279.146 369.091 279.146 368.523C279.146 368.023 279.245 367.617 279.442 367.307C279.639 366.992 279.902 366.746 280.232 366.568C280.561 366.39 280.925 366.258 281.322 366.17C281.724 366.08 282.127 366.008 282.533 365.955C283.063 365.886 283.493 365.835 283.822 365.801C284.156 365.763 284.398 365.701 284.55 365.614C284.705 365.527 284.783 365.375 284.783 365.159V365.114C284.783 364.553 284.629 364.117 284.322 363.807C284.019 363.496 283.559 363.341 282.942 363.341C282.302 363.341 281.8 363.481 281.436 363.761C281.072 364.042 280.817 364.341 280.669 364.659L279.396 364.205C279.624 363.674 279.927 363.261 280.305 362.966C280.688 362.667 281.105 362.458 281.555 362.341C282.01 362.22 282.457 362.159 282.896 362.159C283.177 362.159 283.499 362.193 283.862 362.261C284.23 362.326 284.584 362.46 284.925 362.665C285.269 362.869 285.555 363.178 285.783 363.591C286.01 364.004 286.124 364.557 286.124 365.25V371H284.783V369.818H284.714C284.624 370.008 284.472 370.21 284.26 370.426C284.048 370.642 283.766 370.826 283.413 370.977C283.061 371.129 282.631 371.205 282.124 371.205ZM282.328 370C282.858 370 283.305 369.896 283.669 369.688C284.036 369.479 284.313 369.21 284.499 368.881C284.688 368.551 284.783 368.205 284.783 367.841V366.614C284.726 366.682 284.601 366.744 284.408 366.801C284.218 366.854 283.999 366.902 283.749 366.943C283.502 366.981 283.262 367.015 283.027 367.045C282.796 367.072 282.608 367.095 282.464 367.114C282.116 367.159 281.79 367.233 281.487 367.335C281.188 367.434 280.946 367.583 280.76 367.784C280.578 367.981 280.487 368.25 280.487 368.591C280.487 369.057 280.66 369.409 281.004 369.648C281.353 369.883 281.794 370 282.328 370ZM292.366 362.273V363.409H287.844V362.273H292.366ZM289.162 360.182H290.503V368.5C290.503 368.879 290.558 369.163 290.668 369.352C290.781 369.538 290.925 369.663 291.099 369.727C291.277 369.788 291.465 369.818 291.662 369.818C291.81 369.818 291.931 369.811 292.026 369.795C292.12 369.777 292.196 369.761 292.253 369.75L292.526 370.955C292.435 370.989 292.308 371.023 292.145 371.057C291.982 371.095 291.776 371.114 291.526 371.114C291.147 371.114 290.776 371.032 290.412 370.869C290.052 370.706 289.753 370.458 289.514 370.125C289.279 369.792 289.162 369.371 289.162 368.864V360.182ZM294.384 371V362.273H295.724V371H294.384ZM295.065 360.818C294.804 360.818 294.579 360.729 294.389 360.551C294.204 360.373 294.111 360.159 294.111 359.909C294.111 359.659 294.204 359.445 294.389 359.267C294.579 359.089 294.804 359 295.065 359C295.327 359 295.55 359.089 295.736 359.267C295.925 359.445 296.02 359.659 296.02 359.909C296.02 360.159 295.925 360.373 295.736 360.551C295.55 360.729 295.327 360.818 295.065 360.818ZM301.726 371.182C300.938 371.182 300.247 370.994 299.652 370.619C299.061 370.244 298.599 369.72 298.266 369.045C297.936 368.371 297.771 367.583 297.771 366.682C297.771 365.773 297.936 364.979 298.266 364.301C298.599 363.623 299.061 363.097 299.652 362.722C300.247 362.347 300.938 362.159 301.726 362.159C302.514 362.159 303.203 362.347 303.794 362.722C304.389 363.097 304.851 363.623 305.18 364.301C305.514 364.979 305.68 365.773 305.68 366.682C305.68 367.583 305.514 368.371 305.18 369.045C304.851 369.72 304.389 370.244 303.794 370.619C303.203 370.994 302.514 371.182 301.726 371.182ZM301.726 369.977C302.324 369.977 302.817 369.824 303.203 369.517C303.589 369.21 303.875 368.807 304.061 368.307C304.247 367.807 304.339 367.265 304.339 366.682C304.339 366.098 304.247 365.555 304.061 365.051C303.875 364.547 303.589 364.14 303.203 363.83C302.817 363.519 302.324 363.364 301.726 363.364C301.127 363.364 300.635 363.519 300.249 363.83C299.862 364.14 299.576 364.547 299.391 365.051C299.205 365.555 299.112 366.098 299.112 366.682C299.112 367.265 299.205 367.807 299.391 368.307C299.576 368.807 299.862 369.21 300.249 369.517C300.635 369.824 301.127 369.977 301.726 369.977ZM309.068 365.75V371H307.727V362.273H309.023V363.636H309.136C309.341 363.193 309.652 362.837 310.068 362.568C310.485 362.295 311.023 362.159 311.682 362.159C312.273 362.159 312.79 362.28 313.233 362.523C313.676 362.761 314.021 363.125 314.267 363.614C314.513 364.098 314.636 364.712 314.636 365.455V371H313.295V365.545C313.295 364.86 313.117 364.326 312.761 363.943C312.405 363.557 311.917 363.364 311.295 363.364C310.867 363.364 310.485 363.456 310.148 363.642C309.814 363.828 309.551 364.098 309.358 364.455C309.165 364.811 309.068 365.242 309.068 365.75Z" fill="black"/>
<path d="M572.409 145V133.364H579.386V134.614H573.818V138.545H578.864V139.795H573.818V145H572.409ZM581.618 145V136.273H582.959V145H581.618ZM582.3 134.818C582.038 134.818 581.813 134.729 581.624 134.551C581.438 134.373 581.345 134.159 581.345 133.909C581.345 133.659 581.438 133.445 581.624 133.267C581.813 133.089 582.038 133 582.3 133C582.561 133 582.785 133.089 582.97 133.267C583.16 133.445 583.254 133.659 583.254 133.909C583.254 134.159 583.16 134.373 582.97 134.551C582.785 134.729 582.561 134.818 582.3 134.818ZM589.074 145.182C588.233 145.182 587.508 144.996 586.898 144.625C586.292 144.25 585.824 143.727 585.494 143.057C585.169 142.383 585.006 141.598 585.006 140.705C585.006 139.811 585.169 139.023 585.494 138.341C585.824 137.655 586.282 137.121 586.869 136.739C587.46 136.352 588.15 136.159 588.938 136.159C589.392 136.159 589.841 136.235 590.284 136.386C590.727 136.538 591.131 136.784 591.494 137.125C591.858 137.462 592.148 137.909 592.364 138.466C592.58 139.023 592.688 139.708 592.688 140.523V141.091H585.96V139.932H591.324C591.324 139.439 591.225 139 591.028 138.614C590.835 138.227 590.559 137.922 590.199 137.699C589.843 137.475 589.422 137.364 588.938 137.364C588.403 137.364 587.941 137.496 587.551 137.761C587.165 138.023 586.867 138.364 586.659 138.784C586.451 139.205 586.347 139.655 586.347 140.136V140.909C586.347 141.568 586.46 142.127 586.688 142.585C586.919 143.04 587.239 143.386 587.648 143.625C588.057 143.86 588.532 143.977 589.074 143.977C589.426 143.977 589.744 143.928 590.028 143.83C590.316 143.727 590.564 143.576 590.773 143.375C590.981 143.17 591.142 142.917 591.256 142.614L592.551 142.977C592.415 143.417 592.186 143.803 591.864 144.136C591.542 144.466 591.144 144.723 590.67 144.909C590.197 145.091 589.665 145.182 589.074 145.182ZM596.068 133.364V145H594.727V133.364H596.068ZM601.82 145.182C601.092 145.182 600.45 144.998 599.893 144.631C599.337 144.259 598.901 143.737 598.587 143.062C598.272 142.384 598.115 141.583 598.115 140.659C598.115 139.742 598.272 138.947 598.587 138.273C598.901 137.598 599.339 137.078 599.899 136.71C600.46 136.343 601.107 136.159 601.842 136.159C602.411 136.159 602.859 136.254 603.189 136.443C603.522 136.629 603.776 136.841 603.95 137.08C604.128 137.314 604.267 137.508 604.365 137.659H604.479V133.364H605.82V145H604.524V143.659H604.365C604.267 143.818 604.126 144.019 603.945 144.261C603.763 144.5 603.503 144.714 603.166 144.903C602.829 145.089 602.38 145.182 601.82 145.182ZM602.001 143.977C602.539 143.977 602.994 143.837 603.365 143.557C603.736 143.273 604.018 142.881 604.212 142.381C604.405 141.877 604.501 141.295 604.501 140.636C604.501 139.985 604.407 139.415 604.217 138.926C604.028 138.434 603.748 138.051 603.376 137.778C603.005 137.502 602.547 137.364 602.001 137.364C601.433 137.364 600.96 137.509 600.581 137.801C600.206 138.089 599.924 138.481 599.734 138.977C599.549 139.47 599.456 140.023 599.456 140.636C599.456 141.258 599.551 141.822 599.74 142.33C599.933 142.833 600.217 143.235 600.592 143.534C600.971 143.83 601.441 143.977 602.001 143.977Z" fill="black"/>
<path d="M193.409 485V473.364H197.477C198.288 473.364 198.956 473.504 199.483 473.784C200.009 474.061 200.402 474.434 200.659 474.903C200.917 475.369 201.045 475.886 201.045 476.455C201.045 476.955 200.956 477.367 200.778 477.693C200.604 478.019 200.373 478.277 200.085 478.466C199.801 478.655 199.492 478.795 199.159 478.886V479C199.515 479.023 199.873 479.148 200.233 479.375C200.593 479.602 200.894 479.928 201.136 480.352C201.379 480.777 201.5 481.295 201.5 481.909C201.5 482.492 201.367 483.017 201.102 483.483C200.837 483.949 200.419 484.318 199.847 484.591C199.275 484.864 198.53 485 197.614 485H193.409ZM194.818 483.75H197.614C198.534 483.75 199.188 483.572 199.574 483.216C199.964 482.856 200.159 482.42 200.159 481.909C200.159 481.515 200.059 481.152 199.858 480.818C199.657 480.481 199.371 480.212 199 480.011C198.629 479.807 198.189 479.705 197.682 479.705H194.818V483.75ZM194.818 478.477H197.432C197.856 478.477 198.239 478.394 198.58 478.227C198.924 478.061 199.197 477.826 199.398 477.523C199.602 477.22 199.705 476.864 199.705 476.455C199.705 475.943 199.527 475.509 199.17 475.153C198.814 474.794 198.25 474.614 197.477 474.614H194.818V478.477ZM203.634 485V476.273H204.929V477.591H205.02C205.179 477.159 205.467 476.809 205.884 476.54C206.3 476.271 206.77 476.136 207.293 476.136C207.391 476.136 207.514 476.138 207.662 476.142C207.81 476.146 207.921 476.152 207.997 476.159V477.523C207.952 477.511 207.848 477.494 207.685 477.472C207.526 477.445 207.357 477.432 207.179 477.432C206.755 477.432 206.376 477.521 206.043 477.699C205.713 477.873 205.452 478.116 205.259 478.426C205.069 478.733 204.974 479.083 204.974 479.477V485H203.634ZM209.587 485V476.273H210.928V485H209.587ZM210.268 474.818C210.007 474.818 209.782 474.729 209.592 474.551C209.407 474.373 209.314 474.159 209.314 473.909C209.314 473.659 209.407 473.445 209.592 473.267C209.782 473.089 210.007 473 210.268 473C210.53 473 210.753 473.089 210.939 473.267C211.128 473.445 211.223 473.659 211.223 473.909C211.223 474.159 211.128 474.373 210.939 474.551C210.753 474.729 210.53 474.818 210.268 474.818ZM214.724 479.75V485H213.384V476.273H214.679V477.636H214.793C214.997 477.193 215.308 476.837 215.724 476.568C216.141 476.295 216.679 476.159 217.338 476.159C217.929 476.159 218.446 476.28 218.889 476.523C219.332 476.761 219.677 477.125 219.923 477.614C220.17 478.098 220.293 478.712 220.293 479.455V485H218.952V479.545C218.952 478.86 218.774 478.326 218.418 477.943C218.062 477.557 217.573 477.364 216.952 477.364C216.524 477.364 216.141 477.456 215.804 477.642C215.471 477.828 215.207 478.098 215.014 478.455C214.821 478.811 214.724 479.242 214.724 479.75ZM226.266 488.455C225.618 488.455 225.061 488.371 224.595 488.205C224.129 488.042 223.741 487.826 223.43 487.557C223.124 487.292 222.879 487.008 222.697 486.705L223.766 485.955C223.887 486.114 224.04 486.295 224.226 486.5C224.411 486.708 224.665 486.888 224.987 487.04C225.313 487.195 225.739 487.273 226.266 487.273C226.97 487.273 227.552 487.102 228.01 486.761C228.468 486.42 228.697 485.886 228.697 485.159V483.386H228.584C228.485 483.545 228.345 483.742 228.163 483.977C227.985 484.208 227.728 484.415 227.391 484.597C227.057 484.775 226.607 484.864 226.038 484.864C225.334 484.864 224.701 484.697 224.141 484.364C223.584 484.03 223.143 483.545 222.817 482.909C222.495 482.273 222.334 481.5 222.334 480.591C222.334 479.697 222.491 478.919 222.805 478.256C223.12 477.589 223.557 477.074 224.118 476.71C224.679 476.343 225.326 476.159 226.061 476.159C226.629 476.159 227.08 476.254 227.413 476.443C227.75 476.629 228.008 476.841 228.186 477.08C228.368 477.314 228.508 477.508 228.607 477.659H228.743V476.273H230.038V485.25C230.038 486 229.868 486.61 229.527 487.08C229.19 487.553 228.735 487.9 228.163 488.119C227.595 488.343 226.963 488.455 226.266 488.455ZM226.22 483.659C226.758 483.659 227.213 483.536 227.584 483.29C227.955 483.044 228.237 482.689 228.43 482.227C228.624 481.765 228.72 481.212 228.72 480.568C228.72 479.939 228.625 479.384 228.436 478.903C228.247 478.422 227.966 478.045 227.595 477.773C227.224 477.5 226.766 477.364 226.22 477.364C225.652 477.364 225.179 477.508 224.8 477.795C224.425 478.083 224.143 478.47 223.953 478.955C223.768 479.439 223.675 479.977 223.675 480.568C223.675 481.174 223.769 481.71 223.959 482.176C224.152 482.638 224.436 483.002 224.811 483.267C225.19 483.528 225.66 483.659 226.22 483.659ZM237.493 479.386V480.636H232.402V479.386H237.493ZM245.352 481.432V476.273H246.693V485H245.352V483.523H245.261C245.057 483.966 244.739 484.343 244.307 484.653C243.875 484.96 243.33 485.114 242.67 485.114C242.125 485.114 241.64 484.994 241.216 484.756C240.792 484.513 240.458 484.15 240.216 483.665C239.973 483.176 239.852 482.561 239.852 481.818V476.273H241.193V481.727C241.193 482.364 241.371 482.871 241.727 483.25C242.087 483.629 242.545 483.818 243.102 483.818C243.436 483.818 243.775 483.733 244.119 483.562C244.468 483.392 244.759 483.131 244.994 482.778C245.233 482.426 245.352 481.977 245.352 481.432ZM249.149 488.273V476.273H250.445V477.659H250.604C250.702 477.508 250.839 477.314 251.013 477.08C251.191 476.841 251.445 476.629 251.774 476.443C252.107 476.254 252.558 476.159 253.126 476.159C253.861 476.159 254.509 476.343 255.07 476.71C255.63 477.078 256.068 477.598 256.382 478.273C256.696 478.947 256.854 479.742 256.854 480.659C256.854 481.583 256.696 482.384 256.382 483.062C256.068 483.737 255.632 484.259 255.075 484.631C254.518 484.998 253.876 485.182 253.149 485.182C252.589 485.182 252.14 485.089 251.803 484.903C251.465 484.714 251.206 484.5 251.024 484.261C250.842 484.019 250.702 483.818 250.604 483.659H250.49V488.273H249.149ZM250.467 480.636C250.467 481.295 250.564 481.877 250.757 482.381C250.95 482.881 251.232 483.273 251.604 483.557C251.975 483.837 252.429 483.977 252.967 483.977C253.528 483.977 253.996 483.83 254.371 483.534C254.75 483.235 255.034 482.833 255.223 482.33C255.416 481.822 255.513 481.258 255.513 480.636C255.513 480.023 255.418 479.47 255.229 478.977C255.043 478.481 254.761 478.089 254.382 477.801C254.007 477.509 253.536 477.364 252.967 477.364C252.422 477.364 251.964 477.502 251.592 477.778C251.221 478.051 250.941 478.434 250.751 478.926C250.562 479.415 250.467 479.985 250.467 480.636Z" fill="black"/>
<path d="M662.707 597.707C663.098 597.317 663.098 596.683 662.707 596.293L656.343 589.929C655.953 589.538 655.319 589.538 654.929 589.929C654.538 590.319 654.538 590.953 654.929 591.343L660.586 597L654.929 602.657C654.538 603.047 654.538 603.681 654.929 604.071C655.319 604.462 655.953 604.462 656.343 604.071L662.707 597.707ZM62 598H662V596H62V598Z" fill="black"/>
<path d="M62.7071 34.2929C62.3166 33.9024 61.6834 33.9024 61.2929 34.2929L54.9289 40.6569C54.5384 41.0474 54.5384 41.6805 54.9289 42.0711C55.3195 42.4616 55.9526 42.4616 56.3431 42.0711L62 36.4142L67.6569 42.0711C68.0474 42.4616 68.6805 42.4616 69.0711 42.0711C69.4616 41.6805 69.4616 41.0474 69.0711 40.6569L62.7071 34.2929ZM63 597L63 35H61L61 597H63Z" fill="black"/>
</svg>
