<svg width="681" height="666" viewBox="0 0 681 666" fill="none" xmlns="http://www.w3.org/2000/svg">
<rect width="681" height="666" fill="white"/>
<path d="M595.409 626V614.364H599.341C600.254 614.364 601 614.528 601.58 614.858C602.163 615.184 602.595 615.625 602.875 616.182C603.155 616.739 603.295 617.36 603.295 618.045C603.295 618.731 603.155 619.354 602.875 619.915C602.598 620.475 602.17 620.922 601.591 621.256C601.011 621.585 600.269 621.75 599.364 621.75H596.545V620.5H599.318C599.943 620.5 600.445 620.392 600.824 620.176C601.203 619.96 601.477 619.669 601.648 619.301C601.822 618.93 601.909 618.511 601.909 618.045C601.909 617.58 601.822 617.163 601.648 616.795C601.477 616.428 601.201 616.14 600.818 615.932C600.436 615.72 599.928 615.614 599.295 615.614H596.818V626H595.409ZM606.724 620.75V626H605.384V614.364H606.724V618.636H606.838C607.043 618.186 607.349 617.828 607.759 617.562C608.171 617.294 608.721 617.159 609.406 617.159C610.001 617.159 610.522 617.278 610.969 617.517C611.416 617.752 611.762 618.114 612.009 618.602C612.259 619.087 612.384 619.705 612.384 620.455V626H611.043V620.545C611.043 619.852 610.863 619.316 610.503 618.938C610.147 618.555 609.652 618.364 609.02 618.364C608.58 618.364 608.187 618.456 607.838 618.642C607.493 618.828 607.221 619.098 607.02 619.455C606.823 619.811 606.724 620.242 606.724 620.75ZM617.405 626.205C616.852 626.205 616.35 626.1 615.899 625.892C615.448 625.68 615.09 625.375 614.825 624.977C614.56 624.576 614.428 624.091 614.428 623.523C614.428 623.023 614.526 622.617 614.723 622.307C614.92 621.992 615.183 621.746 615.513 621.568C615.842 621.39 616.206 621.258 616.604 621.17C617.005 621.08 617.409 621.008 617.814 620.955C618.344 620.886 618.774 620.835 619.104 620.801C619.437 620.763 619.679 620.701 619.831 620.614C619.986 620.527 620.064 620.375 620.064 620.159V620.114C620.064 619.553 619.911 619.117 619.604 618.807C619.301 618.496 618.84 618.341 618.223 618.341C617.583 618.341 617.081 618.481 616.717 618.761C616.354 619.042 616.098 619.341 615.95 619.659L614.678 619.205C614.905 618.674 615.208 618.261 615.587 617.966C615.969 617.667 616.386 617.458 616.837 617.341C617.291 617.22 617.738 617.159 618.178 617.159C618.458 617.159 618.78 617.193 619.143 617.261C619.511 617.326 619.865 617.46 620.206 617.665C620.551 617.869 620.837 618.178 621.064 618.591C621.291 619.004 621.405 619.557 621.405 620.25V626H620.064V624.818H619.996C619.905 625.008 619.753 625.21 619.541 625.426C619.329 625.642 619.047 625.826 618.695 625.977C618.342 626.129 617.912 626.205 617.405 626.205ZM617.609 625C618.14 625 618.587 624.896 618.95 624.688C619.318 624.479 619.594 624.21 619.78 623.881C619.969 623.551 620.064 623.205 620.064 622.841V621.614C620.007 621.682 619.882 621.744 619.689 621.801C619.5 621.854 619.28 621.902 619.03 621.943C618.784 621.981 618.543 622.015 618.308 622.045C618.077 622.072 617.89 622.095 617.746 622.114C617.397 622.159 617.071 622.233 616.768 622.335C616.469 622.434 616.227 622.583 616.041 622.784C615.859 622.981 615.768 623.25 615.768 623.591C615.768 624.057 615.941 624.409 616.286 624.648C616.634 624.883 617.075 625 617.609 625ZM630.034 619.227L628.83 619.568C628.754 619.367 628.642 619.172 628.494 618.983C628.35 618.79 628.153 618.631 627.903 618.506C627.653 618.381 627.333 618.318 626.943 618.318C626.409 618.318 625.964 618.441 625.608 618.688C625.256 618.93 625.08 619.239 625.08 619.614C625.08 619.947 625.201 620.21 625.443 620.403C625.686 620.597 626.064 620.758 626.58 620.886L627.875 621.205C628.655 621.394 629.237 621.684 629.619 622.074C630.002 622.46 630.193 622.958 630.193 623.568C630.193 624.068 630.049 624.515 629.761 624.909C629.477 625.303 629.08 625.614 628.568 625.841C628.057 626.068 627.462 626.182 626.784 626.182C625.894 626.182 625.157 625.989 624.574 625.602C623.991 625.216 623.621 624.652 623.466 623.909L624.739 623.591C624.86 624.061 625.089 624.413 625.426 624.648C625.767 624.883 626.212 625 626.761 625C627.386 625 627.883 624.867 628.25 624.602C628.621 624.333 628.807 624.011 628.807 623.636C628.807 623.333 628.701 623.08 628.489 622.875C628.277 622.667 627.951 622.511 627.511 622.409L626.057 622.068C625.258 621.879 624.67 621.585 624.295 621.188C623.924 620.786 623.739 620.284 623.739 619.682C623.739 619.189 623.877 618.754 624.153 618.375C624.434 617.996 624.814 617.699 625.295 617.483C625.78 617.267 626.33 617.159 626.943 617.159C627.807 617.159 628.485 617.348 628.977 617.727C629.473 618.106 629.826 618.606 630.034 619.227ZM635.871 626.182C635.03 626.182 634.304 625.996 633.695 625.625C633.089 625.25 632.621 624.727 632.291 624.057C631.965 623.383 631.803 622.598 631.803 621.705C631.803 620.811 631.965 620.023 632.291 619.341C632.621 618.655 633.079 618.121 633.666 617.739C634.257 617.352 634.946 617.159 635.734 617.159C636.189 617.159 636.638 617.235 637.081 617.386C637.524 617.538 637.928 617.784 638.291 618.125C638.655 618.462 638.945 618.909 639.161 619.466C639.376 620.023 639.484 620.708 639.484 621.523V622.091H632.757V620.932H638.121C638.121 620.439 638.022 620 637.825 619.614C637.632 619.227 637.356 618.922 636.996 618.699C636.64 618.475 636.219 618.364 635.734 618.364C635.2 618.364 634.738 618.496 634.348 618.761C633.962 619.023 633.664 619.364 633.456 619.784C633.248 620.205 633.143 620.655 633.143 621.136V621.909C633.143 622.568 633.257 623.127 633.484 623.585C633.715 624.04 634.036 624.386 634.445 624.625C634.854 624.86 635.329 624.977 635.871 624.977C636.223 624.977 636.541 624.928 636.825 624.83C637.113 624.727 637.361 624.576 637.57 624.375C637.778 624.17 637.939 623.917 638.053 623.614L639.348 623.977C639.212 624.417 638.982 624.803 638.661 625.136C638.339 625.466 637.941 625.723 637.467 625.909C636.994 626.091 636.462 626.182 635.871 626.182Z" fill="black"/>
<path d="M37 110.591H25.3636L25.3636 103.614H26.6136V109.182H30.5455V104.136H31.7955V109.182H37V110.591ZM37 101.382H28.2727V100.041H37V101.382ZM26.8182 100.7C26.8182 100.962 26.7292 101.187 26.5511 101.376C26.3731 101.562 26.1591 101.655 25.9091 101.655C25.6591 101.655 25.4451 101.562 25.267 101.376C25.089 101.187 25 100.962 25 100.7C25 100.439 25.089 100.215 25.267 100.03C25.4451 99.8404 25.6591 99.7457 25.9091 99.7457C26.1591 99.7457 26.3731 99.8404 26.5511 100.03C26.7292 100.215 26.8182 100.439 26.8182 100.7ZM37.1818 94.2898C37.1818 95.017 36.9981 95.6591 36.6307 96.2159C36.2595 96.7727 35.7367 97.2083 35.0625 97.5227C34.3845 97.8371 33.5833 97.9943 32.6591 97.9943C31.7424 97.9943 30.947 97.8371 30.2727 97.5227C29.5985 97.2083 29.0777 96.7708 28.7102 96.2102C28.3428 95.6496 28.1591 95.0019 28.1591 94.267C28.1591 93.6989 28.2538 93.25 28.4432 92.9205C28.6288 92.5871 28.8409 92.3333 29.0795 92.1591C29.3144 91.9811 29.5076 91.8428 29.6591 91.7443V91.6307H25.3636V90.2898H37V91.5852H35.6591V91.7443C35.8182 91.8428 36.0189 91.983 36.2614 92.1648C36.5 92.3466 36.714 92.6061 36.9034 92.9432C37.089 93.2803 37.1818 93.7292 37.1818 94.2898ZM35.9773 94.108C35.9773 93.5701 35.8371 93.1155 35.5568 92.7443C35.2727 92.3731 34.8807 92.0909 34.3807 91.8977C33.8769 91.7045 33.2955 91.608 32.6364 91.608C31.9848 91.608 31.4148 91.7027 30.9261 91.892C30.4337 92.0814 30.0511 92.3617 29.7784 92.733C29.5019 93.1042 29.3636 93.5625 29.3636 94.108C29.3636 94.6761 29.5095 95.1496 29.8011 95.5284C30.089 95.9034 30.4811 96.1856 30.9773 96.375C31.4697 96.5606 32.0227 96.6534 32.6364 96.6534C33.2576 96.6534 33.822 96.5587 34.3295 96.3693C34.8333 96.1761 35.2348 95.892 35.5341 95.517C35.8295 95.1383 35.9773 94.6686 35.9773 94.108ZM37.1818 83.9886C37.1818 84.8295 36.9962 85.5549 36.625 86.1648C36.25 86.7708 35.7273 87.2386 35.0568 87.5682C34.3826 87.8939 33.5985 88.0568 32.7045 88.0568C31.8106 88.0568 31.0227 87.8939 30.3409 87.5682C29.6553 87.2386 29.1212 86.7803 28.7386 86.1932C28.3523 85.6023 28.1591 84.9129 28.1591 84.125C28.1591 83.6705 28.2348 83.2216 28.3864 82.7784C28.5379 82.3352 28.7841 81.9318 29.125 81.5682C29.4621 81.2045 29.9091 80.9148 30.4659 80.6989C31.0227 80.483 31.7083 80.375 32.5227 80.375H33.0909V87.1023H31.9318V81.7386C31.4394 81.7386 31 81.8371 30.6136 82.0341C30.2273 82.2273 29.9223 82.5038 29.6989 82.8636C29.4754 83.2197 29.3636 83.6402 29.3636 84.125C29.3636 84.6591 29.4962 85.1212 29.7614 85.5114C30.0227 85.8977 30.3636 86.1951 30.7841 86.4034C31.2045 86.6117 31.6553 86.7159 32.1364 86.7159H32.9091C33.5682 86.7159 34.1269 86.6023 34.5852 86.375C35.0398 86.1439 35.3864 85.8239 35.625 85.4148C35.8598 85.0057 35.9773 84.5303 35.9773 83.9886C35.9773 83.6364 35.928 83.3182 35.8295 83.0341C35.7273 82.7462 35.5758 82.4981 35.375 82.2898C35.1705 82.0814 34.9167 81.9205 34.6136 81.8068L34.9773 80.5114C35.4167 80.6477 35.803 80.8769 36.1364 81.1989C36.4659 81.5208 36.7235 81.9186 36.9091 82.392C37.0909 82.8655 37.1818 83.3977 37.1818 83.9886ZM25.3636 76.9943H37V78.3352H25.3636V76.9943ZM37 74.5384H28.2727V73.1974H37L37 74.5384ZM26.8182 73.8565C26.8182 74.1179 26.7292 74.3433 26.5511 74.5327C26.3731 74.7183 26.1591 74.8111 25.9091 74.8111C25.6591 74.8111 25.4451 74.7183 25.267 74.5327C25.089 74.3433 25 74.1179 25 73.8565C25 73.5952 25.089 73.3717 25.267 73.1861C25.4451 72.9967 25.6591 72.902 25.9091 72.902C26.1591 72.902 26.3731 72.9967 26.5511 73.1861C26.7292 73.3717 26.8182 73.5952 26.8182 73.8565ZM28.2727 66.946H29.4091V71.4688H28.2727V66.946ZM26.1818 70.1506V68.8097H34.5C34.8788 68.8097 35.1629 68.7547 35.3523 68.6449C35.5379 68.5312 35.6629 68.3873 35.7273 68.2131C35.7879 68.035 35.8182 67.8475 35.8182 67.6506C35.8182 67.5028 35.8106 67.3816 35.7955 67.2869C35.7765 67.1922 35.7614 67.1165 35.75 67.0597L36.9545 66.7869C36.9886 66.8778 37.0227 67.0047 37.0568 67.1676C37.0947 67.3305 37.1136 67.5369 37.1136 67.7869C37.1136 68.1657 37.0322 68.5369 36.8693 68.9006C36.7064 69.2604 36.4583 69.5597 36.125 69.7983C35.7917 70.0331 35.3712 70.1506 34.8636 70.1506H26.1818ZM40.2727 64.0653C40.2727 64.2926 40.2538 64.4953 40.2159 64.6733C40.1818 64.8513 40.1477 64.9744 40.1136 65.0426L38.9318 64.7017C39.0152 64.3759 39.0455 64.0881 39.0227 63.8381C39 63.5881 38.8883 63.3665 38.6875 63.1733C38.4905 62.9763 38.1705 62.7964 37.7273 62.6335L37.0455 62.3835L28.2727 65.6108L28.2727 64.1562L35.2273 61.7472V61.6562L28.2727 59.2472V57.7926L38.2727 61.4972C38.7235 61.6638 39.0966 61.8703 39.392 62.1165C39.6913 62.3627 39.9129 62.6487 40.0568 62.9744C40.2008 63.2964 40.2727 63.66 40.2727 64.0653Z" fill="black"/>
<path d="M125.409 536V524.364H126.818V534.75H132.227V536H125.409ZM136.795 536.205C136.242 536.205 135.741 536.1 135.29 535.892C134.839 535.68 134.481 535.375 134.216 534.977C133.951 534.576 133.818 534.091 133.818 533.523C133.818 533.023 133.917 532.617 134.114 532.307C134.311 531.992 134.574 531.746 134.903 531.568C135.233 531.39 135.597 531.258 135.994 531.17C136.396 531.08 136.799 531.008 137.205 530.955C137.735 530.886 138.165 530.835 138.494 530.801C138.828 530.763 139.07 530.701 139.222 530.614C139.377 530.527 139.455 530.375 139.455 530.159V530.114C139.455 529.553 139.301 529.117 138.994 528.807C138.691 528.496 138.231 528.341 137.614 528.341C136.973 528.341 136.472 528.481 136.108 528.761C135.744 529.042 135.489 529.341 135.341 529.659L134.068 529.205C134.295 528.674 134.598 528.261 134.977 527.966C135.36 527.667 135.777 527.458 136.227 527.341C136.682 527.22 137.129 527.159 137.568 527.159C137.848 527.159 138.17 527.193 138.534 527.261C138.902 527.326 139.256 527.46 139.597 527.665C139.941 527.869 140.227 528.178 140.455 528.591C140.682 529.004 140.795 529.557 140.795 530.25V536H139.455V534.818H139.386C139.295 535.008 139.144 535.21 138.932 535.426C138.72 535.642 138.438 535.826 138.085 535.977C137.733 536.129 137.303 536.205 136.795 536.205ZM137 535C137.53 535 137.977 534.896 138.341 534.688C138.708 534.479 138.985 534.21 139.17 533.881C139.36 533.551 139.455 533.205 139.455 532.841V531.614C139.398 531.682 139.273 531.744 139.08 531.801C138.89 531.854 138.67 531.902 138.42 531.943C138.174 531.981 137.934 532.015 137.699 532.045C137.468 532.072 137.28 532.095 137.136 532.114C136.788 532.159 136.462 532.233 136.159 532.335C135.86 532.434 135.617 532.583 135.432 532.784C135.25 532.981 135.159 533.25 135.159 533.591C135.159 534.057 135.331 534.409 135.676 534.648C136.025 534.883 136.466 535 137 535ZM143.425 536V524.364H144.766V528.659H144.879C144.978 528.508 145.114 528.314 145.288 528.08C145.466 527.841 145.72 527.629 146.05 527.443C146.383 527.254 146.834 527.159 147.402 527.159C148.137 527.159 148.785 527.343 149.345 527.71C149.906 528.078 150.343 528.598 150.658 529.273C150.972 529.947 151.129 530.742 151.129 531.659C151.129 532.583 150.972 533.384 150.658 534.062C150.343 534.737 149.908 535.259 149.351 535.631C148.794 535.998 148.152 536.182 147.425 536.182C146.864 536.182 146.415 536.089 146.078 535.903C145.741 535.714 145.482 535.5 145.3 535.261C145.118 535.019 144.978 534.818 144.879 534.659H144.72V536H143.425ZM144.743 531.636C144.743 532.295 144.839 532.877 145.033 533.381C145.226 533.881 145.508 534.273 145.879 534.557C146.25 534.837 146.705 534.977 147.243 534.977C147.804 534.977 148.271 534.83 148.646 534.534C149.025 534.235 149.309 533.833 149.499 533.33C149.692 532.822 149.788 532.258 149.788 531.636C149.788 531.023 149.694 530.47 149.504 529.977C149.319 529.481 149.036 529.089 148.658 528.801C148.283 528.509 147.811 528.364 147.243 528.364C146.697 528.364 146.239 528.502 145.868 528.778C145.497 529.051 145.216 529.434 145.027 529.926C144.838 530.415 144.743 530.985 144.743 531.636ZM157.862 536V524.364H161.93C162.741 524.364 163.41 524.504 163.936 524.784C164.463 525.061 164.855 525.434 165.112 525.903C165.37 526.369 165.499 526.886 165.499 527.455C165.499 527.955 165.41 528.367 165.232 528.693C165.057 529.019 164.826 529.277 164.538 529.466C164.254 529.655 163.946 529.795 163.612 529.886V530C163.968 530.023 164.326 530.148 164.686 530.375C165.046 530.602 165.347 530.928 165.589 531.352C165.832 531.777 165.953 532.295 165.953 532.909C165.953 533.492 165.821 534.017 165.555 534.483C165.29 534.949 164.872 535.318 164.3 535.591C163.728 535.864 162.983 536 162.067 536H157.862ZM159.271 534.75H162.067C162.987 534.75 163.641 534.572 164.027 534.216C164.417 533.856 164.612 533.42 164.612 532.909C164.612 532.515 164.512 532.152 164.311 531.818C164.11 531.481 163.824 531.212 163.453 531.011C163.082 530.807 162.643 530.705 162.135 530.705H159.271V534.75ZM159.271 529.477H161.885C162.309 529.477 162.692 529.394 163.033 529.227C163.377 529.061 163.65 528.826 163.851 528.523C164.055 528.22 164.158 527.864 164.158 527.455C164.158 526.943 163.98 526.509 163.624 526.153C163.268 525.794 162.703 525.614 161.93 525.614H159.271V529.477ZM171.746 536.182C170.905 536.182 170.179 535.996 169.57 535.625C168.964 535.25 168.496 534.727 168.166 534.057C167.84 533.383 167.678 532.598 167.678 531.705C167.678 530.811 167.84 530.023 168.166 529.341C168.496 528.655 168.954 528.121 169.541 527.739C170.132 527.352 170.821 527.159 171.609 527.159C172.064 527.159 172.513 527.235 172.956 527.386C173.399 527.538 173.803 527.784 174.166 528.125C174.53 528.462 174.82 528.909 175.036 529.466C175.251 530.023 175.359 530.708 175.359 531.523V532.091H168.632V530.932H173.996C173.996 530.439 173.897 530 173.7 529.614C173.507 529.227 173.231 528.922 172.871 528.699C172.515 528.475 172.094 528.364 171.609 528.364C171.075 528.364 170.613 528.496 170.223 528.761C169.837 529.023 169.539 529.364 169.331 529.784C169.123 530.205 169.018 530.655 169.018 531.136V531.909C169.018 532.568 169.132 533.127 169.359 533.585C169.59 534.04 169.911 534.386 170.32 534.625C170.729 534.86 171.204 534.977 171.746 534.977C172.098 534.977 172.416 534.928 172.7 534.83C172.988 534.727 173.236 534.576 173.445 534.375C173.653 534.17 173.814 533.917 173.928 533.614L175.223 533.977C175.087 534.417 174.857 534.803 174.536 535.136C174.214 535.466 173.816 535.723 173.342 535.909C172.869 536.091 172.337 536.182 171.746 536.182ZM178.74 530.75V536H177.399V527.273H178.695V528.636H178.808C179.013 528.193 179.323 527.837 179.74 527.568C180.157 527.295 180.695 527.159 181.354 527.159C181.945 527.159 182.462 527.28 182.905 527.523C183.348 527.761 183.693 528.125 183.939 528.614C184.185 529.098 184.308 529.712 184.308 530.455V536H182.967V530.545C182.967 529.86 182.789 529.326 182.433 528.943C182.077 528.557 181.589 528.364 180.967 528.364C180.539 528.364 180.157 528.456 179.82 528.642C179.486 528.828 179.223 529.098 179.03 529.455C178.837 529.811 178.74 530.242 178.74 530.75ZM190.304 536.182C189.486 536.182 188.781 535.989 188.19 535.602C187.599 535.216 187.145 534.684 186.827 534.006C186.509 533.328 186.349 532.553 186.349 531.682C186.349 530.795 186.512 530.013 186.838 529.335C187.168 528.653 187.626 528.121 188.213 527.739C188.804 527.352 189.493 527.159 190.281 527.159C190.895 527.159 191.448 527.273 191.94 527.5C192.433 527.727 192.836 528.045 193.151 528.455C193.465 528.864 193.66 529.341 193.736 529.886H192.395C192.293 529.489 192.065 529.136 191.713 528.83C191.365 528.519 190.895 528.364 190.304 528.364C189.781 528.364 189.323 528.5 188.929 528.773C188.539 529.042 188.234 529.422 188.014 529.915C187.798 530.403 187.69 530.977 187.69 531.636C187.69 532.311 187.796 532.898 188.009 533.398C188.224 533.898 188.527 534.286 188.918 534.562C189.312 534.839 189.774 534.977 190.304 534.977C190.652 534.977 190.969 534.917 191.253 534.795C191.537 534.674 191.777 534.5 191.974 534.273C192.171 534.045 192.312 533.773 192.395 533.455H193.736C193.66 533.97 193.473 534.434 193.173 534.847C192.878 535.256 192.486 535.581 191.997 535.824C191.512 536.062 190.948 536.182 190.304 536.182ZM197.037 530.75V536H195.696V524.364H197.037V528.636H197.151C197.355 528.186 197.662 527.828 198.071 527.562C198.484 527.294 199.033 527.159 199.719 527.159C200.313 527.159 200.834 527.278 201.281 527.517C201.728 527.752 202.075 528.114 202.321 528.602C202.571 529.087 202.696 529.705 202.696 530.455V536H201.355V530.545C201.355 529.852 201.175 529.316 200.815 528.938C200.459 528.555 199.965 528.364 199.332 528.364C198.893 528.364 198.499 528.456 198.151 528.642C197.806 528.828 197.533 529.098 197.332 529.455C197.135 529.811 197.037 530.242 197.037 530.75Z" fill="black"/>
<path d="M241.773 419H240.364C240.28 418.595 240.134 418.239 239.926 417.932C239.722 417.625 239.472 417.367 239.176 417.159C238.884 416.947 238.561 416.788 238.205 416.682C237.848 416.576 237.477 416.523 237.091 416.523C236.386 416.523 235.748 416.701 235.176 417.057C234.608 417.413 234.155 417.938 233.818 418.631C233.485 419.324 233.318 420.174 233.318 421.182C233.318 422.189 233.485 423.04 233.818 423.733C234.155 424.426 234.608 424.951 235.176 425.307C235.748 425.663 236.386 425.841 237.091 425.841C237.477 425.841 237.848 425.788 238.205 425.682C238.561 425.576 238.884 425.419 239.176 425.21C239.472 424.998 239.722 424.739 239.926 424.432C240.134 424.121 240.28 423.765 240.364 423.364H241.773C241.667 423.958 241.473 424.491 241.193 424.96C240.913 425.43 240.564 425.83 240.148 426.159C239.731 426.485 239.263 426.733 238.744 426.903C238.229 427.074 237.678 427.159 237.091 427.159C236.098 427.159 235.216 426.917 234.443 426.432C233.67 425.947 233.063 425.258 232.619 424.364C232.176 423.47 231.955 422.409 231.955 421.182C231.955 419.955 232.176 418.894 232.619 418C233.063 417.106 233.67 416.417 234.443 415.932C235.216 415.447 236.098 415.205 237.091 415.205C237.678 415.205 238.229 415.29 238.744 415.46C239.263 415.631 239.731 415.881 240.148 416.21C240.564 416.536 240.913 416.934 241.193 417.403C241.473 417.869 241.667 418.402 241.773 419ZM245.459 415.364V427H244.05V415.364H245.459ZM256.716 414.818L252.966 428.75H251.739L255.489 414.818H256.716ZM262.987 427V415.364H264.396V420.545H270.601V415.364H272.01V427H270.601V421.795H264.396V427H262.987ZM274.649 427V418.273H275.99V427H274.649ZM275.331 416.818C275.07 416.818 274.844 416.729 274.655 416.551C274.469 416.373 274.376 416.159 274.376 415.909C274.376 415.659 274.469 415.445 274.655 415.267C274.844 415.089 275.07 415 275.331 415C275.592 415 275.816 415.089 276.001 415.267C276.191 415.445 276.286 415.659 276.286 415.909C276.286 416.159 276.191 416.373 276.001 416.551C275.816 416.729 275.592 416.818 275.331 416.818ZM278.628 427V415.364H280.037V425.75H285.446V427H278.628Z" fill="black"/>
<path d="M132.409 257V245.364H136.341C137.25 245.364 137.996 245.519 138.58 245.83C139.163 246.136 139.595 246.559 139.875 247.097C140.155 247.634 140.295 248.246 140.295 248.932C140.295 249.617 140.155 250.225 139.875 250.756C139.595 251.286 139.165 251.703 138.585 252.006C138.006 252.305 137.265 252.455 136.364 252.455H133.182V251.182H136.318C136.939 251.182 137.439 251.091 137.818 250.909C138.201 250.727 138.477 250.47 138.648 250.136C138.822 249.799 138.909 249.398 138.909 248.932C138.909 248.466 138.822 248.059 138.648 247.71C138.473 247.362 138.195 247.093 137.812 246.903C137.43 246.71 136.924 246.614 136.295 246.614H133.818V257H132.409ZM137.886 251.773L140.75 257H139.114L136.295 251.773H137.886ZM146.027 257.182C145.186 257.182 144.461 256.996 143.851 256.625C143.245 256.25 142.777 255.727 142.447 255.057C142.122 254.383 141.959 253.598 141.959 252.705C141.959 251.811 142.122 251.023 142.447 250.341C142.777 249.655 143.235 249.121 143.822 248.739C144.413 248.352 145.103 248.159 145.891 248.159C146.345 248.159 146.794 248.235 147.237 248.386C147.68 248.538 148.084 248.784 148.447 249.125C148.811 249.462 149.101 249.909 149.317 250.466C149.533 251.023 149.641 251.708 149.641 252.523V253.091H142.913V251.932H148.277C148.277 251.439 148.179 251 147.982 250.614C147.788 250.227 147.512 249.922 147.152 249.699C146.796 249.475 146.375 249.364 145.891 249.364C145.357 249.364 144.894 249.496 144.504 249.761C144.118 250.023 143.821 250.364 143.612 250.784C143.404 251.205 143.3 251.655 143.3 252.136V252.909C143.3 253.568 143.413 254.127 143.641 254.585C143.872 255.04 144.192 255.386 144.601 255.625C145.01 255.86 145.485 255.977 146.027 255.977C146.379 255.977 146.697 255.928 146.982 255.83C147.269 255.727 147.518 255.576 147.726 255.375C147.934 255.17 148.095 254.917 148.209 254.614L149.504 254.977C149.368 255.417 149.139 255.803 148.817 256.136C148.495 256.466 148.097 256.723 147.624 256.909C147.15 257.091 146.618 257.182 146.027 257.182ZM153.021 245.364V257H151.68V245.364H153.021ZM155.477 257V248.273H156.818V257H155.477ZM156.159 246.818C155.898 246.818 155.672 246.729 155.483 246.551C155.297 246.373 155.205 246.159 155.205 245.909C155.205 245.659 155.297 245.445 155.483 245.267C155.672 245.089 155.898 245 156.159 245C156.42 245 156.644 245.089 156.83 245.267C157.019 245.445 157.114 245.659 157.114 245.909C157.114 246.159 157.019 246.373 156.83 246.551C156.644 246.729 156.42 246.818 156.159 246.818ZM161.842 257.205C161.289 257.205 160.787 257.1 160.337 256.892C159.886 256.68 159.528 256.375 159.263 255.977C158.998 255.576 158.865 255.091 158.865 254.523C158.865 254.023 158.964 253.617 159.161 253.307C159.357 252.992 159.621 252.746 159.95 252.568C160.28 252.39 160.643 252.258 161.041 252.17C161.443 252.08 161.846 252.008 162.251 251.955C162.782 251.886 163.212 251.835 163.541 251.801C163.875 251.763 164.117 251.701 164.268 251.614C164.424 251.527 164.501 251.375 164.501 251.159V251.114C164.501 250.553 164.348 250.117 164.041 249.807C163.738 249.496 163.278 249.341 162.661 249.341C162.02 249.341 161.518 249.481 161.155 249.761C160.791 250.042 160.536 250.341 160.388 250.659L159.115 250.205C159.342 249.674 159.645 249.261 160.024 248.966C160.407 248.667 160.823 248.458 161.274 248.341C161.729 248.22 162.176 248.159 162.615 248.159C162.895 248.159 163.217 248.193 163.581 248.261C163.948 248.326 164.303 248.46 164.643 248.665C164.988 248.869 165.274 249.178 165.501 249.591C165.729 250.004 165.842 250.557 165.842 251.25V257H164.501V255.818H164.433C164.342 256.008 164.191 256.21 163.979 256.426C163.767 256.642 163.484 256.826 163.132 256.977C162.78 257.129 162.35 257.205 161.842 257.205ZM162.047 256C162.577 256 163.024 255.896 163.388 255.688C163.755 255.479 164.032 255.21 164.217 254.881C164.407 254.551 164.501 254.205 164.501 253.841V252.614C164.445 252.682 164.32 252.744 164.126 252.801C163.937 252.854 163.717 252.902 163.467 252.943C163.221 252.981 162.981 253.015 162.746 253.045C162.515 253.072 162.327 253.095 162.183 253.114C161.835 253.159 161.509 253.233 161.206 253.335C160.907 253.434 160.664 253.583 160.479 253.784C160.297 253.981 160.206 254.25 160.206 254.591C160.206 255.057 160.378 255.409 160.723 255.648C161.071 255.883 161.513 256 162.047 256ZM168.472 257V245.364H169.812V249.659H169.926C170.025 249.508 170.161 249.314 170.335 249.08C170.513 248.841 170.767 248.629 171.097 248.443C171.43 248.254 171.881 248.159 172.449 248.159C173.184 248.159 173.831 248.343 174.392 248.71C174.953 249.078 175.39 249.598 175.705 250.273C176.019 250.947 176.176 251.742 176.176 252.659C176.176 253.583 176.019 254.384 175.705 255.062C175.39 255.737 174.955 256.259 174.398 256.631C173.841 256.998 173.199 257.182 172.472 257.182C171.911 257.182 171.462 257.089 171.125 256.903C170.788 256.714 170.528 256.5 170.347 256.261C170.165 256.019 170.025 255.818 169.926 255.659H169.767V257H168.472ZM169.79 252.636C169.79 253.295 169.886 253.877 170.08 254.381C170.273 254.881 170.555 255.273 170.926 255.557C171.297 255.837 171.752 255.977 172.29 255.977C172.85 255.977 173.318 255.83 173.693 255.534C174.072 255.235 174.356 254.833 174.545 254.33C174.739 253.822 174.835 253.258 174.835 252.636C174.835 252.023 174.741 251.47 174.551 250.977C174.366 250.481 174.083 250.089 173.705 249.801C173.33 249.509 172.858 249.364 172.29 249.364C171.744 249.364 171.286 249.502 170.915 249.778C170.544 250.051 170.263 250.434 170.074 250.926C169.884 251.415 169.79 251.985 169.79 252.636ZM178.227 257V248.273H179.568V257H178.227ZM178.909 246.818C178.648 246.818 178.422 246.729 178.233 246.551C178.047 246.373 177.955 246.159 177.955 245.909C177.955 245.659 178.047 245.445 178.233 245.267C178.422 245.089 178.648 245 178.909 245C179.17 245 179.394 245.089 179.58 245.267C179.769 245.445 179.864 245.659 179.864 245.909C179.864 246.159 179.769 246.373 179.58 246.551C179.394 246.729 179.17 246.818 178.909 246.818ZM183.365 245.364V257H182.024V245.364H183.365ZM185.821 257V248.273H187.162V257H185.821ZM186.503 246.818C186.241 246.818 186.016 246.729 185.827 246.551C185.641 246.373 185.548 246.159 185.548 245.909C185.548 245.659 185.641 245.445 185.827 245.267C186.016 245.089 186.241 245 186.503 245C186.764 245 186.988 245.089 187.173 245.267C187.363 245.445 187.457 245.659 187.457 245.909C187.457 246.159 187.363 246.373 187.173 246.551C186.988 246.729 186.764 246.818 186.503 246.818ZM193.413 248.273V249.409H188.891V248.273H193.413ZM190.209 246.182H191.55V254.5C191.55 254.879 191.605 255.163 191.714 255.352C191.828 255.538 191.972 255.663 192.146 255.727C192.324 255.788 192.512 255.818 192.709 255.818C192.857 255.818 192.978 255.811 193.072 255.795C193.167 255.777 193.243 255.761 193.3 255.75L193.572 256.955C193.482 256.989 193.355 257.023 193.192 257.057C193.029 257.095 192.822 257.114 192.572 257.114C192.194 257.114 191.822 257.032 191.459 256.869C191.099 256.706 190.8 256.458 190.561 256.125C190.326 255.792 190.209 255.371 190.209 254.864V246.182ZM196.294 260.273C196.067 260.273 195.864 260.254 195.686 260.216C195.508 260.182 195.385 260.148 195.317 260.114L195.658 258.932C195.983 259.015 196.271 259.045 196.521 259.023C196.771 259 196.993 258.888 197.186 258.688C197.383 258.491 197.563 258.17 197.726 257.727L197.976 257.045L194.749 248.273H196.203L198.612 255.227H198.703L201.112 248.273H202.567L198.862 258.273C198.696 258.723 198.489 259.097 198.243 259.392C197.997 259.691 197.711 259.913 197.385 260.057C197.063 260.201 196.699 260.273 196.294 260.273Z" fill="black"/>
<path d="M302.773 294.273C302.705 293.697 302.428 293.25 301.943 292.932C301.458 292.614 300.864 292.455 300.159 292.455C299.644 292.455 299.193 292.538 298.807 292.705C298.424 292.871 298.125 293.1 297.909 293.392C297.697 293.684 297.591 294.015 297.591 294.386C297.591 294.697 297.665 294.964 297.812 295.188C297.964 295.407 298.157 295.591 298.392 295.739C298.627 295.883 298.873 296.002 299.131 296.097C299.388 296.187 299.625 296.261 299.841 296.318L301.023 296.636C301.326 296.716 301.663 296.826 302.034 296.966C302.409 297.106 302.767 297.297 303.108 297.54C303.453 297.778 303.737 298.085 303.96 298.46C304.184 298.835 304.295 299.295 304.295 299.841C304.295 300.47 304.131 301.038 303.801 301.545C303.475 302.053 302.998 302.456 302.369 302.756C301.744 303.055 300.985 303.205 300.091 303.205C299.258 303.205 298.536 303.07 297.926 302.801C297.32 302.532 296.843 302.157 296.494 301.676C296.15 301.195 295.955 300.636 295.909 300H297.364C297.402 300.439 297.549 300.803 297.807 301.091C298.068 301.375 298.398 301.587 298.795 301.727C299.197 301.864 299.629 301.932 300.091 301.932C300.629 301.932 301.112 301.845 301.54 301.67C301.968 301.492 302.307 301.246 302.557 300.932C302.807 300.614 302.932 300.242 302.932 299.818C302.932 299.432 302.824 299.117 302.608 298.875C302.392 298.633 302.108 298.436 301.756 298.284C301.403 298.133 301.023 298 300.614 297.886L299.182 297.477C298.273 297.216 297.553 296.843 297.023 296.358C296.492 295.873 296.227 295.239 296.227 294.455C296.227 293.803 296.403 293.235 296.756 292.75C297.112 292.261 297.589 291.883 298.188 291.614C298.79 291.341 299.462 291.205 300.205 291.205C300.955 291.205 301.621 291.339 302.205 291.608C302.788 291.873 303.25 292.237 303.591 292.699C303.936 293.161 304.117 293.686 304.136 294.273H302.773ZM307.294 306.273C307.067 306.273 306.864 306.254 306.686 306.216C306.508 306.182 306.385 306.148 306.317 306.114L306.658 304.932C306.983 305.015 307.271 305.045 307.521 305.023C307.771 305 307.993 304.888 308.186 304.688C308.383 304.491 308.563 304.17 308.726 303.727L308.976 303.045L305.749 294.273H307.203L309.612 301.227H309.703L312.112 294.273H313.567L309.862 304.273C309.696 304.723 309.489 305.097 309.243 305.392C308.997 305.691 308.711 305.913 308.385 306.057C308.063 306.201 307.699 306.273 307.294 306.273ZM321.518 296.227L320.314 296.568C320.238 296.367 320.126 296.172 319.979 295.983C319.835 295.79 319.638 295.631 319.388 295.506C319.138 295.381 318.818 295.318 318.428 295.318C317.893 295.318 317.448 295.441 317.092 295.688C316.74 295.93 316.564 296.239 316.564 296.614C316.564 296.947 316.685 297.21 316.928 297.403C317.17 297.597 317.549 297.758 318.064 297.886L319.359 298.205C320.14 298.394 320.721 298.684 321.104 299.074C321.486 299.46 321.678 299.958 321.678 300.568C321.678 301.068 321.534 301.515 321.246 301.909C320.962 302.303 320.564 302.614 320.053 302.841C319.541 303.068 318.946 303.182 318.268 303.182C317.378 303.182 316.642 302.989 316.058 302.602C315.475 302.216 315.106 301.652 314.95 300.909L316.223 300.591C316.344 301.061 316.573 301.413 316.911 301.648C317.251 301.883 317.696 302 318.246 302C318.871 302 319.367 301.867 319.734 301.602C320.106 301.333 320.291 301.011 320.291 300.636C320.291 300.333 320.185 300.08 319.973 299.875C319.761 299.667 319.435 299.511 318.996 299.409L317.541 299.068C316.742 298.879 316.155 298.585 315.78 298.188C315.409 297.786 315.223 297.284 315.223 296.682C315.223 296.189 315.361 295.754 315.638 295.375C315.918 294.996 316.299 294.699 316.78 294.483C317.265 294.267 317.814 294.159 318.428 294.159C319.291 294.159 319.969 294.348 320.462 294.727C320.958 295.106 321.31 295.606 321.518 296.227ZM327.491 294.273V295.409H322.969V294.273H327.491ZM324.287 292.182H325.628V300.5C325.628 300.879 325.683 301.163 325.793 301.352C325.906 301.538 326.05 301.663 326.224 301.727C326.402 301.788 326.59 301.818 326.787 301.818C326.935 301.818 327.056 301.811 327.151 301.795C327.245 301.777 327.321 301.761 327.378 301.75L327.651 302.955C327.56 302.989 327.433 303.023 327.27 303.057C327.107 303.095 326.901 303.114 326.651 303.114C326.272 303.114 325.901 303.032 325.537 302.869C325.177 302.706 324.878 302.458 324.639 302.125C324.404 301.792 324.287 301.371 324.287 300.864V292.182ZM333.074 303.182C332.233 303.182 331.508 302.996 330.898 302.625C330.292 302.25 329.824 301.727 329.494 301.057C329.169 300.383 329.006 299.598 329.006 298.705C329.006 297.811 329.169 297.023 329.494 296.341C329.824 295.655 330.282 295.121 330.869 294.739C331.46 294.352 332.15 294.159 332.938 294.159C333.392 294.159 333.841 294.235 334.284 294.386C334.727 294.538 335.131 294.784 335.494 295.125C335.858 295.462 336.148 295.909 336.364 296.466C336.58 297.023 336.688 297.708 336.688 298.523V299.091H329.96V297.932H335.324C335.324 297.439 335.225 297 335.028 296.614C334.835 296.227 334.559 295.922 334.199 295.699C333.843 295.475 333.422 295.364 332.938 295.364C332.403 295.364 331.941 295.496 331.551 295.761C331.165 296.023 330.867 296.364 330.659 296.784C330.451 297.205 330.347 297.655 330.347 298.136V298.909C330.347 299.568 330.46 300.127 330.688 300.585C330.919 301.04 331.239 301.386 331.648 301.625C332.057 301.86 332.532 301.977 333.074 301.977C333.426 301.977 333.744 301.928 334.028 301.83C334.316 301.727 334.564 301.576 334.773 301.375C334.981 301.17 335.142 300.917 335.256 300.614L336.551 300.977C336.415 301.417 336.186 301.803 335.864 302.136C335.542 302.466 335.144 302.723 334.67 302.909C334.197 303.091 333.665 303.182 333.074 303.182ZM338.727 303V294.273H340.023V295.636H340.136C340.318 295.17 340.612 294.809 341.017 294.551C341.422 294.29 341.909 294.159 342.477 294.159C343.053 294.159 343.532 294.29 343.915 294.551C344.301 294.809 344.602 295.17 344.818 295.636H344.909C345.133 295.186 345.468 294.828 345.915 294.562C346.362 294.294 346.898 294.159 347.523 294.159C348.303 294.159 348.941 294.403 349.438 294.892C349.934 295.377 350.182 296.133 350.182 297.159V303H348.841V297.159C348.841 296.515 348.665 296.055 348.312 295.778C347.96 295.502 347.545 295.364 347.068 295.364C346.455 295.364 345.979 295.549 345.642 295.92C345.305 296.288 345.136 296.754 345.136 297.318V303H343.773V297.023C343.773 296.527 343.612 296.127 343.29 295.824C342.968 295.517 342.553 295.364 342.045 295.364C341.697 295.364 341.371 295.456 341.068 295.642C340.769 295.828 340.527 296.085 340.341 296.415C340.159 296.741 340.068 297.117 340.068 297.545V303H338.727Z" fill="black"/>
<path d="M463.409 322V310.364H470.386V311.614H464.818V315.545H469.864V316.795H464.818V322H463.409ZM477.571 318.432V313.273H478.912V322H477.571V320.523H477.48C477.276 320.966 476.957 321.343 476.526 321.653C476.094 321.96 475.548 322.114 474.889 322.114C474.344 322.114 473.859 321.994 473.435 321.756C473.01 321.513 472.677 321.15 472.435 320.665C472.192 320.176 472.071 319.561 472.071 318.818V313.273H473.412V318.727C473.412 319.364 473.59 319.871 473.946 320.25C474.306 320.629 474.764 320.818 475.321 320.818C475.654 320.818 475.993 320.733 476.338 320.562C476.687 320.392 476.978 320.131 477.213 319.778C477.452 319.426 477.571 318.977 477.571 318.432ZM482.709 316.75V322H481.368V313.273H482.663V314.636H482.777C482.982 314.193 483.292 313.837 483.709 313.568C484.125 313.295 484.663 313.159 485.322 313.159C485.913 313.159 486.43 313.28 486.874 313.523C487.317 313.761 487.661 314.125 487.908 314.614C488.154 315.098 488.277 315.712 488.277 316.455V322H486.936V316.545C486.936 315.86 486.758 315.326 486.402 314.943C486.046 314.557 485.557 314.364 484.936 314.364C484.508 314.364 484.125 314.456 483.788 314.642C483.455 314.828 483.192 315.098 482.999 315.455C482.805 315.811 482.709 316.242 482.709 316.75ZM494.273 322.182C493.455 322.182 492.75 321.989 492.159 321.602C491.568 321.216 491.114 320.684 490.795 320.006C490.477 319.328 490.318 318.553 490.318 317.682C490.318 316.795 490.481 316.013 490.807 315.335C491.136 314.653 491.595 314.121 492.182 313.739C492.773 313.352 493.462 313.159 494.25 313.159C494.864 313.159 495.417 313.273 495.909 313.5C496.402 313.727 496.805 314.045 497.119 314.455C497.434 314.864 497.629 315.341 497.705 315.886H496.364C496.261 315.489 496.034 315.136 495.682 314.83C495.333 314.519 494.864 314.364 494.273 314.364C493.75 314.364 493.292 314.5 492.898 314.773C492.508 315.042 492.203 315.422 491.983 315.915C491.767 316.403 491.659 316.977 491.659 317.636C491.659 318.311 491.765 318.898 491.977 319.398C492.193 319.898 492.496 320.286 492.886 320.562C493.28 320.839 493.742 320.977 494.273 320.977C494.621 320.977 494.938 320.917 495.222 320.795C495.506 320.674 495.746 320.5 495.943 320.273C496.14 320.045 496.28 319.773 496.364 319.455H497.705C497.629 319.97 497.441 320.434 497.142 320.847C496.847 321.256 496.455 321.581 495.966 321.824C495.481 322.062 494.917 322.182 494.273 322.182ZM503.46 313.273V314.409H498.938V313.273H503.46ZM500.256 311.182H501.597V319.5C501.597 319.879 501.652 320.163 501.761 320.352C501.875 320.538 502.019 320.663 502.193 320.727C502.371 320.788 502.559 320.818 502.756 320.818C502.903 320.818 503.025 320.811 503.119 320.795C503.214 320.777 503.29 320.761 503.347 320.75L503.619 321.955C503.528 321.989 503.402 322.023 503.239 322.057C503.076 322.095 502.869 322.114 502.619 322.114C502.241 322.114 501.869 322.032 501.506 321.869C501.146 321.706 500.847 321.458 500.608 321.125C500.373 320.792 500.256 320.371 500.256 319.864V311.182ZM505.477 322V313.273H506.818V322H505.477ZM506.159 311.818C505.898 311.818 505.672 311.729 505.483 311.551C505.297 311.373 505.205 311.159 505.205 310.909C505.205 310.659 505.297 310.445 505.483 310.267C505.672 310.089 505.898 310 506.159 310C506.42 310 506.644 310.089 506.83 310.267C507.019 310.445 507.114 310.659 507.114 310.909C507.114 311.159 507.019 311.373 506.83 311.551C506.644 311.729 506.42 311.818 506.159 311.818ZM512.82 322.182C512.032 322.182 511.34 321.994 510.746 321.619C510.155 321.244 509.693 320.72 509.359 320.045C509.03 319.371 508.865 318.583 508.865 317.682C508.865 316.773 509.03 315.979 509.359 315.301C509.693 314.623 510.155 314.097 510.746 313.722C511.34 313.347 512.032 313.159 512.82 313.159C513.607 313.159 514.297 313.347 514.888 313.722C515.482 314.097 515.945 314.623 516.274 315.301C516.607 315.979 516.774 316.773 516.774 317.682C516.774 318.583 516.607 319.371 516.274 320.045C515.945 320.72 515.482 321.244 514.888 321.619C514.297 321.994 513.607 322.182 512.82 322.182ZM512.82 320.977C513.418 320.977 513.911 320.824 514.297 320.517C514.683 320.21 514.969 319.807 515.155 319.307C515.34 318.807 515.433 318.265 515.433 317.682C515.433 317.098 515.34 316.555 515.155 316.051C514.969 315.547 514.683 315.14 514.297 314.83C513.911 314.519 513.418 314.364 512.82 314.364C512.221 314.364 511.729 314.519 511.342 314.83C510.956 315.14 510.67 315.547 510.484 316.051C510.299 316.555 510.206 317.098 510.206 317.682C510.206 318.265 510.299 318.807 510.484 319.307C510.67 319.807 510.956 320.21 511.342 320.517C511.729 320.824 512.221 320.977 512.82 320.977ZM520.162 316.75V322H518.821V313.273H520.116V314.636H520.23C520.435 314.193 520.745 313.837 521.162 313.568C521.579 313.295 522.116 313.159 522.776 313.159C523.366 313.159 523.884 313.28 524.327 313.523C524.77 313.761 525.115 314.125 525.361 314.614C525.607 315.098 525.73 315.712 525.73 316.455V322H524.389V316.545C524.389 315.86 524.211 315.326 523.855 314.943C523.499 314.557 523.01 314.364 522.389 314.364C521.961 314.364 521.579 314.456 521.241 314.642C520.908 314.828 520.645 315.098 520.452 315.455C520.259 315.811 520.162 316.242 520.162 316.75ZM530.749 322.205C530.196 322.205 529.694 322.1 529.243 321.892C528.792 321.68 528.434 321.375 528.169 320.977C527.904 320.576 527.771 320.091 527.771 319.523C527.771 319.023 527.87 318.617 528.067 318.307C528.264 317.992 528.527 317.746 528.857 317.568C529.186 317.39 529.55 317.258 529.947 317.17C530.349 317.08 530.752 317.008 531.158 316.955C531.688 316.886 532.118 316.835 532.447 316.801C532.781 316.763 533.023 316.701 533.175 316.614C533.33 316.527 533.408 316.375 533.408 316.159V316.114C533.408 315.553 533.254 315.117 532.947 314.807C532.644 314.496 532.184 314.341 531.567 314.341C530.927 314.341 530.425 314.481 530.061 314.761C529.697 315.042 529.442 315.341 529.294 315.659L528.021 315.205C528.249 314.674 528.552 314.261 528.93 313.966C529.313 313.667 529.73 313.458 530.18 313.341C530.635 313.22 531.082 313.159 531.521 313.159C531.802 313.159 532.124 313.193 532.487 313.261C532.855 313.326 533.209 313.46 533.55 313.665C533.894 313.869 534.18 314.178 534.408 314.591C534.635 315.004 534.749 315.557 534.749 316.25V322H533.408V320.818H533.339C533.249 321.008 533.097 321.21 532.885 321.426C532.673 321.642 532.391 321.826 532.038 321.977C531.686 322.129 531.256 322.205 530.749 322.205ZM530.953 321C531.483 321 531.93 320.896 532.294 320.688C532.661 320.479 532.938 320.21 533.124 319.881C533.313 319.551 533.408 319.205 533.408 318.841V317.614C533.351 317.682 533.226 317.744 533.033 317.801C532.843 317.854 532.624 317.902 532.374 317.943C532.127 317.981 531.887 318.015 531.652 318.045C531.421 318.072 531.233 318.095 531.089 318.114C530.741 318.159 530.415 318.233 530.112 318.335C529.813 318.434 529.571 318.583 529.385 318.784C529.203 318.981 529.112 319.25 529.112 319.591C529.112 320.057 529.285 320.409 529.629 320.648C529.978 320.883 530.419 321 530.953 321ZM538.537 310.364V322H537.196V310.364H538.537Z" fill="black"/>
<path d="M471.409 226V214.364H478.432V215.614H472.818V219.545H478.068V220.795H472.818V224.75H478.523V226H471.409ZM490.79 220.182C490.79 221.409 490.568 222.47 490.125 223.364C489.682 224.258 489.074 224.947 488.301 225.432C487.528 225.917 486.646 226.159 485.653 226.159C484.661 226.159 483.778 225.917 483.006 225.432C482.233 224.947 481.625 224.258 481.182 223.364C480.739 222.47 480.517 221.409 480.517 220.182C480.517 218.955 480.739 217.894 481.182 217C481.625 216.106 482.233 215.417 483.006 214.932C483.778 214.447 484.661 214.205 485.653 214.205C486.646 214.205 487.528 214.447 488.301 214.932C489.074 215.417 489.682 216.106 490.125 217C490.568 217.894 490.79 218.955 490.79 220.182ZM489.426 220.182C489.426 219.174 489.258 218.324 488.92 217.631C488.587 216.938 488.134 216.413 487.562 216.057C486.994 215.701 486.358 215.523 485.653 215.523C484.949 215.523 484.311 215.701 483.739 216.057C483.17 216.413 482.718 216.938 482.381 217.631C482.047 218.324 481.881 219.174 481.881 220.182C481.881 221.189 482.047 222.04 482.381 222.733C482.718 223.426 483.17 223.951 483.739 224.307C484.311 224.663 484.949 224.841 485.653 224.841C486.358 224.841 486.994 224.663 487.562 224.307C488.134 223.951 488.587 223.426 488.92 222.733C489.258 222.04 489.426 221.189 489.426 220.182ZM493.159 226V214.364H494.568V224.75H499.977V226H493.159Z" fill="black"/>
<path d="M233.818 358.364V370H232.409V358.364H233.818ZM237.803 364.75V370H236.462V361.273H237.757V362.636H237.871C238.075 362.193 238.386 361.837 238.803 361.568C239.219 361.295 239.757 361.159 240.416 361.159C241.007 361.159 241.524 361.28 241.967 361.523C242.411 361.761 242.755 362.125 243.001 362.614C243.248 363.098 243.371 363.712 243.371 364.455V370H242.03V364.545C242.03 363.86 241.852 363.326 241.496 362.943C241.14 362.557 240.651 362.364 240.03 362.364C239.602 362.364 239.219 362.456 238.882 362.642C238.549 362.828 238.286 363.098 238.092 363.455C237.899 363.811 237.803 364.242 237.803 364.75ZM249.616 361.273V362.409H245.094V361.273H249.616ZM246.412 359.182H247.753V367.5C247.753 367.879 247.808 368.163 247.918 368.352C248.031 368.538 248.175 368.663 248.349 368.727C248.527 368.788 248.715 368.818 248.912 368.818C249.06 368.818 249.181 368.811 249.276 368.795C249.37 368.777 249.446 368.761 249.503 368.75L249.776 369.955C249.685 369.989 249.558 370.023 249.395 370.057C249.232 370.095 249.026 370.114 248.776 370.114C248.397 370.114 248.026 370.032 247.662 369.869C247.302 369.706 247.003 369.458 246.764 369.125C246.529 368.792 246.412 368.371 246.412 367.864V359.182ZM255.199 370.182C254.358 370.182 253.633 369.996 253.023 369.625C252.417 369.25 251.949 368.727 251.619 368.057C251.294 367.383 251.131 366.598 251.131 365.705C251.131 364.811 251.294 364.023 251.619 363.341C251.949 362.655 252.407 362.121 252.994 361.739C253.585 361.352 254.275 361.159 255.062 361.159C255.517 361.159 255.966 361.235 256.409 361.386C256.852 361.538 257.256 361.784 257.619 362.125C257.983 362.462 258.273 362.909 258.489 363.466C258.705 364.023 258.812 364.708 258.812 365.523V366.091H252.085V364.932H257.449C257.449 364.439 257.35 364 257.153 363.614C256.96 363.227 256.684 362.922 256.324 362.699C255.968 362.475 255.547 362.364 255.062 362.364C254.528 362.364 254.066 362.496 253.676 362.761C253.29 363.023 252.992 363.364 252.784 363.784C252.576 364.205 252.472 364.655 252.472 365.136V365.909C252.472 366.568 252.585 367.127 252.812 367.585C253.044 368.04 253.364 368.386 253.773 368.625C254.182 368.86 254.657 368.977 255.199 368.977C255.551 368.977 255.869 368.928 256.153 368.83C256.441 368.727 256.689 368.576 256.898 368.375C257.106 368.17 257.267 367.917 257.381 367.614L258.676 367.977C258.54 368.417 258.311 368.803 257.989 369.136C257.667 369.466 257.269 369.723 256.795 369.909C256.322 370.091 255.79 370.182 255.199 370.182ZM264.375 373.455C263.727 373.455 263.17 373.371 262.705 373.205C262.239 373.042 261.85 372.826 261.54 372.557C261.233 372.292 260.989 372.008 260.807 371.705L261.875 370.955C261.996 371.114 262.15 371.295 262.335 371.5C262.521 371.708 262.775 371.888 263.097 372.04C263.422 372.195 263.848 372.273 264.375 372.273C265.08 372.273 265.661 372.102 266.119 371.761C266.578 371.42 266.807 370.886 266.807 370.159V368.386H266.693C266.595 368.545 266.455 368.742 266.273 368.977C266.095 369.208 265.837 369.415 265.5 369.597C265.167 369.775 264.716 369.864 264.148 369.864C263.443 369.864 262.811 369.697 262.25 369.364C261.693 369.03 261.252 368.545 260.926 367.909C260.604 367.273 260.443 366.5 260.443 365.591C260.443 364.697 260.6 363.919 260.915 363.256C261.229 362.589 261.667 362.074 262.227 361.71C262.788 361.343 263.436 361.159 264.17 361.159C264.739 361.159 265.189 361.254 265.523 361.443C265.86 361.629 266.117 361.841 266.295 362.08C266.477 362.314 266.617 362.508 266.716 362.659H266.852V361.273H268.148V370.25C268.148 371 267.977 371.61 267.636 372.08C267.299 372.553 266.845 372.9 266.273 373.119C265.705 373.343 265.072 373.455 264.375 373.455ZM264.33 368.659C264.867 368.659 265.322 368.536 265.693 368.29C266.064 368.044 266.347 367.689 266.54 367.227C266.733 366.765 266.83 366.212 266.83 365.568C266.83 364.939 266.735 364.384 266.545 363.903C266.356 363.422 266.076 363.045 265.705 362.773C265.333 362.5 264.875 362.364 264.33 362.364C263.761 362.364 263.288 362.508 262.909 362.795C262.534 363.083 262.252 363.47 262.062 363.955C261.877 364.439 261.784 364.977 261.784 365.568C261.784 366.174 261.879 366.71 262.068 367.176C262.261 367.638 262.545 368.002 262.92 368.267C263.299 368.528 263.769 368.659 264.33 368.659ZM270.602 370V361.273H271.898V362.591H271.989C272.148 362.159 272.436 361.809 272.852 361.54C273.269 361.271 273.739 361.136 274.261 361.136C274.36 361.136 274.483 361.138 274.631 361.142C274.778 361.146 274.89 361.152 274.966 361.159V362.523C274.92 362.511 274.816 362.494 274.653 362.472C274.494 362.445 274.326 362.432 274.148 362.432C273.723 362.432 273.345 362.521 273.011 362.699C272.682 362.873 272.42 363.116 272.227 363.426C272.038 363.733 271.943 364.083 271.943 364.477V370H270.602ZM279.124 370.205C278.571 370.205 278.069 370.1 277.618 369.892C277.167 369.68 276.809 369.375 276.544 368.977C276.279 368.576 276.146 368.091 276.146 367.523C276.146 367.023 276.245 366.617 276.442 366.307C276.639 365.992 276.902 365.746 277.232 365.568C277.561 365.39 277.925 365.258 278.322 365.17C278.724 365.08 279.127 365.008 279.533 364.955C280.063 364.886 280.493 364.835 280.822 364.801C281.156 364.763 281.398 364.701 281.55 364.614C281.705 364.527 281.783 364.375 281.783 364.159V364.114C281.783 363.553 281.629 363.117 281.322 362.807C281.019 362.496 280.559 362.341 279.942 362.341C279.302 362.341 278.8 362.481 278.436 362.761C278.072 363.042 277.817 363.341 277.669 363.659L276.396 363.205C276.624 362.674 276.927 362.261 277.305 361.966C277.688 361.667 278.105 361.458 278.555 361.341C279.01 361.22 279.457 361.159 279.896 361.159C280.177 361.159 280.499 361.193 280.862 361.261C281.23 361.326 281.584 361.46 281.925 361.665C282.269 361.869 282.555 362.178 282.783 362.591C283.01 363.004 283.124 363.557 283.124 364.25V370H281.783V368.818H281.714C281.624 369.008 281.472 369.21 281.26 369.426C281.048 369.642 280.766 369.826 280.413 369.977C280.061 370.129 279.631 370.205 279.124 370.205ZM279.328 369C279.858 369 280.305 368.896 280.669 368.688C281.036 368.479 281.313 368.21 281.499 367.881C281.688 367.551 281.783 367.205 281.783 366.841V365.614C281.726 365.682 281.601 365.744 281.408 365.801C281.218 365.854 280.999 365.902 280.749 365.943C280.502 365.981 280.262 366.015 280.027 366.045C279.796 366.072 279.608 366.095 279.464 366.114C279.116 366.159 278.79 366.233 278.487 366.335C278.188 366.434 277.946 366.583 277.76 366.784C277.578 366.981 277.487 367.25 277.487 367.591C277.487 368.057 277.66 368.409 278.004 368.648C278.353 368.883 278.794 369 279.328 369ZM289.366 361.273V362.409H284.844V361.273H289.366ZM286.162 359.182H287.503V367.5C287.503 367.879 287.558 368.163 287.668 368.352C287.781 368.538 287.925 368.663 288.099 368.727C288.277 368.788 288.465 368.818 288.662 368.818C288.81 368.818 288.931 368.811 289.026 368.795C289.12 368.777 289.196 368.761 289.253 368.75L289.526 369.955C289.435 369.989 289.308 370.023 289.145 370.057C288.982 370.095 288.776 370.114 288.526 370.114C288.147 370.114 287.776 370.032 287.412 369.869C287.052 369.706 286.753 369.458 286.514 369.125C286.279 368.792 286.162 368.371 286.162 367.864V359.182ZM291.384 370V361.273H292.724V370H291.384ZM292.065 359.818C291.804 359.818 291.579 359.729 291.389 359.551C291.204 359.373 291.111 359.159 291.111 358.909C291.111 358.659 291.204 358.445 291.389 358.267C291.579 358.089 291.804 358 292.065 358C292.327 358 292.55 358.089 292.736 358.267C292.925 358.445 293.02 358.659 293.02 358.909C293.02 359.159 292.925 359.373 292.736 359.551C292.55 359.729 292.327 359.818 292.065 359.818ZM298.726 370.182C297.938 370.182 297.247 369.994 296.652 369.619C296.061 369.244 295.599 368.72 295.266 368.045C294.936 367.371 294.771 366.583 294.771 365.682C294.771 364.773 294.936 363.979 295.266 363.301C295.599 362.623 296.061 362.097 296.652 361.722C297.247 361.347 297.938 361.159 298.726 361.159C299.514 361.159 300.203 361.347 300.794 361.722C301.389 362.097 301.851 362.623 302.18 363.301C302.514 363.979 302.68 364.773 302.68 365.682C302.68 366.583 302.514 367.371 302.18 368.045C301.851 368.72 301.389 369.244 300.794 369.619C300.203 369.994 299.514 370.182 298.726 370.182ZM298.726 368.977C299.324 368.977 299.817 368.824 300.203 368.517C300.589 368.21 300.875 367.807 301.061 367.307C301.247 366.807 301.339 366.265 301.339 365.682C301.339 365.098 301.247 364.555 301.061 364.051C300.875 363.547 300.589 363.14 300.203 362.83C299.817 362.519 299.324 362.364 298.726 362.364C298.127 362.364 297.635 362.519 297.249 362.83C296.862 363.14 296.576 363.547 296.391 364.051C296.205 364.555 296.112 365.098 296.112 365.682C296.112 366.265 296.205 366.807 296.391 367.307C296.576 367.807 296.862 368.21 297.249 368.517C297.635 368.824 298.127 368.977 298.726 368.977ZM306.068 364.75V370H304.727V361.273H306.023V362.636H306.136C306.341 362.193 306.652 361.837 307.068 361.568C307.485 361.295 308.023 361.159 308.682 361.159C309.273 361.159 309.79 361.28 310.233 361.523C310.676 361.761 311.021 362.125 311.267 362.614C311.513 363.098 311.636 363.712 311.636 364.455V370H310.295V364.545C310.295 363.86 310.117 363.326 309.761 362.943C309.405 362.557 308.917 362.364 308.295 362.364C307.867 362.364 307.485 362.456 307.148 362.642C306.814 362.828 306.551 363.098 306.358 363.455C306.165 363.811 306.068 364.242 306.068 364.75Z" fill="black"/>
<path d="M569.409 144V132.364H576.386V133.614H570.818V137.545H575.864V138.795H570.818V144H569.409ZM578.618 144V135.273H579.959V144H578.618ZM579.3 133.818C579.038 133.818 578.813 133.729 578.624 133.551C578.438 133.373 578.345 133.159 578.345 132.909C578.345 132.659 578.438 132.445 578.624 132.267C578.813 132.089 579.038 132 579.3 132C579.561 132 579.785 132.089 579.97 132.267C580.16 132.445 580.254 132.659 580.254 132.909C580.254 133.159 580.16 133.373 579.97 133.551C579.785 133.729 579.561 133.818 579.3 133.818ZM586.074 144.182C585.233 144.182 584.508 143.996 583.898 143.625C583.292 143.25 582.824 142.727 582.494 142.057C582.169 141.383 582.006 140.598 582.006 139.705C582.006 138.811 582.169 138.023 582.494 137.341C582.824 136.655 583.282 136.121 583.869 135.739C584.46 135.352 585.15 135.159 585.938 135.159C586.392 135.159 586.841 135.235 587.284 135.386C587.727 135.538 588.131 135.784 588.494 136.125C588.858 136.462 589.148 136.909 589.364 137.466C589.58 138.023 589.688 138.708 589.688 139.523V140.091H582.96V138.932H588.324C588.324 138.439 588.225 138 588.028 137.614C587.835 137.227 587.559 136.922 587.199 136.699C586.843 136.475 586.422 136.364 585.938 136.364C585.403 136.364 584.941 136.496 584.551 136.761C584.165 137.023 583.867 137.364 583.659 137.784C583.451 138.205 583.347 138.655 583.347 139.136V139.909C583.347 140.568 583.46 141.127 583.688 141.585C583.919 142.04 584.239 142.386 584.648 142.625C585.057 142.86 585.532 142.977 586.074 142.977C586.426 142.977 586.744 142.928 587.028 142.83C587.316 142.727 587.564 142.576 587.773 142.375C587.981 142.17 588.142 141.917 588.256 141.614L589.551 141.977C589.415 142.417 589.186 142.803 588.864 143.136C588.542 143.466 588.144 143.723 587.67 143.909C587.197 144.091 586.665 144.182 586.074 144.182ZM593.068 132.364V144H591.727V132.364H593.068ZM598.82 144.182C598.092 144.182 597.45 143.998 596.893 143.631C596.337 143.259 595.901 142.737 595.587 142.062C595.272 141.384 595.115 140.583 595.115 139.659C595.115 138.742 595.272 137.947 595.587 137.273C595.901 136.598 596.339 136.078 596.899 135.71C597.46 135.343 598.107 135.159 598.842 135.159C599.411 135.159 599.859 135.254 600.189 135.443C600.522 135.629 600.776 135.841 600.95 136.08C601.128 136.314 601.267 136.508 601.365 136.659H601.479V132.364H602.82V144H601.524V142.659H601.365C601.267 142.818 601.126 143.019 600.945 143.261C600.763 143.5 600.503 143.714 600.166 143.903C599.829 144.089 599.38 144.182 598.82 144.182ZM599.001 142.977C599.539 142.977 599.994 142.837 600.365 142.557C600.736 142.273 601.018 141.881 601.212 141.381C601.405 140.877 601.501 140.295 601.501 139.636C601.501 138.985 601.407 138.415 601.217 137.926C601.028 137.434 600.748 137.051 600.376 136.778C600.005 136.502 599.547 136.364 599.001 136.364C598.433 136.364 597.96 136.509 597.581 136.801C597.206 137.089 596.924 137.481 596.734 137.977C596.549 138.47 596.456 139.023 596.456 139.636C596.456 140.258 596.551 140.822 596.74 141.33C596.933 141.833 597.217 142.235 597.592 142.534C597.971 142.83 598.441 142.977 599.001 142.977Z" fill="black"/>
<path d="M190.409 484V472.364H194.477C195.288 472.364 195.956 472.504 196.483 472.784C197.009 473.061 197.402 473.434 197.659 473.903C197.917 474.369 198.045 474.886 198.045 475.455C198.045 475.955 197.956 476.367 197.778 476.693C197.604 477.019 197.373 477.277 197.085 477.466C196.801 477.655 196.492 477.795 196.159 477.886V478C196.515 478.023 196.873 478.148 197.233 478.375C197.593 478.602 197.894 478.928 198.136 479.352C198.379 479.777 198.5 480.295 198.5 480.909C198.5 481.492 198.367 482.017 198.102 482.483C197.837 482.949 197.419 483.318 196.847 483.591C196.275 483.864 195.53 484 194.614 484H190.409ZM191.818 482.75H194.614C195.534 482.75 196.188 482.572 196.574 482.216C196.964 481.856 197.159 481.42 197.159 480.909C197.159 480.515 197.059 480.152 196.858 479.818C196.657 479.481 196.371 479.212 196 479.011C195.629 478.807 195.189 478.705 194.682 478.705H191.818V482.75ZM191.818 477.477H194.432C194.856 477.477 195.239 477.394 195.58 477.227C195.924 477.061 196.197 476.826 196.398 476.523C196.602 476.22 196.705 475.864 196.705 475.455C196.705 474.943 196.527 474.509 196.17 474.153C195.814 473.794 195.25 473.614 194.477 473.614H191.818V477.477ZM200.634 484V475.273H201.929V476.591H202.02C202.179 476.159 202.467 475.809 202.884 475.54C203.3 475.271 203.77 475.136 204.293 475.136C204.391 475.136 204.514 475.138 204.662 475.142C204.81 475.146 204.921 475.152 204.997 475.159V476.523C204.952 476.511 204.848 476.494 204.685 476.472C204.526 476.445 204.357 476.432 204.179 476.432C203.755 476.432 203.376 476.521 203.043 476.699C202.713 476.873 202.452 477.116 202.259 477.426C202.069 477.733 201.974 478.083 201.974 478.477V484H200.634ZM206.587 484V475.273H207.928V484H206.587ZM207.268 473.818C207.007 473.818 206.782 473.729 206.592 473.551C206.407 473.373 206.314 473.159 206.314 472.909C206.314 472.659 206.407 472.445 206.592 472.267C206.782 472.089 207.007 472 207.268 472C207.53 472 207.753 472.089 207.939 472.267C208.128 472.445 208.223 472.659 208.223 472.909C208.223 473.159 208.128 473.373 207.939 473.551C207.753 473.729 207.53 473.818 207.268 473.818ZM211.724 478.75V484H210.384V475.273H211.679V476.636H211.793C211.997 476.193 212.308 475.837 212.724 475.568C213.141 475.295 213.679 475.159 214.338 475.159C214.929 475.159 215.446 475.28 215.889 475.523C216.332 475.761 216.677 476.125 216.923 476.614C217.17 477.098 217.293 477.712 217.293 478.455V484H215.952V478.545C215.952 477.86 215.774 477.326 215.418 476.943C215.062 476.557 214.573 476.364 213.952 476.364C213.524 476.364 213.141 476.456 212.804 476.642C212.471 476.828 212.207 477.098 212.014 477.455C211.821 477.811 211.724 478.242 211.724 478.75ZM223.266 487.455C222.618 487.455 222.061 487.371 221.595 487.205C221.129 487.042 220.741 486.826 220.43 486.557C220.124 486.292 219.879 486.008 219.697 485.705L220.766 484.955C220.887 485.114 221.04 485.295 221.226 485.5C221.411 485.708 221.665 485.888 221.987 486.04C222.313 486.195 222.739 486.273 223.266 486.273C223.97 486.273 224.552 486.102 225.01 485.761C225.468 485.42 225.697 484.886 225.697 484.159V482.386H225.584C225.485 482.545 225.345 482.742 225.163 482.977C224.985 483.208 224.728 483.415 224.391 483.597C224.057 483.775 223.607 483.864 223.038 483.864C222.334 483.864 221.701 483.697 221.141 483.364C220.584 483.03 220.143 482.545 219.817 481.909C219.495 481.273 219.334 480.5 219.334 479.591C219.334 478.697 219.491 477.919 219.805 477.256C220.12 476.589 220.557 476.074 221.118 475.71C221.679 475.343 222.326 475.159 223.061 475.159C223.629 475.159 224.08 475.254 224.413 475.443C224.75 475.629 225.008 475.841 225.186 476.08C225.368 476.314 225.508 476.508 225.607 476.659H225.743V475.273H227.038V484.25C227.038 485 226.868 485.61 226.527 486.08C226.19 486.553 225.735 486.9 225.163 487.119C224.595 487.343 223.963 487.455 223.266 487.455ZM223.22 482.659C223.758 482.659 224.213 482.536 224.584 482.29C224.955 482.044 225.237 481.689 225.43 481.227C225.624 480.765 225.72 480.212 225.72 479.568C225.72 478.939 225.625 478.384 225.436 477.903C225.247 477.422 224.966 477.045 224.595 476.773C224.224 476.5 223.766 476.364 223.22 476.364C222.652 476.364 222.179 476.508 221.8 476.795C221.425 477.083 221.143 477.47 220.953 477.955C220.768 478.439 220.675 478.977 220.675 479.568C220.675 480.174 220.769 480.71 220.959 481.176C221.152 481.638 221.436 482.002 221.811 482.267C222.19 482.528 222.66 482.659 223.22 482.659ZM234.493 478.386V479.636H229.402V478.386H234.493ZM242.352 480.432V475.273H243.693V484H242.352V482.523H242.261C242.057 482.966 241.739 483.343 241.307 483.653C240.875 483.96 240.33 484.114 239.67 484.114C239.125 484.114 238.64 483.994 238.216 483.756C237.792 483.513 237.458 483.15 237.216 482.665C236.973 482.176 236.852 481.561 236.852 480.818V475.273H238.193V480.727C238.193 481.364 238.371 481.871 238.727 482.25C239.087 482.629 239.545 482.818 240.102 482.818C240.436 482.818 240.775 482.733 241.119 482.562C241.468 482.392 241.759 482.131 241.994 481.778C242.233 481.426 242.352 480.977 242.352 480.432ZM246.149 487.273V475.273H247.445V476.659H247.604C247.702 476.508 247.839 476.314 248.013 476.08C248.191 475.841 248.445 475.629 248.774 475.443C249.107 475.254 249.558 475.159 250.126 475.159C250.861 475.159 251.509 475.343 252.07 475.71C252.63 476.078 253.068 476.598 253.382 477.273C253.696 477.947 253.854 478.742 253.854 479.659C253.854 480.583 253.696 481.384 253.382 482.062C253.068 482.737 252.632 483.259 252.075 483.631C251.518 483.998 250.876 484.182 250.149 484.182C249.589 484.182 249.14 484.089 248.803 483.903C248.465 483.714 248.206 483.5 248.024 483.261C247.842 483.019 247.702 482.818 247.604 482.659H247.49V487.273H246.149ZM247.467 479.636C247.467 480.295 247.564 480.877 247.757 481.381C247.95 481.881 248.232 482.273 248.604 482.557C248.975 482.837 249.429 482.977 249.967 482.977C250.528 482.977 250.996 482.83 251.371 482.534C251.75 482.235 252.034 481.833 252.223 481.33C252.416 480.822 252.513 480.258 252.513 479.636C252.513 479.023 252.418 478.47 252.229 477.977C252.043 477.481 251.761 477.089 251.382 476.801C251.007 476.509 250.536 476.364 249.967 476.364C249.422 476.364 248.964 476.502 248.592 476.778C248.221 477.051 247.941 477.434 247.751 477.926C247.562 478.415 247.467 478.985 247.467 479.636Z" fill="black"/>
<path d="M659.707 596.707C660.098 596.317 660.098 595.683 659.707 595.293L653.343 588.929C652.953 588.538 652.319 588.538 651.929 588.929C651.538 589.319 651.538 589.953 651.929 590.343L657.586 596L651.929 601.657C651.538 602.047 651.538 602.681 651.929 603.071C652.319 603.462 652.953 603.462 653.343 603.071L659.707 596.707ZM59 597H659V595H59V597Z" fill="black"/>
<path d="M59.7071 33.2929C59.3166 32.9024 58.6834 32.9024 58.2929 33.2929L51.9289 39.6569C51.5384 40.0474 51.5384 40.6805 51.9289 41.0711C52.3195 41.4616 52.9526 41.4616 53.3431 41.0711L59 35.4142L64.6569 41.0711C65.0474 41.4616 65.6805 41.4616 66.0711 41.0711C66.4616 40.6805 66.4616 40.0474 66.0711 39.6569L59.7071 33.2929ZM60 596L60 34H58L58 596H60Z" fill="black"/>
<rect x="88" y="447" width="190" height="121" fill="#00E6FF" fill-opacity="0.1"/>
<rect x="428" y="257" width="147" height="117" fill="#51FF00" fill-opacity="0.1"/>
<path d="M242.5 223H94.5V436.5H332.25V342.5H242.5V223Z" fill="#FF0D00" fill-opacity="0.1"/>
</svg>
